<svg id="Layer_1" enable-background="new 0 0 420 30" viewBox="0 0 420 30" xmlns="http://www.w3.org/2000/svg"><g fill="none"><path d="m0 0h30v30h-30z"/><path d="m30 0h30v30h-30z"/><path d="m60 0h30v30h-30z"/><path d="m90 0h30v30h-30z"/><path d="m120 0h30v30h-30z"/><path d="m150 0h30v30h-30z"/><path d="m180 0h30v30h-30z"/><path d="m210 0h30v30h-30z"/><path d="m240 0h30v30h-30z"/><path d="m270 0h30v30h-30z"/><path d="m300 0h30v30h-30z"/><path d="m330 0h30v30h-30z"/><path d="m360 0h30v30h-30z"/><path d="m390 0h30v30h-30z"/><path d="m84.047 26h-18.094c-1.03 0-1.865-.835-1.865-1.865v-10.947c0-.549.242-1.07.66-1.424l8.346-7.06c1.111-.94 2.738-.938 3.848.003l8.313 7.057c.417.354.658.874.658 1.422v10.949c-.001 1.03-.836 1.865-1.866 1.865z" stroke="#010202" stroke-linecap="round" stroke-linejoin="round" stroke-miterlimit="10"/><path d="m66 14.322 8.928 4.96 8.929-4.96" stroke="#010202" stroke-linecap="round" stroke-linejoin="round" stroke-miterlimit="10"/><path d="m80.522 15.975v-5.041h-11.044v5.041" stroke="#010202" stroke-linecap="round" stroke-linejoin="round" stroke-miterlimit="10"/><path d="m71.901 13.455h6.198" stroke="#010202" stroke-linecap="round" stroke-linejoin="round" stroke-miterlimit="10"/><path d="m71.901 15.276h6.198" stroke="#010202" stroke-linecap="round" stroke-linejoin="round" stroke-miterlimit="10"/><path d="m98.016 22.744h-1.922c-1.105 0-2-.895-2-2v-5.781c0-1.105.895-2 2-2h17.812c1.105 0 2 .895 2 2v5.781c0 1.105-.895 2-2 2h-1.859" stroke="#010202" stroke-linecap="round" stroke-linejoin="round" stroke-miterlimit="10"/><path d="m98.123 18.869h13.755v6.812h-13.755z" stroke="#010202" stroke-linecap="round" stroke-linejoin="round" stroke-miterlimit="10"/><path d="m111.877 12.963h-13.754v-8.644h8.755c1.953 1.953 3.047 3.047 5 5v3.644z" stroke="#010202" stroke-linecap="round" stroke-linejoin="round" stroke-miterlimit="10"/><path d="m111.877 9.319h-5v-5z" stroke="#010202" stroke-linecap="round" stroke-linejoin="round" stroke-miterlimit="10"/><path d="m292.841 6.484-10.574 8.781-3.928-4.269-4.339 4.342 8.178 8.178 13.822-13.818z" stroke="#010202" stroke-linecap="round" stroke-linejoin="round" stroke-miterlimit="10"/><path d="m315 25.496 0 0c-3.391 0-6.141-2.749-6.141-6.141v-8.71c0-3.391 2.749-6.141 6.141-6.141l0 0c3.391 0 6.141 2.749 6.141 6.141v8.71c0 3.392-2.75 6.141-6.141 6.141z" stroke="#010202" stroke-linecap="round" stroke-linejoin="round" stroke-miterlimit="10"/><path d="m315 7.594v4.218" stroke="#010202" stroke-linecap="round" stroke-linejoin="round" stroke-miterlimit="10"/><path d="m308.953 12.79c1.861 1.03 3.968 1.627 6.047 1.627s4.186-.596 6.047-1.627" stroke="#010202" stroke-linecap="round" stroke-linejoin="round" stroke-miterlimit="10"/><path d="m243.678 15.859c2.079.9 3.77 1.621 5.874 2.533.145.063.292.081.439-.047 5.035-4.71 9.956-9.329 14.991-14.039.66-.595 1.931-.23 1.523.321-8.92 10.286-13.609 16.305-16.45 21.057-.258.434-.749.41-1.015-.007-.626-.995-1.572-2.556-1.598-2.595-2.015-3.518-2.079-3.664-4.003-7.024-.091-.164.106-.284.239-.199z" stroke="#010202" stroke-miterlimit="10"/><circle cx="195" cy="15" r="11.163" stroke="#010202" stroke-linecap="round" stroke-linejoin="round" stroke-miterlimit="10"/><path d="m195 8.721v12.558" stroke="#010202" stroke-linecap="round" stroke-linejoin="round" stroke-miterlimit="10"/><path d="m200.581 15.726-5.581 5.581-5.581-5.581" stroke="#010202" stroke-linecap="round" stroke-linejoin="round" stroke-miterlimit="10"/><circle cx="225" cy="15" r="11.163" stroke="#010202" stroke-linecap="round" stroke-linejoin="round" stroke-miterlimit="10"/><path d="m229.667 14.665-2.874 3.021v-8.965c0-.828-.672-1.5-1.5-1.5s-1.5.672-1.5 1.5v8.965l-3.167-3.021c-.586-.586-1.608-.586-2.194 0s-.623 1.535-.037 2.121l5.563 5.581c.05.05.106.071.161.113.039.029.075.055.116.08.146.089.294.151.457.186.006.001.011.002.018.004.098.02.192.057.291.057s.194-.037.292-.057c.006-.001.012-.002.019-.004.163-.035.313-.096.459-.186.042-.025.082-.052.121-.081.055-.042.12-.063.17-.113l5.581-5.581c.586-.586.659-1.535.073-2.121s-1.463-.585-2.049.001z" stroke="#010202" stroke-miterlimit="10"/><path d="m128.236 12.22c.049.651.591 3.563 3.336 6.286 2.723 2.745 5.69 3.342 6.341 3.391 2.002.212 3.337-.896 3.843-2.623.135-.461-.089-.956-.518-1.171l-2.218-1.115c-.385-.194-.851-.119-1.156.186l-1.328 1.328s-1.113-.083-3.249-2.219c-2.187-2.187-2.219-3.249-2.219-3.249l1.347-1.347c.296-.296.376-.745.201-1.125l-.871-1.892c-.212-.461-.744-.709-1.222-.538-1.627.58-2.496 2.113-2.287 4.088z" stroke="#010202" stroke-miterlimit="10"/><path d="m45 4c-6.076 0-11 4.924-11 11 0 6.075 4.924 11 11 11 6.075 0 11-4.925 11-11 0-6.076-4.925-11-11-11" stroke="#010202" stroke-miterlimit="10"/><path d="m38.236 12.22c.049.651.591 3.563 3.336 6.286 2.723 2.745 5.69 3.342 6.341 3.391 2.002.212 3.337-.896 3.843-2.623.135-.461-.089-.956-.518-1.171l-2.218-1.115c-.385-.194-.851-.119-1.156.186l-1.328 1.328s-1.113-.083-3.249-2.219c-2.187-2.187-2.219-3.249-2.219-3.249l1.347-1.347c.296-.296.376-.745.201-1.125l-.871-1.892c-.212-.461-.744-.709-1.222-.538-1.627.58-2.496 2.113-2.287 4.088z" stroke="#010202" stroke-miterlimit="10"/><path d="m169.56 14.583h-10.053c-.749 0-1.444.39-1.835 1.029l-3.514 5.748c-.103.168-.158.362-.158.56v2.43c0 1.188.963 2.151 2.151 2.151h17.699c1.188 0 2.151-.963 2.151-2.151v-2.369c0-.236-.078-.465-.221-.653l-4.51-5.901c-.408-.532-1.04-.844-1.71-.844z" stroke="#010202" stroke-miterlimit="10"/><path d="m163.898 14.751v-2.667c0-.725-.588-1.312-1.312-1.312l0 0c-.725 0-1.312.588-1.312 1.312v2.667" stroke="#010202" stroke-miterlimit="10"/><path d="m168.727 14.751v-2.667c0-.725-.588-1.312-1.312-1.312l0 0c-.725 0-1.312.588-1.312 1.312v2.667" stroke="#010202" stroke-miterlimit="10"/><circle cx="165" cy="20.584" r="3.5" stroke="#010202" stroke-miterlimit="10"/><path d="m174.282 6.285c-1.505-1.244-5.396-2.786-9.287-2.786s-7.782 1.543-9.287 2.786c-2.333 1.887-1.937 4.591-.202 6.857l4.287-1.592v-2.761c0-.385.239-.748.602-.878.743-.266 1.905-.695 4.667-.695s4.113.429 4.855.695c.363.13.876.492.876.878v2.761l3.989 1.592c1.735-2.266 1.834-4.971-.5-6.857z" stroke="#010202" stroke-miterlimit="10"/><path d="m352.076 11.076c0 3.908-5.406 14.924-7.076 14.924s-7.076-11.016-7.076-14.924 3.168-7.076 7.076-7.076 7.076 3.168 7.076 7.076z" stroke="#010202" stroke-miterlimit="10"/><circle cx="345" cy="11.076" r="4.008" stroke="#010202" stroke-miterlimit="10"/><path d="m365.493 21.889 0 0c-.578-.334-.776-1.073-.442-1.651l8.579-14.859 2.093 1.208-8.579 14.859c-.334.578-1.073.776-1.651.443z" stroke="#010202" stroke-linecap="round" stroke-linejoin="round" stroke-miterlimit="10"/><path d="m365.493 21.889-.703 1.217" stroke="#010202" stroke-linecap="round" stroke-linejoin="round" stroke-miterlimit="10"/><path d="m367.63 15.771 2.093 1.209" stroke="#010202" stroke-linecap="round" stroke-linejoin="round" stroke-miterlimit="10"/><path d="m372.613 7.14 3.753 2.166-2.359 4.085" stroke="#010202" stroke-linecap="round" stroke-linejoin="round" stroke-miterlimit="10"/><path d="m364 24.621h22" stroke="#010202" stroke-linecap="round" stroke-linejoin="round" stroke-miterlimit="10"/><path d="m23.118 22.193-3.607-2.479c-.324-.224-.749-.229-1.086-.025l-3.133 1.897-3.133-1.89c-.337-.204-.762-.189-1.086.035l-3.607 2.462c-1.206.835-1.926 2.641-1.926 3.641h9.751 9.751c.002-1.001-.718-2.807-1.924-3.641z" stroke="#010202" stroke-miterlimit="10"/><path d="m17.499 19.935s-.584-.731-.647-2.772c1.479-1.438 1.896-2.896 1.896-2.896s1.083.188 1.38-1.67c.246-1.535-.818-1.58-.818-1.58s.139-3.221-1.604-4.312c-1.666-1.854-3.005-1.505-4.12-2.45-.503.792-.574 1.521-.574 1.521l-1.103.482c-.197.086-.389.193-.542.344-1.489 1.463-1.203 4.416-1.203 4.416s-1.063.045-.818 1.58c.297 1.857 1.38 1.67 1.38 1.67s.417 1.458 1.896 2.896c-.062 2.042-.647 2.772-.647 2.772" stroke="#010202" stroke-linecap="round" stroke-linejoin="round" stroke-miterlimit="10"/><circle cx="405" cy="15" r="11" stroke="#010202" stroke-linecap="round" stroke-linejoin="round" stroke-miterlimit="10"/><path d="m405 8.486v6.514h3.222" stroke="#010202" stroke-linecap="round" stroke-linejoin="round"/></g><path d="m403.504 8.924 1.496-2.591 1.496 2.591z" fill="#010202"/><path d="m407.785 16.496 2.59-1.496-2.59-1.496z" fill="#010202"/></svg>