<svg version="1.1" id="Layer_1" xmlns="http://www.w3.org/2000/svg" xmlns:xlink="http://www.w3.org/1999/xlink" x="0px" y="0px"
	 width="1200px" height="563.8px" viewBox="0 0 1200 563.8" enable-background="new 0 0 1200 563.8" xml:space="preserve">
<g id="New_Symbol">
	<g>
		<path fill="#FFFFFF" d="M222.6,562.4c-27.6,0-51.6-24.5-51.6-52v-7.6l-1.3-0.9c-1.6-1.2-3.2-2.6-4.8-4c-1.3-1.2-2.7-2.4-4.2-3.5
			c-6.1-4.9-12.5-8.4-18.7-11.8c-4.1-2.3-8.4-4.6-12.5-7.4c-16.5-10.9-27-27.6-30.4-48.4c-1.7-10-0.8-20.7,2.6-32
			c0.5-1.8,1.1-3.6,1.6-5.4c2.5-8.4,5-17.2,8.9-24.9c1.3-2.6,2.7-5,4-7.4c0.8-1.4,1.6-2.9,2.4-4.4l1.6-2.9l-3-1.4
			c-6.3-3-12.3-6.8-17.7-11.5c-24.8-21.3-42.1-55.9-45.1-90.3l-0.1-0.7l-0.3-0.6c-4.2-7.7-10.8-14.1-17.1-20.2
			c-6.6-6.4-12.9-12.4-16.6-19.8l-0.1-0.2l-0.2-0.2c-4.2-5.7-7-12.2-8.4-15.5c-0.4-1-0.8-2-1.2-3c-2.1-5-4.4-10.6-4.2-15.4l0-0.5
			l-0.1-0.5c-1.2-4-2-7.6-2.5-11.1c-2-13.1,1.7-28,10.5-42c18-28.8,41.6-49.6,68.3-60.2c17.1-6.8,34.6-10.4,50.7-10.4
			c14.5,0,27.5,2.9,38.8,8.6c24.4,12.4,35.4,36,42.2,55.2l2.4,6.9l3.3-6.5c0.7-1.4,2.1-2.5,4.2-3.1c1.6-0.5,3.1-0.7,4.6-0.7
			c4.8,0,9.2,2.6,12.9,7.6l-0.1,0.7l1.1,1.2c4,4.4,9.2,11.4,11,19.7c0.2,0.8,0.4,1.7,0.6,2.6c1.2,4.8,2.6,10.8,0.3,14.1
			c-2.3,3.2-5.5,4.9-9,4.9c-1,0-2-0.1-2.9-0.4l-6.1-1.8l2.3,5.9c1.3,3.2,2.6,6.5,3.9,9.8c6.4,15.8,12.9,32.2,16.5,48.7l0.5,2.2
			l2.2,0.5c4,0.5,7.7,1.2,11.5,1.2h0.5c15.6,0,30.1-5.6,44-10.8c10.4-3.9,21.2-8,32.3-9.6c1.7-0.3,3.5-0.4,5.3-0.4
			c9.3,0,17.9,3.6,25.1,7.2c11.1,5.5,19.5,10.6,26.7,19.3c4.4,5.3,8.5,10.4,12.2,15.2c0.2,0.3,0.4,1,0.6,1.4
			c0.8,1.5,1.9,3.9,4.3,3.9h42.5l0.1-3.3c0.1-3-0.6-8.1-1.1-11.8l-0.2-1.6c-0.9-7.4-2.6-14.8-4.3-22l-0.1-0.4
			c-2.4-10.5-6-20.7-10.5-29.5c-0.7-1.4-1.4-2.7-2.2-4c-2.4-4.2-5.7-9.6-10.2-14.4c-0.9-1-1.9-1.9-2.9-2.9c-2-1.9-4.1-4-5.1-6.1
			c-4.4-9.3-5.9-17.2-4.6-25l0.1-0.2l0.1-0.7c1.9-16.3,17.1-33.2,28.4-44.5c5-5,10.9-9.5,16.6-13.8c14.1-10.6,28.6-21.6,31.7-41.4
			l0.3-1.7l-0.7-0.6c0.6-7.7,4-20,19-22.2c0.4-0.1,0.7-0.1,1.1-0.1c3.2,0,6.3,2,7.6,4.9c1.1,2.4,1.1,5.2,1.1,8.1
			c0.1,3.8,0.1,7.7,2.2,11.3l0.4,0.7l0.7,0.4c1.5,0.9,3.1,1.3,4.9,1.3c5.4,0,11-4.2,17-8.6c5.8-4.3,11.9-8.8,16.9-8.8
			c1.2,0,2.3,0.3,3.4,0.8l1.5,0.8l1-0.6c3,0.5,5.2,5.3,5.8,8.7c0.7,3.7-1.3,7.6-3.3,11.8c-2.4,4.8-4.9,9.9-3.5,15.3l0.2,0.9l0.7,0.6
			c3.1,2.7,7.8,3,11.6,3c1.7,0,3.4-0.1,5.1-0.1c1.5-0.1,2.9-0.1,4.3-0.1c1.7,0,2.8,0.1,3.6,0.3c1.1,0.3,2.2,1.3,2.9,2.5
			c0.3,0.6,0.8,1.7,0.4,2.8c-1.4,4.7-5.1,8.8-8.7,12.7l-1.5,1.6c-5,5.6-10.8,9.2-17.5,10.8l-0.3,0.1l-0.3,0.2
			c-4.9,2.4-9.9,4.9-14.8,7.5l-1.6,0.8l0,0.6c-13.9,6.7-30.8,22.2-35.5,38.6c-0.4,1.3-0.7,2.5-1,3.9l-0.1,0.2l0,0.3
			c-0.5,7,0.3,14.2,1,21l1,9.6l4.6-4.1c3.1-2.8,7-5.1,10.7-7.3l0,0l0.5-0.1l0.5-0.5c1.5-0.9,3-1.8,4.5-2.8c2.6-1.7,4.9-3.5,7.1-5.2
			c2.6-2,5.5-4.1,8.7-6.1l1.7-0.9v-0.4c5-3.6,8-8.7,11-13.7c2.7-4.5,5.2-8.7,8.9-11.5c8.1-6,19-9.9,28.1-9.9l0.8,0
			c18.4,0.5,35.1,11.9,45.6,31.4l0.2,0.4l0.4,0.3c8.8,8.5,13.1,21,16.1,32.1l0.1,0.3l0.1,0.3c3.2,6.7,7.1,12.8,12.4,19.3
			c2.8,3.3,5.9,5.8,8.9,8.1c2.2,1.7,4.2,3.2,6.1,5.1c5.3,5.2,11.7,9.2,17.9,13c3.6,2.2,6.9,4.3,10.1,6.6l0.2,0.4l0.7,0.5
			c8,4.9,11.8,9.3,11.3,12.8c-0.4,3.1-2.9,4.7-7.4,4.7c-1.6,0-3.4-0.2-4.9-0.7l-0.2,0l-0.2-0.1l-0.4-0.1c-0.6-0.1-1.5-0.4-2.4-0.8
			c-1.5-0.6-3.1-1.2-4.8-1.2c-2.2,0-4.1,1.2-5,3.2c-0.5,1-0.6,2.5-0.9,4.8l3.3-2.6v6.7h424.5c28,0,51.5,22.4,51.5,49.6v211.4
			c0,27.6-23.9,52-51.5,52H222.6z M152.3,431c0,0.2,0,0.6,0.2,1.1c0.3,1.2,0.6,2.3,1,3.5c0.4,1.5,0.8,2.9,1.2,4.4l0.1,0.4l0.2,0.3
			c2.3,3.8,6.7,10.7,10.5,14.7l5.5,5.8v-22.3l-1.1-0.9c-1.7-1.5-3-3.6-4.3-5.8c-0.8-1.3-1.6-2.6-2.5-3.9c-0.1-0.2-0.3-0.5-0.4-0.9
			c-0.4-0.9-0.8-2.1-2-3.2l-1.1-1l-1.5,0.3c-2.9,0.5-4.7,1.6-5.6,3.4C151.8,428.1,151.8,429.6,152.3,431z M587,205.6
			c-2.4,4-4.6,8.3-6.8,12.4l-1.9,3.6c-4.3,8.2-9.2,16.7-13.3,22.5l-3.5,5.2H673l-9.3-6c-9.6-5.9-19.7-16.5-25.7-25.9V217l-1.4-1.2
			l-0.1,0c-2.9-2.8-5.3-6.2-7.9-9.7c-6.1-8.5-12.5-17.2-24.9-18.4l-1.3-0.1l-1,0.8c-5.1,4.2-9.6,9.5-14,16.7l-0.3,0.5l0,0.1
			L587,205.6z"/>
		<path fill="#42C4E2" d="M1146.5,251.1H222.6c-26.4,0-47.8,21.4-47.8,47.8v211.4c0,26.4,21.5,47.8,47.8,47.8h923.9
			c26.4,0,47.8-21.5,47.8-47.8V298.9C1194.3,272.5,1172.9,251.1,1146.5,251.1z"/>
		<path fill="#1B75BB" d="M1146.5,245.4H222.6c-29.5,0-53.5,24-53.5,53.5v211.4c0,29.5,24,53.5,53.5,53.5h923.9
			c29.5,0,53.5-24,53.5-53.5V298.9C1200,269.4,1176,245.4,1146.5,245.4z M1194.3,510.3c0,26.4-21.5,47.8-47.8,47.8H222.6
			c-26.4,0-47.8-21.5-47.8-47.8V298.9c0-26.4,21.5-47.8,47.8-47.8h923.9c26.4,0,47.8,21.4,47.8,47.8V510.3z"/>
		<linearGradient id="SVGID_4_" gradientUnits="userSpaceOnUse" x1="684.5859" y1="358.6099" x2="684.5859" y2="251.0947">
			<stop  offset="0" style="stop-color:#FFFFFF"/>
			<stop  offset="0.9" style="stop-color:#FFFFFF;stop-opacity:0"/>
		</linearGradient>
		<path opacity="0.7" fill="url(#SVGID_4_)" d="M383.8,312.9c77.3,20.8,150.9,50.9,233.9,32.1c101.9-22.6,192.4-52.8,296.2-28.3
			c35.8,7.5,69.8,26.4,101.9,13.2c61-23.4,123.8-13.7,178.6,12.5v-43.4c0-26.4-21.5-47.8-47.8-47.8H222.6
			c-26.4,0-47.8,21.4-47.8,47.8v59.7C232.8,311.3,308.3,292.4,383.8,312.9z"/>
		<linearGradient id="SVGID_6_" gradientUnits="userSpaceOnUse" x1="684.5859" y1="558.1263" x2="684.5859" y2="387.996">
			<stop  offset="1.818180e-002" style="stop-color:#FFFFFF;stop-opacity:0"/>
			<stop  offset="0.7818" style="stop-color:#FFFFFF"/>
		</linearGradient>
		<path opacity="0.5" fill="url(#SVGID_6_)" d="M1032.9,390.7c-25.5,13.2-49.8,26.9-71.9,39.1c-122.6,69.8-258.5,69.8-394.3,35.8
			c-126.4-32.1-243.4-84.9-373.5-66c-6.3,0.9-12.4,2.1-18.4,3.7v107c0,26.4,21.5,47.8,47.8,47.8h923.9c26.4,0,47.8-21.5,47.8-47.8
			v-110C1140,390.3,1085,384.2,1032.9,390.7z"/>
		<path fill="#005698" d="M1123.6,392.6l-0.2-0.3c-0.3-0.4-0.5-0.7-0.8-1.1l-0.2-0.3c-0.2-0.3-0.5-0.7-0.7-1l-0.3-0.4
			c-0.2-0.3-0.5-0.7-0.7-1l-0.3-0.4c-0.3-0.4-0.5-0.7-0.8-1.1l-0.2-0.3c-0.3-0.4-0.5-0.7-0.8-1.1l-0.2-0.3c-0.2-0.3-0.5-0.7-0.7-1
			l-0.3-0.4c-0.3-0.4-0.5-0.8-0.8-1.1l-0.2-0.3c-0.3-0.4-0.5-0.7-0.8-1.1l-0.2-0.3c-0.3-0.4-0.5-0.7-0.8-1.1l-0.2-0.3
			c-0.2-0.3-0.5-0.7-0.7-1c-0.5-0.6-1-1.2-1.5-1.8c-0.2-0.2-0.4-0.5-0.6-0.7c-1.1-1.3-2.2-2.5-3.4-3.7c0,0-0.1-0.1-0.1-0.1
			c-8-7.9-17.7-12.7-28.3-14c-1.8-0.2-3.7-0.3-5.5-0.3c-1.2,0-2.5,0.1-3.7,0.1c-0.4,0-0.9,0.1-1.3,0.1c-0.8,0.1-1.6,0.2-2.3,0.3
			c-0.5,0.1-1,0.2-1.5,0.3c-0.7,0.1-1.4,0.3-2,0.4c-0.5,0.1-1,0.3-1.5,0.4c-0.6,0.2-1.3,0.4-1.9,0.6c-0.5,0.2-1,0.3-1.4,0.5
			c-0.7,0.2-1.3,0.5-1.9,0.7c-0.4,0.2-0.9,0.4-1.3,0.6c-0.7,0.3-1.4,0.6-2,0.9c-0.4,0.2-0.7,0.4-1.1,0.6c-0.7,0.4-1.4,0.8-2.1,1.2
			c-0.3,0.2-0.6,0.3-0.8,0.5c-0.8,0.5-1.6,1-2.3,1.6c-0.2,0.1-0.4,0.3-0.6,0.4c-0.9,0.6-1.7,1.3-2.5,2c-0.1,0.1-0.2,0.1-0.2,0.2
			c-5.5,4.7-10.1,10.8-13.6,18c-0.2-0.2-0.3-0.5-0.5-0.7c-0.3-0.5-0.6-0.9-1-1.3c-0.3-0.5-0.7-1-1-1.4c-0.3-0.5-0.6-0.9-1-1.3
			c-0.3-0.5-0.7-0.9-1-1.4c-0.3-0.5-0.6-0.9-1-1.3c-0.3-0.4-0.6-0.8-0.8-1.2c-4.7-7.9-12.7-13.2-24.6-16.7c-0.7-0.2-1.3-0.4-2-0.6
			c-0.9-0.2-1.9-0.5-2.9-0.7c-0.9-0.2-1.8-0.4-2.8-0.6c-0.9-0.2-1.8-0.4-2.8-0.5c-1.4-0.3-2.9-0.5-4.4-0.7c-0.9-0.1-1.8-0.3-2.7-0.4
			c-1.8-0.2-3.6-0.4-5.5-0.6c-0.9-0.1-1.8-0.1-2.7-0.2c-1.6-0.1-3.2-0.2-4.8-0.3c-1-0.1-1.9-0.1-2.9-0.2c-1.8-0.1-3.6-0.2-5.5-0.2
			c-0.9,0-1.8-0.1-2.7-0.1c-2.8-0.1-5.7-0.1-8.7-0.1c-0.5,0-0.9,0.1-1.4,0.2c-0.2-0.8-0.6-1.5-1.1-2.2c-0.1-0.1-0.2-0.2-0.3-0.3
			c-0.2-0.4-0.5-0.8-0.8-1.1c-0.1-0.1-0.2-0.2-0.2-0.3c-0.2-0.4-0.5-0.8-0.7-1.1c-0.1-0.1-0.2-0.2-0.3-0.3c-0.2-0.4-0.5-0.8-0.8-1.1
			c-0.1-0.1-0.2-0.2-0.2-0.3c-0.2-0.4-0.5-0.8-0.7-1.1c-0.1-0.1-0.2-0.2-0.3-0.3c-0.2-0.4-0.5-0.8-0.8-1.1c-0.1-0.1-0.2-0.2-0.2-0.3
			c-0.2-0.4-0.5-0.8-0.8-1.1c-0.1-0.1-0.2-0.2-0.3-0.3c-0.2-0.4-0.5-0.8-0.8-1.1c-0.1-0.1-0.2-0.2-0.2-0.3c-0.2-0.4-0.5-0.8-0.8-1.1
			c-0.1-0.1-0.2-0.2-0.3-0.3c-0.2-0.4-0.5-0.8-0.8-1.1c-0.1-0.1-0.2-0.2-0.2-0.3c-0.2-0.4-0.5-0.8-0.7-1.1c-0.1-0.1-0.2-0.2-0.3-0.3
			c-0.2-0.4-0.5-0.8-0.8-1.1c-5.6-6.4-16.3-10.3-28.7-10.3c-1.6,0-3.1,0.1-4.6,0.2c-0.5,0-1,0.1-1.5,0.2c-1,0.1-1.9,0.2-2.9,0.4
			c-0.6,0.1-1.2,0.2-1.8,0.4c-0.8,0.2-1.6,0.3-2.4,0.5c-0.6,0.2-1.3,0.4-1.9,0.6c-0.7,0.2-1.4,0.4-2,0.7c-0.7,0.2-1.3,0.5-2,0.8
			c-0.6,0.3-1.2,0.5-1.7,0.8c-0.7,0.3-1.3,0.7-2,1c-0.5,0.3-0.9,0.5-1.4,0.8c-0.7,0.4-1.4,0.8-2,1.3c-0.4,0.3-0.7,0.5-1.1,0.8
			c-0.7,0.5-1.4,1.1-2.1,1.6c-0.2,0.2-0.4,0.3-0.6,0.5c-7.3,6.5-12,15.6-13.5,26.6c-0.2-0.3-0.4-0.6-0.7-0.9c-0.3-0.5-0.6-1-1-1.4
			c0-0.1-0.1-0.1-0.1-0.1c-0.2-0.3-0.4-0.7-0.7-1c-0.1-0.1-0.2-0.2-0.2-0.3c-0.3-0.3-0.7-0.6-1-0.9c0,0-0.1,0-0.1-0.1
			c-0.4-0.2-0.7-0.4-1.1-0.5c-0.1,0-0.2-0.1-0.4-0.1c-0.5-0.1-0.9-0.2-1.4-0.2h-23.9c-1.8,0-3.4,0.8-4.5,2.2c-1.1,1.4-1.4,3.2-1,4.9
			c0.1,0.6,0.4,3.1,0.4,12c0,1,0,2-0.1,2.9c0,0.3,0,0.6-0.1,0.9c0,0.6-0.1,1.2-0.2,1.7c0,0.3-0.1,0.6-0.1,0.9
			c-0.1,0.5-0.1,0.9-0.2,1.4c-0.1,0.3-0.1,0.6-0.2,0.8c-0.1,0.4-0.2,0.8-0.3,1.1c-0.1,0.2-0.1,0.5-0.2,0.7c-0.1,0.4-0.2,0.7-0.4,1
			c-0.1,0.2-0.2,0.4-0.2,0.6c-0.1,0.3-0.3,0.6-0.5,0.9c-0.1,0.1-0.2,0.3-0.2,0.4c-0.2,0.4-0.5,0.8-0.8,1.1c0,0,0,0,0,0
			c-0.3,0.3-0.5,0.6-0.8,0.9c-0.1,0.1-0.2,0.2-0.3,0.2c-0.2,0.2-0.4,0.3-0.6,0.5c-0.1,0.1-0.2,0.1-0.3,0.2c-0.2,0.1-0.4,0.2-0.6,0.3
			c-0.1,0.1-0.2,0.1-0.4,0.2c-0.2,0.1-0.4,0.2-0.6,0.2c-0.1,0-0.2,0.1-0.4,0.1c-0.2,0.1-0.4,0.1-0.6,0.2c-0.1,0-0.2,0.1-0.3,0.1
			c-0.2,0-0.4,0.1-0.7,0.1c-0.1,0-0.1,0-0.2,0c-0.3,0-0.6,0.1-0.8,0.1c-0.2-1.5-0.3-3.1-0.3-4.6c0-2.3,0.1-4.9,0.7-6.9
			c0.4-1.5,0.2-3.1-0.5-4.5c-0.3-0.5-0.6-0.9-1-1.2c0-0.1-0.1-0.1-0.1-0.2c-0.2-0.4-0.5-0.8-0.9-1.1c0-0.1-0.1-0.2-0.1-0.2
			c-0.2-0.4-0.5-0.8-0.9-1.1c0-0.1-0.1-0.2-0.1-0.3c-0.2-0.4-0.5-0.8-0.9-1.1c0-0.1-0.1-0.2-0.1-0.3c-0.2-0.4-0.5-0.8-0.9-1.1
			c0-0.1-0.1-0.2-0.1-0.3c-0.2-0.4-0.5-0.8-0.9-1.1c0-0.1-0.1-0.2-0.1-0.2c-0.2-0.4-0.5-0.8-0.9-1.1c0-0.1-0.1-0.2-0.1-0.3
			c-0.2-0.4-0.5-0.8-0.9-1.1c0-0.1-0.1-0.2-0.1-0.3c-0.2-0.4-0.5-0.8-0.9-1.1c0-0.1-0.1-0.2-0.1-0.3c-0.2-0.4-0.5-0.8-0.9-1.1
			c0-0.1-0.1-0.2-0.1-0.3c-0.2-0.4-0.5-0.8-0.8-1.1c0-0.1-0.1-0.2-0.1-0.3c-0.8-1.3-2.1-2.3-3.6-2.7l-23.3-5.5
			c-0.4-0.1-0.9-0.1-1.3-0.1c-1.1,0-2.1,0.3-3,0.9c-1.3,0.8-2.2,2.1-2.5,3.6c-1,4.7-1.5,9.3-1.5,14.1c0,2.2,0.1,4.5,0.4,6.9
			c0,0,0-0.1-0.1-0.1c-0.3-0.5-0.7-0.9-1-1.4c-0.3-0.5-0.7-0.9-1-1.4c-0.3-0.5-0.7-0.9-1-1.4c-0.3-0.5-0.7-0.9-1-1.4
			c-0.3-0.5-0.7-0.9-1-1.4c-0.3-0.5-0.7-0.9-1-1.4c-0.2-0.4-0.5-0.7-0.8-1.1c-0.8-1.3-1.8-2.5-2.9-3.7c-0.2-0.3-0.5-0.5-0.8-0.8
			c-0.7-0.7-1.4-1.3-2.2-1.9c-0.5-0.4-1-0.8-1.5-1.2c-0.2-0.1-0.3-0.2-0.5-0.3c-2-1.4-4.2-2.6-6.7-3.6c0,0,0,0-0.1,0
			c-1.3-0.5-2.7-1-4.1-1.4c-0.2-0.1-0.4-0.1-0.6-0.2c-1.4-0.4-2.9-0.8-4.4-1.1c-0.4-0.1-0.7-0.1-1.1-0.2c-1.5-0.3-3-0.6-4.6-0.8
			c-0.7-0.1-1.5-0.2-2.3-0.2c-1.3-0.1-2.7-0.3-4.1-0.4c-2.3-0.1-4.7-0.2-7.2-0.2c-12.3,0-21.7,0.4-29.2,1.2
			c-1.1,0.1-2.1,0.2-3.1,0.4c-3,0.4-5.2,3.1-4.9,6.1c0.2,2.2,0.3,4.2,0.5,6.3c0.1,0.7,0.1,1.4,0.2,2c0.1,1.7,0.3,3.3,0.4,4.9
			c0,0.4,0.1,0.7,0.1,1.1c0.1,1.9,0.3,3.8,0.4,5.6c0,0.4,0.1,0.9,0.1,1.3c0.1,1.7,0.2,3.4,0.3,5c0,0.1,0,0.2,0,0.2
			c-0.1-0.1-0.1-0.2-0.2-0.3l-0.2-0.3c-0.3-0.4-0.5-0.7-0.8-1.1l-0.2-0.3c-0.3-0.4-0.5-0.7-0.8-1.1l-0.2-0.3
			c-0.3-0.4-0.5-0.7-0.8-1.1l-0.2-0.3c-0.2-0.3-0.5-0.7-0.7-1l-0.3-0.4c-0.3-0.4-0.5-0.8-0.8-1.1l-0.2-0.3c-0.3-0.4-0.5-0.7-0.8-1.1
			l-0.2-0.3c-0.2-0.3-0.5-0.7-0.7-1l-0.3-0.4c-0.3-0.4-0.5-0.7-0.8-1.1l-0.2-0.3c-0.3-0.4-0.5-0.7-0.8-1.1l-0.2-0.3
			c-0.3-0.4-0.5-0.7-0.8-1.1c-0.5-0.7-1.1-1.3-1.7-2c-0.2-0.2-0.4-0.5-0.6-0.7c-6.5-7.6-14.4-12.9-23.2-15.6c-0.5-0.2-1-0.3-1.5-0.5
			c-0.8-0.2-1.7-0.4-2.5-0.6c-0.9-0.2-1.9-0.4-2.8-0.5c-0.6-0.1-1.3-0.2-1.9-0.3c-1.7-0.2-3.3-0.3-5.1-0.3c-1.5,0-3,0.1-4.5,0.2
			c-0.5,0-0.9,0.1-1.4,0.2c-1,0.1-2,0.3-2.9,0.4c-0.5,0.1-1.1,0.2-1.6,0.3c-0.9,0.2-1.7,0.4-2.6,0.7c-0.5,0.2-1.1,0.3-1.6,0.5
			c-0.8,0.3-1.7,0.6-2.5,0.9c-0.5,0.2-1,0.4-1.5,0.6c-0.8,0.4-1.7,0.8-2.5,1.2c-0.4,0.2-0.9,0.4-1.3,0.7c-1,0.6-2,1.2-3,1.8
			c-0.2,0.1-0.4,0.2-0.6,0.4c-1.2,0.8-2.3,1.6-3.4,2.5c-0.3,0.3-0.7,0.6-1,0.9c-0.7,0.6-1.5,1.3-2.2,2c-0.4,0.4-0.8,0.8-1.2,1.2
			c-0.6,0.6-1.2,1.3-1.8,2c-0.4,0.4-0.8,0.9-1.1,1.3c-0.6,0.7-1.1,1.4-1.7,2.1c-0.4,0.5-0.7,1-1,1.4c-0.5,0.8-1.1,1.6-1.6,2.4
			c-0.3,0.5-0.6,0.9-0.9,1.4c-0.6,1-1.1,2-1.7,3.1c-0.2,0.3-0.4,0.7-0.5,1c-0.7,1.4-1.3,2.8-1.9,4.3c-0.2,0.4-0.3,0.8-0.4,1.2
			c-0.4,0.9-0.7,1.8-1,2.8c0.7-3,1.1-6.3,1.1-9.7c0-8.4-2.3-15.7-6.7-21.7c-0.3-0.5-0.6-0.9-1-1.3l0,0c-0.3-0.5-0.7-0.9-1-1.4
			c-0.3-0.5-0.7-0.9-1-1.4c-0.3-0.5-0.7-0.9-1-1.4c-0.3-0.4-0.6-0.9-1-1.4c-0.3-0.5-0.7-0.9-1-1.4c-0.3-0.5-0.7-0.9-1-1.4
			c-0.3-0.5-0.6-0.9-1-1.3l0,0c-0.3-0.5-0.6-0.9-1-1.3l0,0c-0.3-0.5-0.7-0.9-1-1.4c-0.3-0.5-0.6-0.9-1-1.3c-0.1-0.1-0.1-0.2-0.2-0.3
			c-7.8-10.3-21.8-15.9-42.5-17.1c0,0,0,0-0.1,0c-1.3-0.1-2.6-0.1-4-0.2c-1.5,0-3-0.1-4.5-0.1c-17.5,0-30.3,0.6-40.2,1.9
			c-3,0.4-5.2,3.1-4.9,6.1c0.2,2.3,0.4,4.5,0.5,6.7c0,0.3,0,0.5,0.1,0.8c0.5,6.2,0.9,12,1.3,17.4c0,0-0.1-0.1-0.1-0.1
			c-0.1-0.3-0.4-0.5-0.6-0.8c-0.1-0.1-0.2-0.3-0.3-0.4c-0.3-0.3-0.5-0.5-0.9-0.7c-0.1-0.1-0.2-0.2-0.3-0.3c-0.3-0.2-0.7-0.3-1-0.5
			c-0.1-0.1-0.3-0.1-0.4-0.2c-0.5-0.1-1-0.2-1.6-0.2H449c-1.8,0-3.4,0.8-4.5,2.2c-0.3,0.4-0.5,0.7-0.7,1.1c-0.5,1.2-0.6,2.5-0.3,3.8
			c0.1,0.4,0.2,1.5,0.3,4.4c0.1,1.8,0.1,4.2,0.1,7.6c0,1,0,2-0.1,2.9c0,0.3,0,0.6-0.1,0.9c0,0.6-0.1,1.2-0.2,1.7
			c0,0.3-0.1,0.6-0.1,0.9c-0.1,0.5-0.1,0.9-0.2,1.4c-0.1,0.3-0.1,0.6-0.2,0.8c-0.1,0.4-0.2,0.8-0.3,1.1c-0.1,0.2-0.1,0.5-0.2,0.7
			c-0.1,0.3-0.2,0.7-0.4,1c-0.1,0.2-0.2,0.4-0.2,0.6c-0.2,0.3-0.3,0.6-0.5,0.9c-0.1,0.1-0.2,0.3-0.2,0.4c-0.2,0.4-0.5,0.7-0.8,1.1
			c0,0,0,0,0,0c-0.3,0.3-0.5,0.6-0.8,0.9c-0.1,0.1-0.2,0.2-0.3,0.2c-0.2,0.2-0.4,0.3-0.6,0.5c-0.1,0.1-0.2,0.1-0.4,0.2
			c-0.2,0.1-0.4,0.2-0.6,0.3c-0.1,0.1-0.2,0.1-0.4,0.2c-0.2,0.1-0.4,0.2-0.6,0.2c-0.1,0-0.2,0.1-0.4,0.1c-0.2,0.1-0.4,0.1-0.6,0.2
			c-0.1,0-0.2,0.1-0.3,0.1c-0.2,0-0.4,0.1-0.6,0.1c-0.1,0-0.2,0-0.2,0c-0.3,0-0.6,0.1-0.8,0.1c-0.2-1.5-0.3-3.1-0.3-4.6
			c0-2.3,0.1-4.9,0.7-6.9c0.4-1.5,0.2-3.1-0.5-4.5c-0.3-0.5-0.6-0.9-1-1.2c0-0.1-0.1-0.1-0.1-0.2c-0.2-0.4-0.5-0.8-0.9-1.1
			c0-0.1-0.1-0.2-0.1-0.2c-0.2-0.4-0.5-0.8-0.9-1.1c0-0.1-0.1-0.2-0.1-0.3c-0.2-0.4-0.5-0.8-0.9-1.1c0-0.1-0.1-0.2-0.1-0.3
			c-0.2-0.4-0.5-0.8-0.9-1.1c0-0.1-0.1-0.2-0.1-0.3c-0.2-0.4-0.5-0.8-0.9-1.1c0-0.1-0.1-0.2-0.1-0.2c-0.2-0.4-0.5-0.8-0.9-1.1
			c0-0.1-0.1-0.2-0.1-0.3c-0.2-0.4-0.5-0.8-0.9-1.1c0-0.1-0.1-0.2-0.1-0.3c-0.2-0.4-0.5-0.8-0.9-1.1c0-0.1-0.1-0.2-0.1-0.3
			c-0.2-0.4-0.5-0.8-0.9-1.1c0-0.1-0.1-0.2-0.1-0.3c-0.2-0.4-0.5-0.8-0.8-1.1c0-0.1-0.1-0.2-0.1-0.3c-0.8-1.3-2.1-2.3-3.6-2.7
			l-23.3-5.5c-0.4-0.1-0.9-0.1-1.3-0.1c-1.1,0-2.1,0.3-3,0.9c-0.3,0.2-0.7,0.5-1,0.8c0,0,0,0-0.1,0c-0.2-0.3-0.5-0.6-0.7-0.9
			c-0.3-0.4-0.6-0.9-1-1.4c-0.3-0.5-0.7-0.9-1-1.4c-0.3-0.5-0.7-0.9-1-1.4c-0.3-0.4-0.6-0.8-0.9-1.3l-0.1-0.1
			c-0.3-0.5-0.7-0.9-1-1.4c-0.3-0.5-0.7-0.9-1-1.4c-0.3-0.4-0.6-0.9-0.9-1.3l-0.1-0.1c-0.3-0.5-0.7-0.9-1-1.4
			c-4.9-7.1-11.1-12.2-18.3-15.3c-0.1-0.1-0.3-0.1-0.4-0.2c-1-0.4-1.9-0.8-2.9-1.1c-0.6-0.2-1.3-0.4-1.9-0.6c-1-0.3-2.1-0.6-3.2-0.8
			c-1-0.2-2.1-0.4-3.2-0.6c-0.5-0.1-1-0.1-1.5-0.2c-1.6-0.2-3.2-0.3-4.8-0.3c-11.8,0-23.2,6.1-30.4,15.7
			c-6.4-8.5-15.7-14.1-25.8-15.4c-1.4-0.2-2.9-0.3-4.3-0.3c-26.3,0-43.8,19.1-47.8,50.7c-0.6,4.5-0.9,9.3-0.9,14.3
			c0,38.7,2.3,51.3,15.6,84.7c0.3,0.7,0.7,1.2,1.1,1.7c0,0.1,0.1,0.1,0.1,0.2c0.3,0.5,0.6,1,1,1.4c0.3,0.5,0.6,1,1,1.4
			c0.3,0.5,0.6,1,1,1.4c0.3,0.5,0.6,1,1,1.4c0.3,0.5,0.6,1,1,1.4c0.3,0.5,0.6,1,1,1.4c0.3,0.5,0.6,1,1,1.4c0.3,0.5,0.6,1,1,1.4
			c0.3,0.5,0.6,1,1,1.4c0.3,0.5,0.6,1,1,1.4c1,1.9,2.9,3.1,5,3.1c0.3,0,0.7,0,1-0.1l29.7-5.5c1.7-0.3,3.2-1.4,4-2.9
			c0.8-1.5,0.9-3.3,0.2-4.9c-1.9-4.3-3.6-8.7-5.1-13.2c0.1,0.1,0.2,0.2,0.3,0.3c0.1,0.3,0.3,0.5,0.5,0.8c0.2,0.2,0.3,0.4,0.5,0.6
			c0.1,0.3,0.3,0.5,0.5,0.8c0.2,0.2,0.3,0.4,0.5,0.6c0.1,0.3,0.3,0.5,0.5,0.8c0.2,0.2,0.3,0.4,0.5,0.6c0.1,0.3,0.3,0.5,0.5,0.8
			c0.2,0.2,0.3,0.4,0.5,0.6c0.1,0.3,0.3,0.5,0.5,0.8c0.2,0.2,0.3,0.4,0.5,0.6c0.1,0.3,0.3,0.5,0.5,0.8c0.2,0.2,0.3,0.4,0.5,0.6
			c0.1,0.3,0.3,0.5,0.5,0.8c0.2,0.2,0.3,0.4,0.5,0.6c0.1,0.3,0.3,0.5,0.5,0.8c1.1,1.4,2.8,2.3,4.6,2.3h31.6c1,0,2-0.3,2.9-0.8
			c0.1,0.1,0.2,0.3,0.3,0.4c0,0,0,0,0,0.1c0.3,0.5,0.6,0.9,1,1.3c0,0,0,0,0,0.1c0.3,0.5,0.6,0.9,1,1.3c0,0,0,0,0,0.1
			c0.3,0.5,0.6,0.9,1,1.3c0,0,0,0,0,0.1c0.3,0.5,0.6,0.9,1,1.3c0,0,0,0,0,0.1c0.8,1.5,2.3,2.6,4,2.9l29.6,5.5c0.3,0.1,0.7,0.1,1,0.1
			c2.3,0,4.4-1.4,5.3-3.5c9.2-22.3,14.1-45.4,15.3-71.8c0,0,0,0,0,0l0.2,0.3c0.3,0.4,0.5,0.7,0.8,1.1l0.2,0.3c0.2,0.3,0.5,0.7,0.7,1
			l0.2,0.3c0.3,0.4,0.5,0.7,0.8,1.1l0.2,0.3c0.2,0.4,0.5,0.7,0.8,1l0.2,0.3c0.3,0.4,0.5,0.7,0.8,1.1l0.3,0.4c0.2,0.4,0.5,0.7,0.8,1
			c1.6,2.2,3.4,4.3,5.3,6.1c0,2.9-0.1,5.7-0.1,8.4c0,0.7,0,1.4,0,2c0,1,0,1.9-0.1,2.9c0,0.7,0,1.4-0.1,2.1c0,0.9-0.1,1.8-0.1,2.7
			c0,0.7-0.1,1.4-0.1,2.1c0,0.8-0.1,1.7-0.1,2.5c0,0.8-0.1,1.5-0.1,2.3c0,0.8-0.1,1.5-0.1,2.3c0,0.9-0.1,1.8-0.2,2.7
			c0,0.6-0.1,1.2-0.1,1.8c-0.1,1.5-0.2,3-0.3,4.5c-0.1,1.5,0.4,3.1,1.4,4.2c0.1,0.1,0.1,0.1,0.2,0.2c0.2,0.4,0.5,0.8,0.8,1.2
			c0.1,0.1,0.1,0.1,0.2,0.2c0.2,0.4,0.5,0.8,0.8,1.2c0.1,0.1,0.1,0.1,0.2,0.2c0.2,0.4,0.5,0.8,0.8,1.2c0.1,0.1,0.1,0.1,0.2,0.2
			c0.2,0.4,0.5,0.8,0.8,1.2c0.1,0.1,0.1,0.1,0.2,0.2c0.2,0.4,0.5,0.8,0.8,1.2c0.1,0.1,0.1,0.1,0.2,0.2c0.2,0.4,0.5,0.8,0.8,1.2
			c0.1,0.1,0.1,0.1,0.2,0.2c0.2,0.4,0.5,0.8,0.8,1.2c0.1,0.1,0.1,0.1,0.2,0.2c0.2,0.4,0.5,0.8,0.8,1.2c0.1,0.1,0.1,0.1,0.2,0.2
			c0.2,0.4,0.5,0.8,0.8,1.2c0.1,0.1,0.1,0.1,0.2,0.2c0.2,0.4,0.5,0.8,0.8,1.2c0.1,0.1,0.1,0.1,0.2,0.2c0.2,0.4,0.5,0.8,0.8,1.2
			c1,1.2,2.5,1.8,4,1.9l24.1,0.8c0.1,0,0.1,0,0.2,0c1.5,0,2.9-0.6,4-1.6c1.1-1.1,1.7-2.5,1.7-4.1c0-2.1,0-4.2-0.1-6.3
			c0-2.1-0.1-4.2-0.1-6.3c0-10.9,0.3-21.3,0.8-32.4c7.5-2.9,13.4-7,17.8-12.3c-0.7,11.8-1.6,23.9-2.7,35.3c0,0.5-0.1,1.1-0.1,1.6
			c-0.1,1.6-0.3,3.1-0.4,4.7c-0.2,2-0.4,4-0.5,6c-0.1,1.6,0.4,3.2,1.5,4.3c0.1,0.1,0.1,0.1,0.2,0.2c0.2,0.4,0.5,0.8,0.8,1.2
			c0.1,0.1,0.1,0.1,0.2,0.2c0.2,0.4,0.5,0.8,0.8,1.2c0,0.1,0.1,0.1,0.2,0.2c0.2,0.4,0.5,0.8,0.8,1.2c0.1,0.1,0.1,0.1,0.2,0.2
			c0.2,0.4,0.5,0.8,0.8,1.2c0.1,0.1,0.1,0.1,0.2,0.2c0.2,0.4,0.5,0.8,0.8,1.2c0.1,0.1,0.1,0.1,0.2,0.2c0.2,0.4,0.5,0.8,0.8,1.2
			c0,0.1,0.1,0.1,0.2,0.2c0.2,0.4,0.5,0.8,0.8,1.2c0.1,0.1,0.1,0.1,0.2,0.2c0.2,0.4,0.5,0.8,0.8,1.2c0.1,0.1,0.1,0.1,0.2,0.2
			c0.2,0.4,0.5,0.8,0.8,1.2c0.1,0.1,0.1,0.1,0.2,0.2c0.2,0.4,0.5,0.8,0.8,1.2c0,0.1,0.1,0.1,0.2,0.2c0.2,0.4,0.5,0.8,0.8,1.2
			c1.1,1.2,2.6,1.9,4.2,1.9c47.9,0,83.3-11,100.1-30.6c0.5,1.5,1,3.1,1.5,4.6c0,0.1,0.1,0.2,0.1,0.3c0,0,0,0,0,0
			c0.2,0.5,0.4,1,0.7,1.4c0.1,0.1,0.2,0.2,0.3,0.3c0.1,0.1,0.2,0.3,0.3,0.4c0.3,0.5,0.6,1,1,1.4c0.3,0.5,0.6,1,1,1.4
			c0.3,0.5,0.6,1,1,1.4c0.3,0.5,0.6,1,1,1.4c0.3,0.5,0.6,1,1,1.4c0.3,0.5,0.6,1,1,1.4c0.3,0.5,0.6,1,1,1.4c0.3,0.5,0.6,1,1,1.4
			c0.3,0.5,0.6,1,1,1.4c0.3,0.5,0.6,1,1,1.4c1,1.9,2.9,3.1,5,3.1c0.4,0,0.9,0,1.3-0.1l23.5-5.5c1.6-0.4,2.9-1.4,3.7-2.8
			c0.8-1.4,0.9-3.1,0.4-4.6l-0.3-1c-0.8-2.5-1.6-4.8-2.1-7.2c2.8-1.8,5.8-3.6,8.9-5.2c0,0.1,0,0.1,0,0.2c-0.1,0.6-0.1,1.2,0,1.9
			c0,0.1,0,0.1,0,0.2c0.1,0.6,0.3,1.3,0.7,1.8c0.2,0.4,0.5,0.7,0.8,1c0,0,0,0.1,0.1,0.1c0,0.1,0.1,0.2,0.2,0.3
			c0.2,0.4,0.5,0.8,0.9,1.1c0,0.1,0.1,0.2,0.1,0.3c0.2,0.4,0.5,0.8,0.9,1.1c0,0.1,0.1,0.2,0.2,0.3c0.2,0.4,0.5,0.8,0.9,1.1
			c0,0.1,0.1,0.2,0.2,0.3c0.2,0.4,0.5,0.8,0.9,1.1c0,0.1,0.1,0.2,0.2,0.3c0.2,0.4,0.5,0.8,0.9,1.1c0,0.1,0.1,0.2,0.1,0.3
			c0.2,0.4,0.5,0.8,0.9,1.1c0,0.1,0.1,0.2,0.2,0.3c0.2,0.4,0.5,0.8,0.9,1.1c0,0.1,0.1,0.2,0.2,0.3c0.2,0.4,0.5,0.8,0.9,1.1
			c0,0.1,0.1,0.2,0.2,0.3c0.2,0.4,0.5,0.8,0.9,1.1c0,0.1,0.1,0.2,0.2,0.3c0.2,0.4,0.5,0.8,0.9,1.1c0,0.1,0.1,0.2,0.2,0.3
			c0.8,1.3,2.1,2.3,3.6,2.6l23.5,5.6c0.4,0.1,0.9,0.2,1.3,0.2c2.5,0,4.8-1.7,5.5-4.3c0-0.1,0.1-0.2,0.1-0.4c0.2,0.4,0.5,0.7,0.7,1
			c0.1,0.1,0.1,0.1,0.2,0.2c0.2,0.4,0.5,0.8,0.8,1.2c0.1,0.1,0.1,0.1,0.2,0.2c0.2,0.4,0.5,0.8,0.8,1.2c0.1,0.1,0.1,0.1,0.2,0.2
			c0.2,0.4,0.5,0.8,0.8,1.2c0.1,0.1,0.1,0.1,0.2,0.2c0.2,0.4,0.5,0.8,0.8,1.2c1.1,1.2,2.6,1.9,4.2,1.9c55.5,0,89.9-18.7,89.9-48.7
			c0-6.1-2-11.9-5.7-16.8c-0.3-0.5-0.7-0.9-1-1.4c-0.3-0.5-0.7-0.9-1-1.4c-0.3-0.5-0.7-0.9-1-1.4c-0.3-0.5-0.7-0.9-1-1.4
			c-0.3-0.5-0.7-0.9-1-1.4c-0.3-0.5-0.7-0.9-1-1.4c-0.3-0.5-0.7-0.9-1-1.4c-0.3-0.5-0.7-0.9-1-1.4c-0.3-0.4-0.5-0.8-0.8-1.1
			c1.9-3.2,3.2-7,3.7-11.2c1.6,2.7,3.3,5.3,5.3,7.6c0,0.1,0.1,0.1,0.1,0.2l0.2,0.3c0.2,0.3,0.5,0.7,0.7,1l0.2,0.3
			c0.2,0.4,0.5,0.7,0.8,1l0.2,0.3c0.3,0.4,0.5,0.7,0.8,1.1l0.2,0.3c0.3,0.4,0.5,0.7,0.8,1l0.3,0.4c0.2,0.3,0.5,0.7,0.7,1l0.2,0.3
			c0.3,0.4,0.5,0.7,0.8,1.1l0.2,0.3c0.2,0.4,0.5,0.7,0.8,1l0.2,0.3c0.3,0.4,0.5,0.7,0.8,1l0.2,0.3c0.3,0.4,0.5,0.7,0.8,1.1
			c1.6,2.2,3.4,4.3,5.3,6.1c0,3.2-0.1,6.1-0.1,9c0,0.4,0,0.8,0,1.3c0,1.1-0.1,2.3-0.1,3.4c0,0.5,0,1.1,0,1.6c0,1.1-0.1,2.1-0.1,3.1
			c0,0.6,0,1.1-0.1,1.7c0,1-0.1,1.9-0.1,2.9c0,0.6-0.1,1.2-0.1,1.9c0,0.9-0.1,1.8-0.1,2.7c0,0.8-0.1,1.6-0.1,2.4
			c0,0.7-0.1,1.4-0.1,2c-0.1,1.5-0.2,3-0.3,4.5v0l0,0c-0.1,1.5,0.4,3.1,1.4,4.2c0.1,0.1,0.1,0.1,0.2,0.2c0.2,0.4,0.5,0.8,0.8,1.2
			c0.1,0.1,0.1,0.1,0.2,0.2c0.2,0.4,0.5,0.8,0.8,1.2c0.1,0.1,0.1,0.1,0.2,0.2c0.2,0.4,0.5,0.8,0.8,1.2c0.1,0.1,0.1,0.1,0.2,0.2
			c0.2,0.4,0.5,0.8,0.8,1.2c0.1,0.1,0.1,0.1,0.2,0.2c0.2,0.4,0.5,0.8,0.8,1.2c0.1,0.1,0.1,0.1,0.2,0.2c0.2,0.4,0.5,0.8,0.8,1.2
			c0.1,0.1,0.1,0.1,0.2,0.2c0.2,0.4,0.5,0.8,0.8,1.2c0.1,0.1,0.1,0.1,0.2,0.2c0.2,0.4,0.5,0.8,0.8,1.2c0.1,0.1,0.1,0.1,0.2,0.2
			c0.2,0.4,0.5,0.8,0.8,1.2c0.1,0.1,0.1,0.1,0.2,0.2c0.2,0.4,0.5,0.8,0.8,1.2c0.1,0.1,0.1,0.1,0.2,0.2c0.2,0.4,0.5,0.8,0.8,1.2
			c1,1.2,2.5,1.8,4,1.9l24.1,0.8c0.1,0,0.1,0,0.2,0c1.5,0,2.9-0.6,4-1.6c1.1-1.1,1.7-2.5,1.7-4.1c0-2.1,0-4.2-0.1-6.3
			c0-2.1-0.1-4.2-0.1-6.3c0-10.8,0.3-21.2,0.8-32.4c16.4-6.4,25-18.1,27.6-37.4c0.8,1.1,1.5,2.1,2.3,3.2c0.1,0.1,0.1,0.2,0.2,0.3
			c0.3,0.4,0.7,1,1.1,1.5l0.1,0.2c0.3,0.4,0.5,0.8,0.8,1.1c0.3,0.4,0.6,0.9,1,1.4c0.4,0.5,0.7,0.9,1,1.4c0.3,0.4,0.7,0.9,1.1,1.5
			l0.1,0.2c0.3,0.4,0.5,0.8,0.8,1.1c0.3,0.4,0.6,0.9,1,1.4c0.4,0.5,0.7,0.9,1,1.4l0.2,0.2c0.2,0.3,0.4,0.6,0.6,0.9
			c5.7,8.1,13.1,14.5,19.6,19.7c1.3,1.1,2.5,2.1,3.7,3c-0.1,0.2-0.2,0.3-0.2,0.5c-0.2,0.5-0.4,0.9-0.7,1.2c-0.2,0.2-0.4,0.3-0.5,0.5
			c-0.3,0.3-0.7,0.5-1.1,0.7c-0.2,0.1-0.4,0.2-0.6,0.3c-0.7,0.2-1.5,0.3-2.4,0.3c-0.9,0-2.1-0.2-3.9-1.7c-1-0.9-2.3-1.3-3.7-1.3
			c-0.2,0-0.4,0-0.6,0c-1.5,0.1-2.9,0.9-3.9,2.1L871,471.9c-1,1.2-1.4,2.7-1.2,4.2c0.1,0.6,0.2,1.1,0.5,1.6c0,0.1,0.1,0.2,0.1,0.3
			c0.2,0.5,0.6,0.9,0.9,1.3c0,0,0,0.1,0.1,0.1c0.3,0.5,0.6,1,1,1.4c0.3,0.5,0.6,1,1,1.4c0.3,0.5,0.6,1,1,1.4c0.3,0.5,0.6,1,1,1.4
			c0.3,0.5,0.6,1,1,1.4c0.3,0.5,0.6,1,1,1.4c0.3,0.5,0.6,1,1,1.4c0.3,0.5,0.6,1,1,1.4c0.3,0.5,0.6,1,1,1.4c0.3,0.5,0.6,1,1,1.4
			c0.4,0.7,0.9,1.4,1.6,1.9c9.2,7.1,19.2,10.6,29.8,10.6c18,0,33.7-10.4,41.8-25.6c0.2,0.2,0.3,0.5,0.5,0.7c0.3,0.5,0.6,1,1,1.4
			c0.3,0.5,0.6,1,1,1.4c0.3,0.5,0.6,1,1,1.4c0.3,0.5,0.6,1,1,1.4c0.3,0.5,0.6,1,1,1.4c0.3,0.5,0.6,1,1,1.4c0.9,1.8,2.8,3.1,5,3.1
			h24.1c3.1,0,5.7-2.5,5.7-5.7c0-7.6-0.1-14.7-0.4-21.5c12.4-3.2,22.4-7.9,29.7-14.1c1.5,8.5,3.7,16.9,6.4,24.7
			c0.2,0.5,0.5,1,0.8,1.4c0.1,0.1,0.2,0.2,0.3,0.3c0.1,0.1,0.2,0.3,0.3,0.4c0.3,0.5,0.6,1,1,1.4c0.3,0.5,0.6,1,1,1.4
			c0.3,0.5,0.6,1,1,1.4c0.3,0.5,0.6,1,1,1.4c0.3,0.5,0.6,1,1,1.4c0.3,0.5,0.6,1,1,1.4c0.3,0.5,0.6,1,1,1.4c0.3,0.5,0.6,1,1,1.4
			c0.3,0.5,0.6,1,1,1.4c0.3,0.5,0.6,1,1,1.4c1,1.9,2.9,3.1,5,3.1c0.4,0,0.9,0,1.3-0.2l23.5-5.5c1.6-0.4,2.9-1.4,3.7-2.8
			c0.8-1.4,0.9-3.1,0.4-4.6l-0.3-1c-0.8-2.5-1.6-4.7-2.1-7.1c2.8-1.8,5.8-3.6,8.9-5.2c0,0.1,0,0.1,0,0.2c-0.1,0.6-0.1,1.2,0,1.8
			c0,0.1,0,0.1,0,0.2c0.1,0.6,0.3,1.3,0.7,1.8c0,0,0,0,0,0c0,0,0,0,0,0c0.2,0.4,0.5,0.7,0.7,1c0,0,0,0.1,0.1,0.1
			c0.1,0.1,0.1,0.2,0.2,0.3c0.2,0.4,0.5,0.8,0.9,1.1c0,0.1,0.1,0.2,0.1,0.3c0.2,0.4,0.5,0.8,0.8,1.1c0.1,0.1,0.1,0.2,0.2,0.3
			c0.2,0.4,0.5,0.8,0.9,1.1c0,0.1,0.1,0.2,0.1,0.3c0.2,0.4,0.5,0.8,0.8,1.1c0.1,0.1,0.1,0.2,0.2,0.3c0.2,0.4,0.5,0.8,0.9,1.1
			c0,0.1,0.1,0.2,0.1,0.3c0.2,0.4,0.5,0.8,0.8,1.1c0.1,0.1,0.1,0.2,0.2,0.3c0.2,0.4,0.5,0.8,0.9,1.1c0,0.1,0.1,0.2,0.1,0.3
			c0.2,0.4,0.5,0.8,0.8,1.1c0,0.1,0.1,0.2,0.2,0.3c0.2,0.4,0.5,0.8,0.9,1.1c0,0.1,0.1,0.2,0.1,0.3c0.2,0.4,0.5,0.8,0.8,1.1
			c0.1,0.1,0.1,0.2,0.2,0.3c0.8,1.3,2.1,2.3,3.6,2.6l23.5,5.6c0.4,0.1,0.9,0.2,1.3,0.2c2.5,0,4.8-1.7,5.5-4.3
			c9.1-35.1,9.1-46.4,9.1-54.6C1138.2,420.2,1133,404.4,1123.6,392.6z"/>
		<g>
			<g>
				<path fill="#FFFFFF" d="M683.9,421.9c0-32-20-57.9-47.3-57.9c-27.6,0-45.9,25-45.9,57.9c0,18.3,3.5,36.7,8.8,51.8l23.5-5.5
					c-1.4-4.1-2.7-7.9-3.2-12.6c11.7-8.5,27-14.7,38.6-16.7c-2.9,13.9-5.2,23.8-7,30.5l23.5,5.6
					C683.8,441.3,683.9,430.1,683.9,421.9z M615.1,431.2c-0.3-2.9-0.5-5.9-0.5-9.2c0-18.9,8.2-33.9,22-33.9
					c11.5,0,20.8,11.4,22.7,26.5C647.3,416.2,627.4,422.7,615.1,431.2z"/>
				<path fill="#FFFFFF" d="M749.7,411.8c9.2-2.6,13.5-10.8,13.5-20.5c0-17.4-13.2-26.8-41.8-26.8c-13.3,0-23.6,0.5-31.5,1.5
					c2.3,27.3,3.3,45,3.3,55.3c0,17.7-2,39.4-3.6,57.6c51.5,0,84.2-16.2,84.2-43C773.8,423.1,763.6,414.2,749.7,411.8z M722.7,388
					c9.2,0,13.8,2.7,13.8,8c0,6.7-9.7,13-19.4,14.2c-0.2-5.3-0.8-12.4-2-21.5C717.7,388.3,720.2,388,722.7,388z M716.5,453.6
					c0.8-9.7,1.2-17.9,1.2-25c3.5-0.6,7-0.8,11.1-0.8c13.2,0,19.8,2.7,19.8,8C748.6,443.6,731.8,452.4,716.5,453.6z"/>
				<path fill="#FFFFFF" d="M856.8,378.9c0-3.6-0.2-7.6-0.5-11.7h-23.9c0.5,1.7,0.6,6.2,0.6,13.5c0,10.9-2.7,23.2-17.3,23.2
					c-9.7,0-15.5-12.9-15.5-25.5c0-3,0.2-5.9,0.9-8.5l-23.3-5.5c-0.9,4.2-1.4,8.5-1.4,12.9c0,21.2,11.5,43.3,28.2,47.9
					c0.3,1.8,0.3,3.5,0.3,5.3c0,16.1-0.3,28.9-1.4,43.3l24.1,0.8c0-4.1-0.2-8.3-0.2-12.6c0-11.5,0.3-23.2,1.1-36.5
					C847.3,419.5,856.8,407.4,856.8,378.9z"/>
				<path fill="#FFFFFF" d="M586.7,426.7c0-15.9-12.7-27.1-30.1-30.1c11.6-3.2,16.9-13.4,16.9-25.6c0-21.8-16.5-33.5-52.3-33.5
					c-16.7,0-29.6,0.6-39.4,1.9c2.8,34.1,4.2,56.3,4.2,69.1c0,22.2-2.5,49.3-4.5,72C545.8,480.5,586.7,460.3,586.7,426.7z
					 M522.9,366.9c11.6,0,17.2,3.4,17.2,10c0,8.3-12.1,16.3-24.2,17.8c-0.2-6.6-0.9-15.5-2.5-26.9
					C516.7,367.3,519.7,366.9,522.9,366.9z M515.1,448.9c0.9-12.1,1.5-22.4,1.5-31.3c4.4-0.8,8.7-0.9,13.8-0.9
					c16.5,0,24.8,3.4,24.8,10C555.3,436.4,534.3,447.4,515.1,448.9z"/>
			</g>
			<g>
				<path fill="#FFFFFF" d="M1023.6,403.9c0-29.5-15.2-41.1-74.8-41.1c4.8,29.8,6.4,70.8,6.4,108.5h24.1c0-8-0.2-16.8-0.6-25.9
					C1008.9,438.9,1023.6,424.1,1023.6,403.9z M977.5,421.2c-0.5-9.8-1.1-22-2.7-34.2c14.1,0,24.8,5.5,24.8,13.3
					C999.7,410.7,992.2,417.7,977.5,421.2z"/>
				<path fill="#FFFFFF" d="M1121.5,421.9c0-32-20-57.9-47.3-57.9c-27.6,0-45.9,25-45.9,57.9c0,18.3,3.5,36.7,8.8,51.8l23.5-5.5
					c-1.4-4.1-2.7-7.9-3.2-12.6c11.7-8.5,27-14.7,38.6-16.7c-2.9,13.9-5.1,23.8-7,30.5l23.5,5.6
					C1121.3,441.3,1121.5,430.1,1121.5,421.9z M1052.7,431.2c-0.3-2.9-0.5-5.9-0.5-9.2c0-18.9,8.2-33.9,22-33.9
					c11.5,0,20.8,11.4,22.7,26.5C1084.8,416.2,1065,422.7,1052.7,431.2z"/>
				<path fill="#FFFFFF" d="M927.4,409.9c-14.2-12.7-29.2-18.9-29.2-35.6c0-6.6,2.7-9.9,7.8-9.9c2.7,0,4.9,1.1,6.6,3.2l18.4-23.9
					c-5.1-5.9-15.3-8.3-24.4-8.3c-24.2,0-38.3,16.3-38.3,38.8c0,23.3,12.7,36.6,28,48.9c13.1,10.6,17.2,15.2,17.2,19.9
					c0,7.8-4.9,11.9-11.7,11.9c-2.7,0-5.1-0.9-7.6-3l-18.8,23.5c8.1,6.3,17.1,9.5,26.3,9.5c23.5,0,41.9-19.7,41.9-43.4
					C943.6,431.5,940,421.2,927.4,409.9z"/>
			</g>
			<g>
				<path fill="#FFFFFF" d="M388.1,394.5c0-36.2-16.1-59.3-42.6-59.3c-11.9,0-25.2,8-30.3,21.6c-5.5-13.6-18-21.6-30.1-21.6
					c-27.1,0-43,23.1-43,59.3c0,38.8,2.5,50.6,15.2,82.6l29.7-5.5c-9.8-22.7-15-47.5-15-77.1c0-19.5,4.4-29.2,13.1-29.2
					c10.8,0,17.6,20.8,17.6,58.7c0,18.9-0.9,31.8-3.2,39.4h31.6c-2.5-8.5-3.8-22-3.8-40c0-36.6,6.3-58.2,18.2-58.2
					c8.5,0,12.7,9.7,12.7,29.2c0,29.5-5.1,54.4-14.8,77.1l29.6,5.5C382,455,388.1,429.6,388.1,394.5z"/>
				<path fill="#FFFFFF" d="M473.4,378.9c0-3.6-0.2-7.6-0.5-11.7H449c0.5,1.7,0.6,6.2,0.6,13.5c0,10.9-2.7,23.2-17.3,23.2
					c-9.7,0-15.5-12.9-15.5-25.5c0-3,0.2-5.9,0.9-8.5l-23.3-5.5c-0.9,4.2-1.4,8.5-1.4,12.9c0,21.2,11.5,43.3,28.2,47.9
					c0.3,1.8,0.3,3.5,0.3,5.3c0,16.1-0.3,28.9-1.4,43.3l24.1,0.8c0-4.1-0.2-8.3-0.2-12.6c0-11.5,0.3-23.2,1.1-36.5
					C463.9,419.5,473.4,407.4,473.4,378.9z"/>
			</g>
		</g>
		<path fill="#6ECDE8" d="M718,245.9c0,1,0,1.9,0.1,2.8c-1.8-1.4-3.8-2.7-5.4-4.2c-4.4-4.2-8-10.3-11.2-15.4
			c-6.9-10.9-11.7-24.3-15.3-36.6c-1-3.6-2-7.5-2.9-11.4c11.9,18.1,32.4,28.4,49.8,41.2c0.2,0.1,0.3,0.2,0.5,0.3
			c2.9,2.1,5.7,4.3,8.2,7c2.6,2.8,4.7,6.8,0.4,9.7c-2.7,1.8-6.8,0.8-9.6,0.3c-0.3-0.1-0.5,0-0.8,0c-2.2-0.5-3.9-2.2-6.2-2.5
			c-2.2-0.3-4.7,0.2-6,2.2C718.2,241.3,718,243.4,718,245.9z"/>
		<path opacity="0.3" fill="#231F20" d="M704.5,211c14.2,7.1,27.3,15.3,40.2,23.7c-0.2-1.9-1.4-3.7-2.8-5.3c-2.5-2.7-5.3-4.8-8.2-7
			c-0.2-0.1-0.3-0.1-0.5-0.3c-17.5-12.8-38-23.1-49.8-41.2c0.9,3.9,1.9,7.8,2.9,11.4c3.6,12.3,8.4,25.7,15.3,36.6
			c3.3,5.1,6.9,11.2,11.2,15.4c1.6,1.6,3.6,2.8,5.4,4.2c0-0.9,0-1.8-0.1-2.8c-0.1-2.3,0.2-4.2,1.3-6.2
			C711.9,231,702.9,223.7,704.5,211z"/>
		<path fill="#6ECDE8" d="M602.1,107c24.3-7.7,44,7.1,56.5,26.4c-0.1,0.4,0,0.8,0.4,1.2c0.4,0.4,0.7,0.7,1.1,1.1
			c0.2,0.4,0.4,0.7,0.6,1.1c0.3,0.5,0.6,0.7,1,0.8c7.2,8.4,11.5,18.8,14.6,29.8c3.4,11.6,5.6,23.7,9.1,34.4
			c3.5,10.7,8.7,22.1,14.8,31.6c2.5,3.9,5.3,7.8,8.3,11.3c2.4,2.9,6,4.8,8.7,7.4c2.3,2.6,4.4,5.2,6.5,7.9c1.4,1.7,2.6,3.3,3.7,5.2
			c2.4,4.4,2.4,13.6-5,14.3c-0.2,0-0.3,0.1-0.5,0.1c-7.6-0.7-12-8.6-18-12.7c-7.3-4.9-15.3-8.2-22.9-12.6
			c-18.3-10.4-32.2-24.4-45.8-40.1c-0.1-0.1-0.2-0.2-0.4-0.3c0,0,0,0,0,0c-8.7-10.8-15.8-25-30.8-26.2c0,0,0,0,0,0
			c-0.1-0.1-0.2-0.1-0.3-0.2c-0.1-20.9-14.7-46-36.4-49c3.8-3,6.5-7.7,9.1-11.6C583.4,116.4,589.9,110.9,602.1,107z"/>
		<path fill="#6ECDE8" d="M564.3,141.1c21.7,2.5,36.5,26.1,36.3,47.3c-4.3,3.5-7.9,7.7-11.1,12.1c-1.9-10.1-6.8-19.4-13.5-27.3
			c-8.5-10-17.5-16.5-29.6-19.6c1.4-0.8,2.7-1.6,4.1-2.5C555.2,148,559.7,144.5,564.3,141.1z"/>
		<path opacity="0.3" fill="#231F20" d="M623.4,116.7c52.8,24.5,47.2,84.9,73.6,130.2c6.4,12.8,18.1,21.3,31.5,27.8
			c1-3.1,0.4-7-1-9.4c-1-1.9-2.3-3.6-3.7-5.2c-2.2-2.7-4.3-5.3-6.5-7.9c-2.7-2.6-6.3-4.5-8.7-7.4c-2.9-3.5-5.8-7.4-8.3-11.3
			c-6.1-9.5-11.2-20.9-14.8-31.6c-3.5-10.7-5.8-22.9-9.1-34.4c-3.2-10.9-7.4-21.4-14.6-29.8c-0.4-0.1-0.8-0.3-1-0.8
			c-0.2-0.4-0.4-0.7-0.6-1.1c-0.3-0.4-0.7-0.8-1.1-1.1c-0.4-0.4-0.5-0.8-0.4-1.2c-12.4-19.3-32.2-34.1-56.5-26.4
			c-12.2,3.9-18.7,9.4-25.6,19.9c-2.6,3.9-5.2,8.7-9.1,11.6c2.1,0.3,4.2,0.8,6.2,1.5C590.7,132.5,602,107.8,623.4,116.7z"/>
		<path fill="#FAD5C6" d="M573.6,228.2c4.3-8,8.3-16.2,13.2-23.8c-1.6-11-6.8-23.2-14.9-30.9c-4.4-4.1-8.9-9-13.9-12.2
			c-4.9-3.1-9.7-4.1-15.1-5.6c-4.2,2.5-8.4,5-12.1,8c-0.1,0.1-0.2,0.1-0.3,0.2c0.1,0.7,0.1,1.4,0.2,2.1c0.9,11.6,4.2,20.6,7.6,31.5
			c3.3,10.6,6.4,21.5,11.2,31.6C557.5,228,565.6,227.5,573.6,228.2z"/>
		<path fill="#FAD5C6" d="M526.7,165.9c-0.5-5.9-1.4-12.1-1.6-18.3c-0.3,0.6-0.7,1.1-1.1,1.7c-3.7,4.9-8,9.2-12.6,13.3
			c-16.2,14.2-37.4,26.2-59.3,21.2c0.9,1.9,1.7,3.9,2.5,5.8c4.5,10.5,7.4,21.5,9.6,32.7c0.7,3.4,1.5,7.4,2.2,11.4c0.1,0,0.2,0,0.4,0
			c5.7,0,13.2,0,20.8,0c19.5,2.9,38.9-1.7,58.4-4.2c-4.3-10-7.2-20.6-11.1-31C530.6,187.3,527.7,177.6,526.7,165.9z"/>
		<path fill="#6ECDE8" d="M468.2,154.7c-8,3-16.2,4.5-24.6,2.2c-10-2.8-14.9-13.4-17.7-22.9c-1.6-13.9,9.4-28.7,17.4-39
			c8-10.3,18-18.3,28.4-26.2c6-4.6,14.7-9.7,19.4-15.8c5.8-7.8,10.9-18.3,11.7-28.1c0-0.1,0-0.2,0-0.3c0-0.1,0-0.2,0-0.3
			c0-0.5-0.2-0.9-0.5-1.2c2-9.8,6.6-17,17.3-19.6c13.5-3.3,10.2,11.7,12.2,20.4c-0.6,0.5-1,1.3-0.5,2.1c3.8,5.3,10.8,3.9,16.2,1.7
			c10-4.2,17.4-20,30.4-13.9c0.5,0.2,0.9,0.2,1.2,0c9.1,3.1,4.4,17.2,1.6,23.2c-1.9,4-3.6,6.2-3.3,9.3c-0.5,0.4-0.8,0.9-0.6,1.6
			c2.6,7.7,12.3,5.8,18.8,5.3c5.5-0.3,12.9,4.4,9,10.8c-1.7,2.8-4.3,5.2-6.4,7.7c-4.6,5.6-9.6,9.3-16.1,11.9c-0.4-0.2-1-0.3-1.5-0.1
			c-8.7,4-17,8.4-25,13.1c-16.9,9.9-32.7,21.3-48.3,33.9C495.4,140.3,482.8,149.2,468.2,154.7z"/>
		<path fill="#6ECDE8" d="M426.3,144c3.7,7.9,9.8,14.3,19.2,16.8c14.1,3.8,30.9-5.2,42.5-12.1c15.2-9.1,28.2-21.5,42.2-32.2
			c4.2-3.2,8.5-6.2,12.9-9c-2.1,2.1-4.1,4.4-6,6.6c-3.2,3.8-6,7.9-8.4,12.3c-1.6,3-2.5,6.2-3.4,9.4c-0.8,3.2-1.6,6.5-3,9.5
			c-5.5,11.9-22,23.3-33.1,29.1c-12.2,6.4-25.5,9.5-38.9,5.6v0c-2.5-5.2-5.3-10.3-9.1-14.8c-3.5-4.2-7.9-7.6-11.1-12.2
			C428.5,150.4,427.2,147.3,426.3,144z"/>
		<path fill="#F7B898" d="M163,365.7c0,15.1,0,32.1,0,47.2c-7.5-1.9-11.3,1.9-15.1,5.7c-5.7,11.3-3.8,24.5,3.8,34
			c22.1,22.1,44.2,13,61.1-4.8c-4.1,0.6-8.4,1.2-12.2,2.5c-3.4,1.2-8.2,4.5-12.9,6.5c0.8,0.1,1.5,0.3,2.3,0.6c1.2,0.4,0.7,2.2-0.5,2
			c-7.2-1.2-13.9,0.5-20.2-3c-0.6-0.3-1.2-0.7-1.8-1.2c-5.2-3.9-8.1-8.7-10.6-14.5c-0.2-0.1-0.4-0.2-0.5-0.4
			c-1.1-1.8-1.7-3.8-2.3-5.8c-0.5-1.8-1.7-4.1-1.5-5.9c0.2-2,1.6-5.1,4.1-5c2.9,0.1,4.3,2.3,5.9,4.5c2.1,3,4.4,5.6,6.7,8.4v-48.5
			v-45.9c-13.7-4-28-6.8-41.8-6.6c-2.2,4.4-4.3,8.9-6.2,13.4c-1.2,2.7-2.5,5.4-3.8,8C130.5,366.3,148.2,373.9,163,365.7z"/>
		<path fill="#FAD5C6" d="M223.1,485c5.7-2.1,11.4-2.5,17.4-1.5c3.5,0.5,7,0.8,10.6,1.3c2.9,0.3,16,2.8,13.9-4.2
			c-2.8-4.4-15-6.5-18.6-7.2c-6-1-12.2-1.4-18.3-2c-10.5-1-13.6-7.6-21.6-13.4c-1-0.7-0.1-2.3,1-1.7c1.4,0.8,2.7,1.9,4,3
			c4.4,0.8,9.5-0.4,13.8-1.9c5.4-1.9,14.4-8.4,7-13.8c0,0-0.1,0-0.1,0c-1.8-0.6-4.3,0-7,0.9c-2.6,0.8-5.2,1.9-7.3,2.5
			c-0.5,0.1-1,0.3-1.4,0.3c-1.1,0.2-2.3,0.3-3.5,0.5c-16.9,17.9-39,26.9-61.1,4.8c-7.5-9.4-9.4-22.6-3.8-34
			c3.8-3.8,7.5-7.5,15.1-5.7c0-15.1,0-32.1,0-47.2c-14.8,8.2-32.6,0.6-45.6-9c-4,8.2-8.2,16.1-11.1,25.1c-5,15.6-9.5,30.8-6.1,47.3
			c2.8,13.4,8.3,26.2,18.3,35.9c10.5,10.2,23.9,14.2,35.5,22.7c5.3,3.9,10.1,8.4,15.1,12.3c5.3,4.2,11,7.7,17.9,9.4
			c0.7,0.1,1,0.6,1.1,1.1c4.5,1,7.2,4.3,10.6,7.8c3.1,3.1,14.5,19.2,20.2,16c2.2-4.7-7.5-11.9-9.6-15.8c-1.9-3.5-4.6-7.6-4.4-11.7
			c0.1-1.1,1.5-1,1.6,0c0,0.2,0.1,0.4,0.1,0.6c4,1.3,8.2,2.3,11.6,4.9c3.5,2.7,14.2,11.7,21.2,11.7c1.4,0,2.7-0.4,3.8-1.3
			c2.6-3.6-6.4-8.3-8.1-9.5c-2.1-1.4-4.3-2.8-6.2-4.5c-3.5-3.2-8.2-5.4-11-9.3c-0.3-0.4,0-0.8,0.3-1.1c0.1-0.4,0.5-0.8,1.1-0.7
			c6.3,1.1,12.2,2.5,18.6,3.2c3,0.4,22.6,5.1,21.2-3.2c-5.3-2.8-10.6-5.1-16.5-6.2c-6.2-1.2-11.7-4.4-18.1-5.1
			c-0.1,0-0.2,0.1-0.4,0.1c-0.1,0.1-0.3,0.1-0.5,0.1c0,0-0.1,0-0.1,0C222.2,487,222.1,485.4,223.1,485z"/>
		<path fill="#F7B898" d="M289.4,222.6c-11.4,2.5-22.3-0.7-33.5-1.3c-7.8-0.4-15.7,0.2-23.4,2.2c-16,4.4-30.4,13.2-42.7,24.2
			c-23.3,20.8-41.2,47.3-55.8,74.7c-2.2,4.2-4.4,8.5-6.5,12.8c13.8-0.2,28,2.6,41.8,6.6v-46l51.7-50.5H267c0.4-5.3,1.6-9.9,5.5-9.9
			c19.7-2.5,40.3-10.6,51.6-25.4C312.5,214.2,301.3,220,289.4,222.6z"/>
		<path fill="#F7B898" d="M393.2,252.5c-19.3-20.6-42.1-14-64.9-7.1h36.6c-0.4-0.4-0.8-0.8-1.1-1.2c-1.3-1.5,0.8-3.7,2.2-2.2
			c1.3,1.3,2.7,2.4,4.2,3.5c4.1,2.9,8.9,5.3,12.4,8.9c5.4,5.6,10.1,11.1,13.8,18c3,5.6,1.2,13.1-0.7,18.7
			c-2.3,6.8-4.5,12.3-5.1,19.1C403.2,292.6,411.8,272.6,393.2,252.5z"/>
		<path fill="#FAD5C6" d="M474.8,311c-0.5-0.4-0.8-0.9-1.2-1.3c-0.5-0.4-0.9-0.7-1.3-1.1c-1.5-1.5-3.1-3.1-4.9-4.4
			c-3.5-2.8-6.9-5.8-10.5-8.5c-3.9-2.9-7-7.2-8.4-11.9c-0.4-0.1-0.6-0.5-0.7-1c-1.5-9.7-10.3-15-16.3-21.9c-3.9-4.5-7-9.7-10.6-14.4
			c-0.3-0.3-0.5-0.7-0.8-1c-10.9-14.1-21.1-26.2-37.5-34.2c-4.2-2-8.9-5.7-13.5-6.5c-5-0.8-10.8-1.3-15.9-1.4
			c-8.4-0.1-17.2,2.9-25.1,5.4c-1.4,0.4-2.7,0.9-4.1,1.4c-11.3,14.8-31.9,22.9-51.6,25.4c-3.9,0-5.1,4.6-5.5,9.9h61.4
			c22.7-6.9,45.6-13.5,64.9,7.1c18.6,20.1,10,40.1-2.6,57.7c-0.1,1.1-0.2,2.3-0.2,3.5c0,0,0,0.1,0,0.1c0,3.5,0.1,7.1-0.4,10.6
			c-0.4,2.8-4.5,13.2,1.6,12.5c6-0.7,6.9-6.1,7.4-11.1c0.4-3.6,1-7.1,1.8-10.7c-1.7-2-3.1-4.1-3.3-6.8c-0.1-1.6,2.4-1.9,2.7-0.4
			c1.1,4.6,5.6,6.8,8.2,10.2c2.1,2.7,3.5,6.1,5.1,9c2.8,4.8,2.6,11.1,4,16.4c1.6,6.2,3.6,12.1,6.8,17.6c0,0.1,0,0.1,0.1,0.2
			c7.2,6.9,4.8-6.8,3.5-10.6c-1-2.9-2.1-5.9-2.5-8.9c-0.7-6.4-0.8-12.3,1.4-18.3c0.6-1.7,3.2-1,2.7,0.7c-0.3,0.8-0.5,1.7-0.7,2.6
			c5.2,4.9,10.8,30.5,15.7,28.9c5.7-13.6-7.5-25.3-4.2-38.9c0.4-1.5,2.8-1.2,2.7,0.4c-0.1,0.5-0.1,1-0.1,1.5
			c0.1,0.1,0.2,0.1,0.2,0.2c4.3,2.8,6.9,6.6,10.6,10.2c2.6,2.5,7.6,11.2,11.9,11.2c0.1,0,0.1-0.1,0.2-0.1c4.5-1.5-3.6-9.6-4.5-11.2
			c-1.6-2.8-3.1-5.6-4.8-8.3c-3.2-5.1-6.3-10.1-8.7-15.6c-0.8-1.7,1.7-3.3,2.6-1.5c0.4,0.8,0.8,1.6,1.2,2.4c4.2,0.2,7,2,10.6,4.8
			c2.5,2,6.1,4.8,9.2,5.6C475.6,317.6,477.8,314,474.8,311z"/>
		<path fill="#41130C" d="M154,487.7c5.3,3.9,10.1,8.4,15.1,12.3c5.3,4.2,11,7.7,17.9,9.4c0.7,0.1,1,0.6,1.1,1.1
			c4.5,1,7.2,4.3,10.6,7.8c3.1,3.1,14.5,19.2,20.2,16c2.2-4.7-7.5-11.9-9.6-15.8c-1.9-3.5-4.6-7.6-4.4-11.7c0.1-1.1,1.5-1,1.6,0
			c0,0.2,0.1,0.4,0.1,0.6c4,1.3,8.2,2.3,11.6,4.9c3.5,2.7,14.2,11.7,21.2,11.7c1.4,0,2.7-0.4,3.8-1.3c2.6-3.6-6.4-8.3-8.1-9.5
			c-2.1-1.4-4.3-2.8-6.2-4.5c-3.5-3.2-8.2-5.4-11-9.3c-0.3-0.4,0-0.8,0.3-1.1c0.1-0.4,0.5-0.8,1.1-0.7c6.3,1.1,12.2,2.5,18.6,3.2
			c3,0.4,22.6,5.1,21.2-3.2c-5.3-2.8-10.6-5.1-16.5-6.2c-6.2-1.2-11.7-4.4-18.1-5.1c-0.1,0-0.2,0.1-0.4,0.1
			c-0.1,0.1-0.3,0.1-0.5,0.1c0,0-0.1,0-0.1,0c-1.2,0-1.3-1.6-0.3-1.9c5.7-2.1,11.4-2.5,17.4-1.5c3.5,0.5,7,0.8,10.6,1.3
			c2.9,0.3,16,2.8,13.9-4.2c-2.8-4.4-15-6.5-18.6-7.2c-6-1-12.2-1.4-18.3-2c-10.5-1-13.6-7.6-21.6-13.4c-1-0.7-0.1-2.3,1-1.7
			c1.4,0.8,2.7,1.9,4,3c4.4,0.8,9.5-0.4,13.8-1.9c5.4-1.9,14.4-8.4,7-13.8c0,0-0.1,0-0.1,0c-1.8-0.6-4.3,0-7,0.9l-0.2-0.8
			c0.5-0.1,1.1-0.3,1.6-0.5c1.6-0.5,3.4-1.4,5.2-1.3c0.2-0.2,0.6-0.3,0.9-0.1c5,3,5.2,9.5,0.6,13.2c-3.1,2.6-6.4,4.1-10.3,4.9
			c-3.2,0.7-6,1.7-9.1,1.4c3.6,3.3,7.1,6.7,12,7.5c7.1,1.1,14.4,1.1,21.4,2.5c3.6,0.7,23.2,4.1,20.5,11.1c0,0.1-0.1,0.1-0.1,0.2
			c0,4-4.2,5.7-9,5.4c-9.8-0.7-19.3-3.7-28.9-2.3c5.2,1.1,10.1,3,15.2,4.9c4.3,1.5,11.4,1.9,14.5,5.9c0.2,0,0.4,0,0.5,0.2
			c2.5,4.2-2.2,9.2-6.7,8.8c-10.9-0.8-21.5-2.8-32.1-5.2c6.5,4.9,12.8,10.2,19.9,14.2c3.1,1.8,7.1,7,3.8,9.8
			c-2.5,5.2-10.6,0.8-14-0.9c-4.6-2.4-7.9-4.8-11.9-8c-3.6-2.9-7.7-3.9-11.6-5.9c1.2,4.4,4,9.5,6.8,12.5c1.8,2,4.2,3.6,5.7,5.9
			c1.4,2.1,3,5.5,0.9,7.1c0.1,0.3,0,0.6-0.2,0.9c-3.7,4.6-11.5-3.3-14.1-5.9c-6.4-6.4-11.5-12.5-18.8-17.6c-0.3,0.2-0.7,0.3-1.2,0.2
			c-6.6-1.5-11.9-4.5-17-8.2c-3.2-2.3-6.4-4.9-9.7-7.6c-9.9-8-21.3-12.1-31.7-19.1c-17.9-11.8-28.3-29.5-31.8-50.4
			c-1.9-11.3-0.6-22.5,2.7-33.4c3.1-10.2,5.9-21.1,10.6-30.7c3.1-6.1,6.6-11.3,9.4-17.6c10.1-22.8,22.4-44.9,37.2-65
			c17.5-23.9,39.8-48.2,68.6-58.1c7-2.5,14.4-4.2,21.9-4.6c9.1-0.5,17.7,2,26.8,2.1c26.8,0.2,49.9-16.1,76.3-20.1
			c11.7-1.7,22.1,2.1,32.2,7.1c10.8,5.3,19.8,10.6,27.7,20c4.2,5,8.3,10,12.3,15.2c0.8,1.1,1.7,2.2,2.5,3.4c3.1,4.5,6,9.4,9.8,13.1
			c6.8,6.6,15.5,13.5,17,23.4c0,0.3,0,0.6-0.1,0.9c2.9,7.3,8.8,12.9,15.2,17.6c3.6,2.7,6.7,5.6,9.9,8.7c1.1,1.1,2.1,2.2,2.4,3.5
			c0.3,0.8,0.5,1.5,0.3,2.3c-0.5,2.2-2.5,3.9-4.9,3.8c-8.1-0.5-13.6-8.1-21.1-10.5c4.2,8.3,9.3,16.5,14.9,23.8
			c2.6,3.4,5.2,8.8,0.2,10.5c-0.2,0.2-0.4,0.4-0.7,0.5c-4.1,1.5-7.8-2.7-10.1-5.6c-2.4-3.1-5.4-5.6-7.9-8.6c-2-2.3-3.7-4.3-5.9-6.1
			c1.7,11.2,9.9,23.5,3.8,33.8c0.1,0.4,0,0.9-0.3,1.2c-6.9,7.5-14.6-17.6-18.6-26.5c-0.6,6.3,0.5,12.7,2.7,18.8
			c1.3,3.6,3.2,9,1.8,12.9c-2.3,6-6.6,4.4-10.1,0.3c-0.3-0.1-0.5-0.3-0.7-0.6c-7-12.3-7.2-26.5-13.5-39c-1.1-2.2-2.9-4.1-4.8-5.9
			c-1.3,8.9-1.4,21.8-12.8,21.8c-4.3,0-5.6-4.1-5.2-7.7c0.3-3.1,1.8-6,2-9.1c0.2-2.8,0.4-5.6,0.6-8.4c0,0,0-0.1,0-0.1
			c-0.1-6.3,0.2-12.8,2.6-18.8c3.5-8.5,5.3-18.5-0.1-26.9c-4.1-6.4-9.5-12-15.9-16.2c-3.2-2.2-6.9-4.2-9.7-7
			c-0.4-0.4-0.8-0.8-1.1-1.2c-1.3-1.5,0.8-3.7,2.2-2.2c1.3,1.3,2.7,2.4,4.2,3.5c4.1,2.9,8.9,5.3,12.4,8.9c5.4,5.6,10.1,11.1,13.8,18
			c3,5.6,1.2,13.1-0.7,18.7c-2.7,8-5.1,14.1-5.4,22.6c0,0,0,0.1,0,0.1c0,3.5,0.1,7.1-0.4,10.6c-0.4,2.8-4.5,13.2,1.6,12.5
			c6-0.7,6.9-6.1,7.4-11.1c0.4-3.6,1-7.1,1.8-10.7c-1.7-2-3.1-4.1-3.3-6.8c-0.1-1.6,2.4-1.9,2.7-0.4c1.1,4.6,5.6,6.8,8.2,10.2
			c2.1,2.7,3.5,6.1,5.1,9c2.8,4.8,2.6,11.1,4,16.4c1.6,6.2,3.6,12.1,6.8,17.6c0,0.1,0,0.1,0.1,0.2c7.2,6.9,4.8-6.8,3.5-10.6
			c-1-2.9-2.1-5.9-2.5-8.9c-0.7-6.4-0.8-12.3,1.4-18.3c0.6-1.7,3.2-1,2.7,0.7c-0.3,0.8-0.5,1.7-0.7,2.6c5.2,4.9,10.8,30.5,15.7,28.9
			c5.7-13.6-7.5-25.3-4.2-38.9c0.4-1.5,2.8-1.2,2.7,0.4c-0.1,0.5-0.1,1-0.1,1.5c0.1,0.1,0.2,0.1,0.2,0.2c4.3,2.8,6.9,6.6,10.6,10.2
			c2.6,2.5,7.6,11.2,11.9,11.2c0.1,0,0.1-0.1,0.2-0.1c4.5-1.5-3.6-9.6-4.5-11.2c-1.6-2.8-3.1-5.6-4.8-8.3
			c-3.2-5.1-6.3-10.1-8.7-15.6c-0.8-1.7,1.7-3.3,2.6-1.5c0.4,0.8,0.8,1.6,1.2,2.4c4.2,0.2,7,2,10.6,4.8c2.5,2,6.1,4.8,9.2,5.6
			c4.3,1.1,6.5-2.4,3.4-5.5c-0.5-0.4-0.8-0.9-1.2-1.3c-0.5-0.4-0.9-0.7-1.3-1.1c-1.5-1.5-3.1-3.1-4.9-4.4c-3.5-2.8-6.9-5.8-10.5-8.5
			c-3.9-2.9-7-7.2-8.4-11.9c-0.4-0.1-0.6-0.5-0.7-1c-1.5-9.7-10.3-15-16.3-21.9c-3.9-4.5-7-9.7-10.6-14.4c-0.3-0.3-0.5-0.7-0.8-1
			c-10.9-14.1-21.1-26.2-37.5-34.2c-4.2-2-8.9-5.7-13.5-6.5c-5-0.8-10.8-1.3-15.9-1.4c-8.4-0.1-17.2,2.9-25.1,5.4
			c-13,4-25.5,11-38.8,13.9c-11.4,2.5-22.3-0.7-33.5-1.3c-7.8-0.4-15.7,0.2-23.4,2.2c-16,4.4-30.4,13.2-42.7,24.2
			c-23.3,20.8-41.2,47.3-55.8,74.7c-4.6,8.6-8.9,17.3-12.8,26.2c-4.9,11.2-11.1,21.3-14.9,33.2c-5,15.6-9.5,30.8-6.1,47.3
			c2.8,13.4,8.3,26.2,18.3,35.9C129,475.3,142.5,479.3,154,487.7z"/>
		<path fill="#FAD5C6" d="M244.2,216c-5.7-37.7-20.8-71.7-39.6-105.6C192,87.1,142,87.6,140.3,58.6c-11.5-2-20.2-1.8-23.1-1.6
			c0.4,3.5-3.8,10.4-24.2,22.6c-11,6.6-17.8,6.1-26.4,6.5c-5.6,0.3-9.6,6-15.1,8c-20,24.2-39,55.3-29.9,89.9
			c7.5,20.8,34,39.6,34,47.2c6.4,62.6,52.5,99.3,102.1,122.8c15.5-1.8,30.1-8.2,43.2-16.6c4.1-2.6,8.1-5.4,12.1-8.4
			c3.5-5.3,7.1-10.8,10.5-16.7C238.5,284,247.9,250,244.2,216z"/>
		<path fill="#F7B898" d="M238.3,158.5c-2.9-1.7-5.3-4.4-6.6-8.1c-0.5-1.4,1.5-1.9,2.2-0.9c1.7,2.4,3.6,4.5,5.8,6.5
			c6.2,3.7,11.3,2,15.4-5.2c0.9-4.9,0.1-10.2-1.2-14.9c-2.2-8.1-6.8-14-11-20.9c-0.2-0.1-0.4-0.2-0.6-0.5c-3.6-6-9.8-10.7-17.2-8.4
			c-3.7,1.1-6.4,3.2-6.9,6.5c1.2,3.5,2.3,7.1,3.4,10.7c0.3,0.2,0.5,0.6,0.5,1.1v0.6c0,1.8-2.6,2.1-3.1,0.4c-0.6-1.9-1.2-3.9-1.8-5.9
			c-0.1-0.2-0.3-1-0.7-2c-20.2-41.5-53.6-54.8-76.3-58.8c1.7,29,51.7,28.5,64.2,51.8c18.9,34,34,67.9,39.6,105.6
			c3.8,34-5.7,67.9-20.8,96.2c-3.4,5.8-7.1,11.3-10.5,16.7c23.2-17.6,43.3-41.8,47.3-71.2C264.8,223.2,250.6,190.1,238.3,158.5z"/>
		<path fill="#F9E7E6" d="M55.5,231.1c0-7.5-26.4-26.4-34-47.2c-9.1-34.6,9.9-65.7,29.9-89.9c-8.1,3-16.5,9.9-26.5,26.5
			c-21.9,36.1-1.7,85-0.1,88.8c5.8,8.1,11.9,14.4,14.3,17.1c6.2,6.9,16.1,14.3,16,24.5c0,0.5-0.3,0.8-0.7,0.8
			c4.4,15.1,7.1,30.2,15.1,44.3c8.2,14.7,19.2,28.2,32.4,38.8c14.4,11.5,32.7,20.6,51.7,19.4c1.3-0.1,2.7-0.2,4-0.4
			C108,330.4,61.9,293.8,55.5,231.1z"/>
		<path fill="#41130C" d="M224.8,443.6c-4.4,1.3-9,2.3-13.6,3c-5.9,0.9-11.3,1.3-16.8,3.7c-3.9,1.6-9.2,5.6-13.7,5.9
			c-3,0-6.1-0.2-9.1-1.5c-0.9-0.4-1.7-0.8-2.4-1.4c-4.9-3.3-7.8-9.3-10.8-14.2c-0.8-2.6-1.8-5.2-2.5-7.8c-0.1-0.4-0.2-0.8-0.3-1.2
			c-0.9-1.8,0.2-3,3.1-3.5c1.1,0.9,1.8,2.4,2.6,3.5c2.5,3.5,4.6,7.4,7.9,10.2v-4.1c-2.3-2.7-4.6-5.4-6.7-8.4c-1.5-2.2-3-4.4-5.9-4.5
			c-2.5-0.1-3.9,3-4.1,5c-0.2,1.9,1,4.2,1.5,5.9c0.6,2,1.2,4,2.3,5.8c0.1,0.2,0.3,0.3,0.5,0.4c2.4,5.7,5.4,10.5,10.6,14.5
			c0.6,0.5,1.2,0.8,1.8,1.2c6.3,3.6,13.1,1.8,20.2,3c1.3,0.2,1.8-1.5,0.5-2c-0.8-0.3-1.5-0.5-2.3-0.6c4.7-2,9.5-5.3,12.9-6.5
			c4.9-1.7,10.6-2.2,15.7-3c2.2-0.3,5.5-1.8,8.7-2.8L224.8,443.6z"/>
		<path fill="#FFFFFF" d="M123.3,236.5c0,15.4-12.1,23.8-26.4,23c-9.5-4.4-15.8-15.8-18.6-25.2c-1.7-5.5-1.4-11.8-0.9-17.5
			c0.7-7.3,4.1-10.8,8.4-15.3c1.5-0.5,3.2-0.8,5-1c5.8-0.6,11.8,3.5,16.7,6.2C118.8,212.9,123.3,224,123.3,236.5z"/>
		<path fill="#FFFFFF" d="M204.4,166.6c4.8,8.1,5.5,21.8,3,30.8c-3,2.7-5.8,5.5-8.8,8.3c-8.1,7.5-17.1,5.2-25.3-1.2
			c-9-7-13.3-19.4-13.4-30.5c-0.1-10.8,6-18.8,14.4-23.4C186.5,151,197.9,155.7,204.4,166.6z"/>
		<path fill="#F49497" d="M184.4,326.1c0.1-4.3,0.2-8.3,2.5-12.2c2.4-4.1,6.8-6,11.2-6.4c-0.2,1.1-0.2,2.2,0,3.4
			c0.2,0.9,1.7,0.9,1.8,0c0.8-4.1,1.9-7.1,5.1-10c2.9-2.6,7.5-4.5,11.5-3.9c-3.7,11.6-13.2,21.1-23.8,26.7
			C189.9,325,187.1,325.9,184.4,326.1z"/>
		<path fill="#451512" d="M181.9,288.4c-8.1,11.3-6.5,23.9-4.7,36.8c1.7,0.6,3.4,0.9,5.2,0.9c-0.5-10.8,4.7-20,16.3-20.8
			c1.1-2.8,3.3-5.4,5.7-7.1c3.3-2.4,8.6-4.8,12.8-3.5c0.7-2.8,1.1-5.8,1-8.8c0-1.4-0.1-2.7-0.2-4.1
			C206,277.7,191.4,280.1,181.9,288.4z"/>
		<path fill="#710F11" d="M174,278.4c-12.6,7.3-27.5,12.8-42.1,15.2c2.5,2.7,5.1,4.5,9,5.6c5.6,1.6,10.6,3.1,15.5,6.4
			c5,3.5,7.5,9.1,11.6,13.4c2.7,2.9,5.8,5,9.2,6.1c-1.8-12.9-3.4-25.5,4.7-36.8c9.5-8.3,24.1-10.6,36.1-6.6
			c-0.9-12.7-4.5-24.6-8.2-36.6C201.8,259.2,188.2,270.2,174,278.4z"/>
		<path fill="#41130C" d="M241.5,128.2c-2.6-4.4-8-12.1-13.9-8.4c-1.3,0.8-2.6-1-1.6-2.1c8.1-8.8,17.1,7.4,20.7,13.1
			c2.2,3.4,5,9.4,2.6,13.4c-1.7,2.9-4.4,3.6-7.2,2.2c-0.7-0.4-0.6-1.7,0.2-1.8c3.1-0.5,4.2-2.1,4.3-4c-0.1-1.1-0.3-2.1-0.8-3.3
			c-0.6-1.4-1.3-2.8-2.3-4.1c-3-3.9-7.5-4.7-11.8-2.3c-1.1,0.6-2.1-1-1-1.7C234,126.9,238.1,126.6,241.5,128.2z"/>
		<g>
			<path fill="#F6921E" d="M151.8,132.1c8.2-5.4,20.4-7.4,30.2-4.3c-4.9,0.4-10.2,2.7-14.1,4.3c-4,1.7-9.2,4.2-11.8,7.9
				C157.3,138.4,153.8,134.2,151.8,132.1z"/>
			<path fill="#41130C" d="M151.8,132.1c1.9,2.1,5.4,6.3,4.3,8c2.6-3.7,7.8-6.3,11.8-7.9c3.8-1.6,9.1-3.9,14.1-4.3
				C172.2,124.8,160.1,126.7,151.8,132.1z M149.8,131c11.3-8.8,29.9-10.4,41-0.8c0.9,0.8-0.4,2.3-1.3,1.6c-0.2-0.2-0.5-0.3-0.7-0.5
				c-6.6-2-13.7,0-19.8,2.9c-3,1.4-7.2,3.1-9.4,5.6c-1.3,1.5-1.4,2.1-2.7,3c-0.6,0.4-1.5,0.4-1.9-0.3c-1.8-3.4-3.4-6.8-5.4-10.2l0,0
				C149.3,131.8,149.3,131.4,149.8,131z"/>
		</g>
		<path fill="#41130C" d="M189,214.3c-10.9,1.7-22.3-9.2-26.8-17.9c-12-23-3-49.1,24.6-52c1.1-0.1,1.3,1.7,0.3,1.9
			c-2.8,0.5-5.5,1.2-8.1,2.2c11.2,0.5,23.1,6.2,28.1,16.7c3.8,7.9,6.6,19.4,4.8,28.8c4.5-2.9,10-4,15.2-3.8c1.6,0.1,2.2,2.8,0.4,3
			c-10.6,1.5-16.5,5.9-24.2,13.1C198.9,210.1,195.1,213.3,189,214.3z M159.9,174c0.1,11.1,4.4,23.5,13.4,30.5
			c8.1,6.3,17.1,8.7,25.3,1.2c3-2.8,5.8-5.6,8.8-8.3c2.5-9,1.8-22.8-3-30.8c-6.5-10.9-17.9-15.6-30.1-16
			C165.9,155.3,159.8,163.2,159.9,174z"/>
		<path fill="#41130C" d="M160.4,241.4c2.5,1.4,7.3,3.5,6.9,6.9c-0.1,0.7-0.8,1.4-1.6,0.9c-2.2-1.4-3.6-3.6-6-4.9
			c-2.9-1.6-6-2.4-9-3.8c-4.2-1.9-3.1,6.7-2.9,8.8c0.3,2.7,1.5,5.1,1.8,7.7c0.1,0.5-0.7,1-1.1,0.6c-3.4-2.3-3.4-8.2-3.4-12
			c0-2.8-0.4-7.5,3.2-8.5c1.7-0.5,4.5,1.1,6,1.6C156.4,239.5,158.4,240.3,160.4,241.4z"/>
		<path fill="#41130C" d="M198.1,307.4c-4.5,0.5-8.9,2.3-11.2,6.4c-2.3,3.9-2.4,8-2.5,12.2c2.7-0.2,5.5-1,8.3-2.5
			c10.6-5.6,20.1-15.1,23.8-26.7c-4-0.6-8.6,1.3-11.5,3.9c-3.2,2.9-4.3,5.9-5.1,10c-0.2,0.9-1.7,0.9-1.8,0
			C197.9,309.7,198,308.5,198.1,307.4z M156.4,305.7c5,3.5,7.5,9.1,11.6,13.4c4.1,4.4,9.1,6.9,14.4,7c-0.5-10.8,4.7-20,16.3-20.8
			c1.1-2.8,3.3-5.4,5.7-7.1c3.3-2.4,8.6-4.8,12.8-3.5c0.7-2.8,1.1-5.8,1-8.8c-0.3-14.2-4.3-27.3-8.4-40.7c-8,14-21.6,25-35.7,33.3
			c-12.6,7.3-27.5,12.8-42.1,15.2c2.5,2.7,5.1,4.5,9,5.6C146.6,300.8,151.6,302.3,156.4,305.7z M109.9,289
			c6.9,5.8,17.4,3.3,25.1,1.4c13-3.2,26.3-6.9,37.7-14c10.9-6.8,19.9-15.7,27.5-26c7.4-10,8.8-20.4,12.4-31.6
			c-1.7,0.5-3.4,1.2-5.1,2.1c-0.9,0.5-1.7-0.8-0.8-1.4c4-2.6,7.2-5,12.2-5.6c3.6-0.5,9.2-1.8,11.5,1.8c0.5,0.7,0,1.5-0.7,1.8
			c-3.2,1.2-7.3,0-10.7,0.2c-0.7,0-1.4,0.1-2.1,0.2c0.2,8.7-1.8,16.7-5.3,23.9c11,28.1,17.2,66.5-14.6,83.6
			c-10.6,5.7-23.2,6.7-31.6-3.5c-3-3.6-5.6-7.9-9.3-10.8c-4.9-3.9-10.5-5.4-16.3-7.5c-1.8-0.7-4.6-2.1-6.1-3.6
			c-0.4-0.4-4.6-5.9-4.1-5.8c0,0-0.1,0-0.1,0c-0.2,0-0.4,0.1-0.6,0.1c-5.3,0.7-10.5,1.2-15.8,0.1c-4.2-0.9-7.9-5.2-11.8-7.9
			c-1.9,4.2-2.4,9.5-1.4,13.9c0.2,0.9-1.1,1.5-1.5,0.6c-3.3-6.6-3.6-14.1,1.1-20c1.5-1.9,4.8,0.6,3.4,2.6c-0.2,0.2-0.3,0.5-0.4,0.7
			C105.3,285.3,107.4,286.9,109.9,289z"/>
		<path fill="#41130C" d="M78.3,234.3c2.9,9.4,9.1,20.8,18.6,25.2c14.3,0.8,26.4-7.6,26.4-23c0-12.5-4.5-23.6-15.8-29.8
			c-4.9-2.7-10.9-6.8-16.7-6.2c-1.8,0.2-3.4,0.5-5,1c-4.3,4.5-7.8,8.1-8.4,15.3C76.9,222.5,76.6,228.7,78.3,234.3z M74.5,229.2
			c-1-5.8-0.9-15.5,2.5-22.3c-1.4,1.3-2.6,2.8-3.8,4.5c-0.7,1-2.1,0.2-1.6-0.9c11-25.6,47.5-8.4,53.2,12.4c3,11,3.3,25.8-6.6,33.6
			c-4.6,3.7-9.9,6.3-15.9,6.4c-5.9,0.2-11.9,0.4-17,3.7c-2.9,1.9-5.5,4.1-8.4,5.8c-2,1.2-4.1-1.5-2.5-3.2c4.5-4.6,10.2-8.5,16.6-9.5
			C81.6,253.1,76.2,238.9,74.5,229.2z"/>
		<g>
			<path fill="#F6921E" d="M78,171.7c6.1,4.1,6.4,11.5-1.2,14.5c-3.6,1.4-7.4,3-10.6,5.2c-3.6,2.5-6.6,5.1-8.7,8.4
				C59.9,187.4,65.3,174.9,78,171.7z"/>
			<path fill="#41130C" d="M76.7,186.1c7.6-2.9,7.4-10.3,1.2-14.5c-12.7,3.3-18,15.7-20.5,28c2.1-3.3,5.2-5.9,8.7-8.4
				C69.4,189.1,73.1,187.5,76.7,186.1z M79.9,169.8c4.7,1.4,8,9.5,5.4,13.7c-2.4,3.8-6.1,4.5-10.1,6.3c-9.2,4.1-14.6,9.1-19,18.1
				c0,0.1,0,0.2,0,0.3c-0.2,1.3-2.3,1.5-2.4,0.1c-0.7-16.2,6.1-37.9,25-39.1C79.3,169.2,79.7,169.5,79.9,169.8z"/>
		</g>
		<g>
			<defs>
				<path id="SVGID_2_" d="M123.3,236.5c0,15.4-12.1,23.8-26.4,23c-9.5-4.4-15.8-15.8-18.6-25.2c-1.7-5.5-1.4-11.8-0.9-17.5
					c0.7-7.3,4.1-10.8,8.4-15.3c1.5-0.5,3.2-0.8,5-1c5.8-0.6,11.8,3.5,16.7,6.2C118.8,212.9,123.3,224,123.3,236.5z"/>
			</defs>
			<clipPath id="SVGID_7_">
				<use xlink:href="#SVGID_2_"  overflow="visible"/>
			</clipPath>
			<g clip-path="url(#SVGID_7_)">
				<path fill="#234088" d="M129.9,240.2c0,11.9-9.7,21.6-21.6,21.6c-11.9,0-21.6-9.7-21.6-21.6c0-11.9,9.7-21.6,21.6-21.6
					C120.3,218.7,129.9,228.3,129.9,240.2z"/>
				<path fill="#6693CC" d="M127.5,240.2c0,10.6-8.6,19.2-19.2,19.2c-10.6,0-19.2-8.6-19.2-19.2c0-10.6,8.6-19.2,19.2-19.2
					C118.9,221,127.5,229.6,127.5,240.2z"/>
				<path fill="#000F24" d="M121.6,240.2c0,7.3-5.9,13.3-13.3,13.3c-7.3,0-13.3-5.9-13.3-13.3c0-7.3,5.9-13.3,13.3-13.3
					C115.7,227,121.6,232.9,121.6,240.2z"/>
				<circle fill="#FFFFFF" cx="97.1" cy="230.4" r="5.6"/>
			</g>
		</g>
		<g>
			<defs>
				<path id="SVGID_1_" d="M204.4,166.6c4.8,8.1,5.5,21.8,3,30.8c-3,2.7-5.8,5.5-8.8,8.3c-8.1,7.5-17.1,5.2-25.3-1.2
					c-9-7-13.3-19.4-13.4-30.5c-0.1-10.8,6-18.8,14.4-23.4C186.5,151,197.9,155.7,204.4,166.6z"/>
			</defs>
			<clipPath id="SVGID_8_">
				<use xlink:href="#SVGID_1_"  overflow="visible"/>
			</clipPath>
			<g clip-path="url(#SVGID_8_)">
				<path fill="#234088" d="M215,182.9c3.3,11.5-3.4,23.4-14.8,26.6c-11.5,3.3-23.4-3.4-26.6-14.8c-3.3-11.5,3.4-23.4,14.8-26.6
					C199.8,164.8,211.8,171.5,215,182.9z"/>
				<path fill="#6693CC" d="M212.7,183.6c2.9,10.2-3,20.8-13.2,23.7c-10.2,2.9-20.8-3-23.7-13.2c-2.9-10.2,3-20.8,13.2-23.7
					C199.2,167.5,209.8,173.4,212.7,183.6z"/>
				<path fill="#000F24" d="M207,185.2c2,7-2.1,14.4-9.1,16.4c-7,2-14.4-2.1-16.4-9.1c-2-7,2.1-14.4,9.1-16.4
					C197.7,174.1,205,178.1,207,185.2z"/>
				<circle fill="#FFFFFF" cx="180.8" cy="182.5" r="5.6"/>
			</g>
		</g>
		<path opacity="0.3" fill="#231F20" d="M528.8,126.4c2.4-4.4,5.1-8.5,8.4-12.3c1.9-2.2,3.9-4.5,6-6.6c-4.4,2.8-8.8,5.8-12.9,9
			c-14,10.7-27,23.1-42.2,32.2c-11.6,6.9-28.4,16-42.5,12.1c-9.3-2.6-15.4-8.9-19.2-16.8c0.9,3.3,2.2,6.5,3.9,9.1
			c3.1,4.6,7.5,8,11.1,12.2c1.4,1.7,2.6,3.5,3.8,5.3c22.8,4.2,42.3-17.2,63.1-23.6c4.6-1.5,9.6-2.4,14.5-2.3c1.2-2.8,2-5.8,2.7-8.8
			C526.3,132.5,527.2,129.3,528.8,126.4z"/>
		<path opacity="0.3" fill="#231F20" d="M564.3,141.1c-4.6,3.4-9.1,6.9-13.9,10c-1.3,0.8-2.7,1.7-4.1,2.5c1.9,0.5,3.7,1.1,5.4,1.8
			c4.7-4.5,10.4-7.3,16.9-4.7c16,7.1,20.3,26,30.2,39.2c0.6-0.5,1.1-1,1.7-1.5C600.8,167.2,586,143.6,564.3,141.1z"/>
		<path opacity="0.3" fill="#231F20" d="M449.8,146.9c-15.1-5.7-24.5-17-13.2-32.1c26.4-35.8,81.1-49,75.5-100c0,0,5.7-3.8,7.5-1.9
			C521.5,28,529,43.1,546,37.4c15.1-5.7,20.8-28.3,37.7-18.9c0.1,0,0.2,0,0.2,0.1c-0.7-2.2-2.1-4-4.7-4.9c-0.3,0.2-0.8,0.2-1.2,0
			c-13-6.1-20.3,9.8-30.4,13.9c-5.4,2.2-12.4,3.6-16.2-1.7c-0.5-0.8-0.2-1.6,0.5-2.1c-2-8.7,1.3-23.7-12.2-20.4
			c-10.8,2.6-15.3,9.8-17.3,19.6c0.3,0.2,0.5,0.6,0.5,1.2c0,0.1,0,0.2,0,0.3c0,0.1,0,0.2,0,0.3C502,34.7,497,45.3,491.1,53
			c-4.6,6.1-13.3,11.2-19.4,15.8c-10.3,7.9-20.3,15.8-28.4,26.2c-8,10.3-19,25.1-17.4,39c2.7,9.5,7.6,20.1,17.7,22.9
			c8.4,2.3,16.6,0.8,24.6-2.2c14.6-5.5,27.2-14.4,39.2-24.1c8.3-6.7,16.7-13.1,25.3-19.1c-18.6,5.8-35.3,20.4-52.7,31.6
			C470.5,148.8,459.2,148.8,449.8,146.9z"/>
		<g>
			<path fill="#41130C" d="M436,164.5c3.9,4.2,6.9,8.9,9.7,13.9c0.7,1.3,1.4,2.6,2.1,3.9c4.6,9,8,19.1,10.2,28.8
				c1.7,7.2,3.4,14.5,4.3,21.8c0.4,3.6,1.3,8.4,1.2,12.6h3.7c0.4-7.5-1.7-16.5-3-23.2c-2.2-11.2-5-22.2-9.6-32.7
				c-0.8-1.9-1.7-3.9-2.5-5.8c22,5,43.2-6.9,59.3-21.2c4.6-4.1,8.9-8.4,12.6-13.3c0.4-0.5,0.8-1.1,1.1-1.7
				c0.2,6.1,1.1,12.3,1.6,18.3c1,11.7,3.8,21.5,8.1,32.5c6.2,16.3,9.8,33.1,20.2,47.1h4.6c-11.2-13.8-16.2-31.3-21.3-48
				c-3.4-10.9-6.7-19.9-7.6-31.5c-0.1-0.7-0.1-1.4-0.2-2.1c0.1,0,0.2-0.1,0.3-0.2c3.7-3,7.9-5.5,12.1-8c5.4,1.5,10.3,2.4,15.1,5.6
				c5.1,3.3,9.6,8.1,13.9,12.2c8.1,7.7,13.4,19.9,14.9,30.9c-7.9,12.2-13.5,26.2-21.6,37.9c-0.9,1.2-1.4,2.3-1.8,3.1h4.2
				c4.4-7.5,9.5-14.7,13.5-22.5c2.8-5.3,5.5-10.7,8.6-15.8c0.2-0.2,0.4-0.4,0.4-0.7c3.6-5.9,7.8-11.4,13.3-15.8
				c16,1.5,21,17.7,31.2,27.5c0.1,0.1,0.1,0.1,0.2,0.1l0,0c0,0,0,0,0,0c12.2,15.8,27.3,28.7,44.5,38.9c9.2,5.5,22.7,9,28.9,18.3
				c3.2,4.8,9.8,7.7,15.3,7.4c0.6,0,1-0.3,1.2-0.7c5-0.8,6.9-6,7.2-11.2c0.4-5.9-4.8-12.8-9.5-17.9c-0.3-3.7-1.8-7.9-0.1-11.5
				c1.6-3.3,5.9,0.2,9.1,0.7c0.1,0,0.2,0.1,0.3,0.1c6.1,1.7,15.2,1.2,16.3-6.6c0.9-6.7-7.4-12.6-12.8-15.9c-0.1-0.2-0.3-0.4-0.5-0.5
				c-9-6.6-19.9-11.6-27.9-19.6c-4.8-4.7-10.4-7.6-14.8-12.9c-4.8-5.8-8.8-11.8-12-18.6c-3.4-12.6-8-24.9-17-33.5
				c-9.9-18.4-26.7-32.5-48.3-33.1c-10.5-0.3-22.5,4.3-30.9,10.5c-8.8,6.6-11.3,19.5-20.5,25.4c-0.4,0.2-0.6,0.5-0.7,0.9
				c0,0,0,0,0,0c-5.2,3.8-10.4,7.8-15.9,11.3c-1.6,1-3.2,2-4.9,3c0,0,0,0,0,0c-0.2,0-0.4,0.2-0.5,0.3c-3.9,2.3-8,4.7-11.3,7.6
				c-0.8-8-1.9-16-1.4-24c0.3-1.2,0.6-2.5,0.9-3.7c4.5-15.4,20.8-30.8,34.9-37.2c0.4-0.2,0.6-0.6,0.7-1c4.9-2.5,9.8-5,14.7-7.4
				c7.7-1.9,13.8-5.9,19.1-11.8c4.1-4.6,9-9.4,10.8-15.5c1.2-3.8-1.7-8.2-5.4-9.2c-5.4-1.6-18.5,1.8-23.3-2.4
				c-2.2-8.6,8.6-17.4,6.8-26.8c-0.8-4.5-3.9-11-9.2-11.3c-0.3,0-0.5,0.1-0.7,0.2c-13.7-7.4-31.7,21.6-42,15.4
				c-3.2-5.6-0.5-13-3.2-19.2c-2-4.6-7.1-7.4-12-6.6c-14,2-21,12.4-21.8,26c0,0.5,0.2,0.8,0.5,1.1c-4.1,26.5-30.2,36.3-47.4,53.5
				c-11.1,11.1-27.3,28.9-29.3,46.4c-0.1,0.1-0.1,0.2-0.1,0.3c-1.7,9.6,0.6,18.6,4.8,27.3C429.2,158.5,433.2,161.4,436,164.5z
				 M733.1,222.2c0.2,0.1,0.3,0.2,0.5,0.3c2.9,2.1,5.7,4.3,8.2,7c2.6,2.8,4.7,6.8,0.4,9.7c-2.7,1.8-6.8,0.8-9.6,0.3
				c-0.3-0.1-0.5,0-0.8,0c-2.2-0.5-3.9-2.2-6.2-2.5c-2.2-0.3-4.7,0.2-6,2.2c-1.4,2.2-1.6,4.2-1.5,6.7c0,1,0,1.9,0.1,2.8
				c-1.8-1.4-3.8-2.7-5.4-4.2c-4.4-4.2-8-10.3-11.2-15.4c-6.9-10.9-11.7-24.3-15.3-36.6c-1-3.6-2-7.5-2.9-11.4
				C695.2,199.1,715.7,209.4,733.1,222.2z M576.5,126.9c6.9-10.5,13.4-16,25.6-19.9c24.3-7.7,44,7.1,56.5,26.4
				c-0.1,0.4,0,0.8,0.4,1.2c0.4,0.4,0.7,0.7,1.1,1.1c0.2,0.4,0.4,0.7,0.6,1.1c0.3,0.5,0.6,0.7,1,0.8c7.2,8.4,11.5,18.8,14.6,29.8
				c3.4,11.6,5.6,23.7,9.1,34.4c3.5,10.7,8.7,22.1,14.8,31.6c2.5,3.9,5.3,7.8,8.3,11.3c2.4,2.9,6,4.8,8.7,7.4
				c2.3,2.6,4.4,5.2,6.5,7.9c1.4,1.7,2.6,3.3,3.7,5.2c2.4,4.4,2.4,13.6-5,14.3c-0.2,0-0.3,0.1-0.5,0.1c-7.6-0.7-12-8.6-18-12.7
				c-7.3-4.9-15.3-8.2-22.9-12.6c-18.3-10.4-32.2-24.4-45.8-40.1c-0.1-0.1-0.2-0.2-0.4-0.3c0,0,0,0,0,0c-8.7-10.8-15.8-25-30.8-26.2
				c0,0,0,0,0,0c-0.1-0.1-0.2-0.1-0.3-0.2c-0.1-20.9-14.7-46-36.4-49C571.2,135.6,573.9,130.8,576.5,126.9z M550.4,151.1
				c4.8-3.1,9.3-6.6,13.9-10c21.7,2.5,36.5,26.1,36.3,47.3c-4.3,3.5-7.9,7.7-11.1,12.1c-1.9-10.1-6.8-19.4-13.5-27.3
				c-8.5-10-17.5-16.5-29.6-19.6C547.7,152.8,549,151.9,550.4,151.1z M443.4,95c8-10.3,18-18.3,28.4-26.2c6-4.6,14.7-9.7,19.4-15.8
				c5.8-7.8,10.9-18.3,11.7-28.1c0-0.1,0-0.2,0-0.3c0-0.1,0-0.2,0-0.3c0-0.5-0.2-0.9-0.5-1.2c2-9.8,6.6-17,17.3-19.6
				c13.5-3.3,10.2,11.7,12.2,20.4c-0.6,0.5-1,1.3-0.5,2.1c3.8,5.3,10.8,3.9,16.2,1.7c10-4.2,17.4-20,30.4-13.9
				c0.5,0.2,0.9,0.2,1.2,0c9.1,3.1,4.4,17.2,1.6,23.2c-1.9,4-3.6,6.2-3.3,9.3c-0.5,0.4-0.8,0.9-0.6,1.6c2.6,7.7,12.3,5.8,18.8,5.3
				c5.5-0.3,12.9,4.4,9,10.8c-1.7,2.8-4.3,5.2-6.4,7.7c-4.6,5.6-9.6,9.3-16.1,11.9c-0.4-0.2-1-0.3-1.5-0.1c-8.7,4-17,8.4-25,13.1
				c-16.9,9.9-32.7,21.3-48.3,33.9c-12.1,9.8-24.6,18.7-39.2,24.1c-8,3-16.2,4.5-24.6,2.2c-10-2.8-14.9-13.4-17.7-22.9
				C424.4,120.1,435.4,105.3,443.4,95z M445.5,160.8c14.1,3.8,30.9-5.2,42.5-12.1c15.2-9.1,28.2-21.5,42.2-32.2
				c4.2-3.2,8.5-6.2,12.9-9c-2.1,2.1-4.1,4.4-6,6.6c-3.2,3.8-6,7.9-8.4,12.3c-1.6,3-2.5,6.2-3.4,9.4c-0.8,3.2-1.6,6.5-3,9.5
				c-5.5,11.9-22,23.3-33.1,29.1c-12.2,6.4-25.5,9.5-38.9,5.6v0c-2.5-5.2-5.3-10.3-9.1-14.8c-3.5-4.2-7.9-7.6-11.1-12.2
				c-1.8-2.6-3.1-5.7-3.9-9.1C430.1,151.9,436.2,158.2,445.5,160.8z"/>
		</g>
		<path fill="#F7B898" d="M467.3,245.4H555c-3.8-5-6.6-10.4-9-16c-19.5,2.6-38.9,7.2-58.4,4.2c-7.5,0-15.1,0-20.8,0
			c-0.1,0-0.2,0-0.4,0C467.1,237.6,467.5,241.7,467.3,245.4z"/>
		<path fill="#F7B898" d="M563.5,245.4c0.4-0.9,0.9-1.9,1.8-3.1c3.1-4.4,5.8-9.2,8.4-14.1c-8.1-0.6-16.1-0.2-24.2,0.8
			c2.7,5.8,6,11.4,10.1,16.5H563.5z"/>
		<path fill="none" d="M96.5,84.1c-11,6.6-20,7-28.6,7.5c-2.8,0.1-5.5,0.3-8.2,0.6c-1.4,3.2-1.4,6.6,1.3,9.8c7,8,15.8,2.1,23.7,0
			c3.4-0.9,6-0.2,8.2,2.4c7.3,8.6-2.6,18.1-9.9,22.8c18.3,5.3,35.1-8.4,37.3-27.1c1.3-11.3-2.9-20.6-10.6-26.3
			C106.7,77.1,102.4,80.6,96.5,84.1z"/>
		<path fill="#41130C" d="M80.5,128.7c0.8-0.4,1.6-0.9,2.5-1.5c-0.7-0.2-1.5-0.5-2.3-0.7C80.7,127.2,80.6,128,80.5,128.7z"/>
		<g id="XMLID_1_">
			<path fill="#F6921E" d="M23.3,119.6c-17.8,29.3-8.5,66.7-3.1,82.8c-0.3-0.5-0.6-1-0.9-1.5c-7.9-13.6-13.1-29.3-14.1-33.1
				c-5.1-18.1-0.5-35.3,8.8-51.2C19.4,107.2,33,91,43.4,81.2c5-4.7,27-19,27.1-19.3c2.9-1.6,5.9-3.1,9-4.5
				c1.2-0.5,22.9-9.1,44.6-10.9c18.2-1.5,36.4,3.4,42.6,5.7c23.9,8.9,36.7,29.5,45.3,51.9c0.2,0.9,0.7,1.9,1.1,3
				c-34.6-58.1-96.5-51.9-97.1-51.8l-1.1,0.1l0.3,1.1c0,0.1,1.5,6-5,14.1c-0.6,0.8-1.3,1.5-2.1,2.4c0.5,0.3,1.1,0.7,1.6,1.1
				c7.7,5.7,11.9,14.9,10.6,26.3c-2.2,18.7-19,32.4-37.3,27.1c7.3-4.7,17.2-14.2,9.9-22.8c-2.2-2.6-4.8-3.3-8.2-2.4
				c-7.9,2.1-16.7,7.9-23.7,0c-2.8-3.2-2.7-6.6-1.3-9.8c0.3-0.7,0.6-1.4,1-2c-1.4,0.1-2.8,0.3-4.1,0.6C46.5,92.7,36,98.7,23.3,119.6
				z"/>
			<path fill="#41130C" d="M216.6,117.4c-30.4-62.6-90.9-60.9-99.4-60.4c0.2,2.2,0,7.7-5.4,14.5c10.8,7.7,16,21.3,10.2,36.1
				c-7.1,18-24.3,28.4-43.4,21.3c-1.3-0.5-0.7-1.7,0.3-2.2c0.5-0.3,1-0.5,1.5-0.8l0.4,0.7c-0.1,0.8-0.2,1.5-0.3,2.2
				c0.8-0.4,1.6-0.9,2.5-1.5c18.3,5.3,35.1-8.3,37.3-27.1c1.3-11.3-2.9-20.6-10.6-26.3c-0.5-0.4-1.1-0.8-1.6-1.1
				c0.8-0.8,1.5-1.6,2.1-2.4c6.5-8.1,5-14,5-14.1l-0.3-1.1l1.1-0.1c0.7-0.1,62.5-6.3,97.1,51.8c2.6,4.4,5.1,9.2,7.4,14.3l-1.7,0.8
				C218.1,120.5,217.3,118.9,216.6,117.4z"/>
			<path fill="#41130C" d="M23.3,119.6C36,98.7,46.5,92.7,56.6,90.7c1.4-0.3,2.8-0.5,4.1-0.6c-0.4,0.7-0.8,1.3-1,2
				c-1.4,3.2-1.5,6.6,1.3,9.8c7,8,15.8,2.1,23.7,0c3.4-0.9,6-0.2,8.2,2.4c7.3,8.6-2.6,18.1-9.9,22.8c-0.8-0.2-1.5-0.5-2.2-0.7
				l-0.4-0.7c5.3-2.9,10.6-6.7,10.5-13.6c-0.2-8.7-7.2-7-13.2-4.3c-4.7,2.1-11.7,0.9-16.1-1.1c-4.7-2.2-7-8.7-5.8-13.6
				c0.1-0.2,0.1-0.4,0.2-0.5c-9.5,2.1-19,8.2-30.9,27.8c-21.9,36.1-1.7,85-0.1,88.8c0.1,0.1,0.1,0.2,0.1,0.2l-1.7,0.8
				c-0.1-0.1-1.3-3.1-3-8C14.8,186.3,5.6,148.9,23.3,119.6z"/>
			<path fill="#41130C" d="M70.5,61.9c-0.2,0.3-22.2,14.6-27.1,19.3c-10.4,9.8-24,26-29.4,35.4c-9.3,15.8-13.9,33.1-8.8,51.2
				c1.1,3.8,6.2,19.5,14.1,33.1c0.3,0.5,0.6,1,0.9,1.5c1.7,4.9,2.9,7.8,3,8l1.7-0.8c0,0,0-0.1-0.1-0.2c5.8,8.1,11.9,14.4,14.3,17.1
				c6.2,6.9,16.1,14.3,16,24.5c0,0.5-0.3,0.8-0.7,0.8c4.4,15.1,7.1,30.2,15.1,44.3c8.2,14.7,19.2,28.2,32.4,38.8
				c14.4,11.5,32.7,20.6,51.7,19.4c17-1.1,32.9-7.8,47.2-16.9c28-17.8,54.7-45.2,59.4-79.6c4.7-34.6-9.6-67.6-21.8-99.2
				c-2.9-1.7-5.3-4.4-6.6-8.1c-0.5-1.4,1.5-1.9,2.2-0.9c1.7,2.4,3.6,4.5,5.8,6.5c6.2,3.7,11.3,2,15.4-5.2c0.9-4.9,0.1-10.2-1.2-14.9
				c-2.2-8.1-6.8-14-11-20.9c-0.2-0.1-0.4-0.2-0.6-0.5c-3.6-6-9.8-10.7-17.2-8.4c-3.7,1.1-6.4,3.2-6.9,6.5c1.2,3.5,2.3,7.1,3.4,10.7
				c0.3,0.2,0.5,0.6,0.5,1.1v0.6c0,1.8-2.6,2.1-3.1,0.4c-0.6-1.9-1.2-3.9-1.8-5.9c-0.1-0.2-0.3-1-0.7-2c0.7,1.5,1.5,3.1,2.2,4.7
				l1.7-0.8c-2.3-5.1-4.7-9.9-7.4-14.3c-0.4-1.1-0.9-2.1-1.1-3c-8.6-22.4-21.4-43-45.3-51.9c-6.2-2.3-24.4-7.2-42.6-5.7
				c-21.7,1.8-43.4,10.4-44.6,10.9C76.5,58.8,73.5,60.2,70.5,61.9z M97.6,339.2c-26.1-22.5-43.2-58-46.2-92.4
				c-8.2-14.9-26-24.8-33.8-40.1c-3.7-5-6.7-11.1-8.8-16.2c-2.3-5.7-5.9-13.1-5.7-19.7c-1.1-3.8-2-7.6-2.6-11.5
				c-2.4-15.4,2.8-31.2,10.9-44.1c16.7-26.7,40.2-49.7,69.8-61.5c28.4-11.3,63.7-16,92-1.7c23.4,11.9,35.4,33.5,43.7,57
				c1.1-2.1,3-3.8,6.1-4.7c9.1-2.8,16.3,1.4,21.5,8.8c0.2,0.3,0.2,0.6,0.2,0.9c5.4,5.9,10,13.3,11.7,21.1c1.2,5.5,4.1,14,0.4,19.2
				c-4,5.5-10.1,7.2-15.4,5.7c13.5,34.2,30.9,70.8,20.1,108.3c-9.9,34.1-36.7,60.1-67.1,77.1C162.4,363.2,126.3,364,97.6,339.2z"/>
		</g>
	</g>
</g>
</svg>