<svg id="Layer_1" enable-background="new 0 0 1200 563.8" height="563.8" viewBox="0 0 1200 563.8" width="1200" xmlns="http://www.w3.org/2000/svg" xmlns:xlink="http://www.w3.org/1999/xlink"><path d="m222.6 562.4c-27.6 0-51.6-24.5-51.6-52v-7.6l-1.3-.9c-1.6-1.2-3.2-2.6-4.8-4-1.3-1.2-2.7-2.4-4.2-3.5-6.1-4.9-12.5-8.4-18.7-11.8-4.1-2.3-8.4-4.6-12.5-7.4-16.5-10.9-27-27.6-30.4-48.4-1.7-10-.8-20.7 2.6-32 .5-1.8 1.1-3.6 1.6-5.4 2.5-8.4 5-17.2 8.9-24.9 1.3-2.6 2.7-5 4-7.4.8-1.4 1.6-2.9 2.4-4.4l1.6-2.9-3-1.4c-6.3-3-12.3-6.8-17.7-11.5-24.8-21.3-42.1-55.9-45.1-90.3l-.1-.7-.3-.6c-4.2-7.7-10.8-14.1-17.1-20.2-6.6-6.4-12.9-12.4-16.6-19.8l-.1-.2-.2-.2c-4.2-5.7-7-12.2-8.4-15.5-.4-1-.8-2-1.2-3-2.1-5-4.4-10.6-4.2-15.4v-.5l-.1-.5c-1.2-4-2-7.6-2.5-11.1-2-13.1 1.7-28 10.5-42 18-28.8 41.6-49.6 68.3-60.2 17.1-6.8 34.6-10.4 50.7-10.4 14.5 0 27.5 2.9 38.8 8.6 24.4 12.4 35.4 36 42.2 55.2l2.4 6.9 3.3-6.5c.7-1.4 2.1-2.5 4.2-3.1 1.6-.5 3.1-.7 4.6-.7 4.8 0 9.2 2.6 12.9 7.6l-.1.7 1.1 1.2c4 4.4 9.2 11.4 11 19.7.2.8.4 1.7.6 2.6 1.2 4.8 2.6 10.8.3 14.1-2.3 3.2-5.5 4.9-9 4.9-1 0-2-.1-2.9-.4l-6.1-1.8 2.3 5.9c1.3 3.2 2.6 6.5 3.9 9.8 6.4 15.8 12.9 32.2 16.5 48.7l.5 2.2 2.2.5c4 .5 7.7 1.2 11.5 1.2h.5c15.6 0 30.1-5.6 44-10.8 10.4-3.9 21.2-8 32.3-9.6 1.7-.3 3.5-.4 5.3-.4 9.3 0 17.9 3.6 25.1 7.2 11.1 5.5 19.5 10.6 26.7 19.3 4.4 5.3 8.5 10.4 12.2 15.2.2.3.4 1 .6 1.4.8 1.5 1.9 3.9 4.3 3.9h42.5l.1-3.3c.1-3-.6-8.1-1.1-11.8l-.2-1.6c-.9-7.4-2.6-14.8-4.3-22l-.1-.4c-2.4-10.5-6-20.7-10.5-29.5-.7-1.4-1.4-2.7-2.2-4-2.4-4.2-5.7-9.6-10.2-14.4-.9-1-1.9-1.9-2.9-2.9-2-1.9-4.1-4-5.1-6.1-4.4-9.3-5.9-17.2-4.6-25l .1-.2.1-.7c1.9-16.3 17.1-33.2 28.4-44.5 5-5 10.9-9.5 16.6-13.8 14.1-10.6 28.6-21.6 31.7-41.4l.3-1.7-.7-.6c.6-7.7 4-20 19-22.2.4-.1.7-.1 1.1-.1 3.2 0 6.3 2 7.6 4.9 1.1 2.4 1.1 5.2 1.1 8.1.1 3.8.1 7.7 2.2 11.3l.4.7.7.4c1.5.9 3.1 1.3 4.9 1.3 5.4 0 11-4.2 17-8.6 5.8-4.3 11.9-8.8 16.9-8.8 1.2 0 2.3.3 3.4.8l1.5.8 1-.6c3 .5 5.2 5.3 5.8 8.7.7 3.7-1.3 7.6-3.3 11.8-2.4 4.8-4.9 9.9-3.5 15.3l.2.9.7.6c3.1 2.7 7.8 3 11.6 3 1.7 0 3.4-.1 5.1-.1 1.5-.1 2.9-.1 4.3-.1 1.7 0 2.8.1 3.6.3 1.1.3 2.2 1.3 2.9 2.5.3.6.8 1.7.4 2.8-1.4 4.7-5.1 8.8-8.7 12.7l-1.5 1.6c-5 5.6-10.8 9.2-17.5 10.8l-.3.1-.3.2c-4.9 2.4-9.9 4.9-14.8 7.5l-1.6.8v.6c-13.9 6.7-30.8 22.2-35.5 38.6-.4 1.3-.7 2.5-1 3.9l-.1.2v.3c-.5 7 .3 14.2 1 21l1 9.6 4.6-4.1c3.1-2.8 7-5.1 10.7-7.3l0 0 .5-.1.5-.5c1.5-.9 3-1.8 4.5-2.8 2.6-1.7 4.9-3.5 7.1-5.2 2.6-2 5.5-4.1 8.7-6.1l1.7-.9v-.4c5-3.6 8-8.7 11-13.7 2.7-4.5 5.2-8.7 8.9-11.5 8.1-6 19-9.9 28.1-9.9h.8c18.4.5 35.1 11.9 45.6 31.4l.2.4.4.3c8.8 8.5 13.1 21 16.1 32.1l.1.3.1.3c3.2 6.7 7.1 12.8 12.4 19.3 2.8 3.3 5.9 5.8 8.9 8.1 2.2 1.7 4.2 3.2 6.1 5.1 5.3 5.2 11.7 9.2 17.9 13 3.6 2.2 6.9 4.3 10.1 6.6l.2.4.7.5c8 4.9 11.8 9.3 11.3 12.8-.4 3.1-2.9 4.7-7.4 4.7-1.6 0-3.4-.2-4.9-.7h-.2l-.2-.1-.4-.1c-.6-.1-1.5-.4-2.4-.8-1.5-.6-3.1-1.2-4.8-1.2-2.2 0-4.1 1.2-5 3.2-.5 1-.6 2.5-.9 4.8l3.3-2.6v6.7h424.5c28 0 51.5 22.4 51.5 49.6v211.4c0 27.6-23.9 52-51.5 52h-923.7zm-70.3-131.4c0 .2 0 .6.2 1.1.3 1.2.6 2.3 1 3.5.4 1.5.8 2.9 1.2 4.4l.1.4.2.3c2.3 3.8 6.7 10.7 10.5 14.7l5.5 5.8v-22.3l-1.1-.9c-1.7-1.5-3-3.6-4.3-5.8-.8-1.3-1.6-2.6-2.5-3.9-.1-.2-.3-.5-.4-.9-.4-.9-.8-2.1-2-3.2l-1.1-1-1.5.3c-2.9.5-4.7 1.6-5.6 3.4-.7 1.2-.7 2.7-.2 4.1zm434.7-225.4c-2.4 4-4.6 8.3-6.8 12.4l-1.9 3.6c-4.3 8.2-9.2 16.7-13.3 22.5l-3.5 5.2h111.5l-9.3-6c-9.6-5.9-19.7-16.5-25.7-25.9v-.4l-1.4-1.2h-.1c-2.9-2.8-5.3-6.2-7.9-9.7-6.1-8.5-12.5-17.2-24.9-18.4l-1.3-.1-1 .8c-5.1 4.2-9.6 9.5-14 16.7l-.3.5v.1z" fill="#fff"/><path d="m1146.5 251.1h-923.9c-26.4 0-47.8 21.4-47.8 47.8v211.4c0 26.4 21.5 47.8 47.8 47.8h923.9c26.4 0 47.8-21.5 47.8-47.8v-211.4c0-26.4-21.4-47.8-47.8-47.8z" fill="#42c4e2"/><path d="m1146.5 245.4h-923.9c-29.5 0-53.5 24-53.5 53.5v211.4c0 29.5 24 53.5 53.5 53.5h923.9c29.5 0 53.5-24 53.5-53.5v-211.4c0-29.5-24-53.5-53.5-53.5zm47.8 264.9c0 26.4-21.5 47.8-47.8 47.8h-923.9c-26.4 0-47.8-21.5-47.8-47.8v-211.4c0-26.4 21.5-47.8 47.8-47.8h923.9c26.4 0 47.8 21.4 47.8 47.8z" fill="#1b75bb"/><path d="m383.8 312.9c77.3 20.8 150.9 50.9 233.9 32.1 101.9-22.6 192.4-52.8 296.2-28.3 35.8 7.5 69.8 26.4 101.9 13.2 61-23.4 123.8-13.7 178.6 12.5v-43.4c0-26.4-21.5-47.8-47.8-47.8h-924c-26.4 0-47.8 21.4-47.8 47.8v59.7c58-47.4 133.5-66.3 209-45.8z" fill="url(#SVGID_4_)" opacity=".7"/><path d="m1032.9 390.7c-25.5 13.2-49.8 26.9-71.9 39.1-122.6 69.8-258.5 69.8-394.3 35.8-126.4-32.1-243.4-84.9-373.5-66-6.3.9-12.4 2.1-18.4 3.7v107c0 26.4 21.5 47.8 47.8 47.8h923.9c26.4 0 47.8-21.5 47.8-47.8v-110c-54.3-10-109.3-16.1-161.4-9.6z" fill="url(#SVGID_6_)" opacity=".5"/><path d="m1123.6 392.6-.2-.3c-.3-.4-.5-.7-.8-1.1l-.2-.3c-.2-.3-.5-.7-.7-1l-.3-.4c-.2-.3-.5-.7-.7-1l-.3-.4c-.3-.4-.5-.7-.8-1.1l-.2-.3c-.3-.4-.5-.7-.8-1.1l-.2-.3c-.2-.3-.5-.7-.7-1l-.3-.4c-.3-.4-.5-.8-.8-1.1l-.2-.3c-.3-.4-.5-.7-.8-1.1l-.2-.3c-.3-.4-.5-.7-.8-1.1l-.2-.3c-.2-.3-.5-.7-.7-1-.5-.6-1-1.2-1.5-1.8-.2-.2-.4-.5-.6-.7-1.1-1.3-2.2-2.5-3.4-3.7 0 0-.1-.1-.1-.1-8-7.9-17.7-12.7-28.3-14-1.8-.2-3.7-.3-5.5-.3-1.2 0-2.5.1-3.7.1-.4 0-.9.1-1.3.1-.8.1-1.6.2-2.3.3-.5.1-1 .2-1.5.3-.7.1-1.4.3-2 .4-.5.1-1 .3-1.5.4-.6.2-1.3.4-1.9.6-.5.2-1 .3-1.4.5-.7.2-1.3.5-1.9.7-.4.2-.9.4-1.3.6-.7.3-1.4.6-2 .9-.4.2-.7.4-1.1.6-.7.4-1.4.8-2.1 1.2-.3.2-.6.3-.8.5-.8.5-1.6 1-2.3 1.6-.2.1-.4.3-.6.4-.9.6-1.7 1.3-2.5 2-.1.1-.2.1-.2.2-5.5 4.7-10.1 10.8-13.6 18-.2-.2-.3-.5-.5-.7-.3-.5-.6-.9-1-1.3-.3-.5-.7-1-1-1.4-.3-.5-.6-.9-1-1.3-.3-.5-.7-.9-1-1.4s-.6-.9-1-1.3c-.3-.4-.6-.8-.8-1.2-4.7-7.9-12.7-13.2-24.6-16.7-.7-.2-1.3-.4-2-.6-.9-.2-1.9-.5-2.9-.7-.9-.2-1.8-.4-2.8-.6-.9-.2-1.8-.4-2.8-.5-1.4-.3-2.9-.5-4.4-.7-.9-.1-1.8-.3-2.7-.4-1.8-.2-3.6-.4-5.5-.6-.9-.1-1.8-.1-2.7-.2-1.6-.1-3.2-.2-4.8-.3-1-.1-1.9-.1-2.9-.2-1.8-.1-3.6-.2-5.5-.2-.9 0-1.8-.1-2.7-.1-2.8-.1-5.7-.1-8.7-.1-.5 0-.9.1-1.4.2-.2-.8-.6-1.5-1.1-2.2-.1-.1-.2-.2-.3-.3-.2-.4-.5-.8-.8-1.1-.1-.1-.2-.2-.2-.3-.2-.4-.5-.8-.7-1.1-.1-.1-.2-.2-.3-.3-.2-.4-.5-.8-.8-1.1-.1-.1-.2-.2-.2-.3-.2-.4-.5-.8-.7-1.1-.1-.1-.2-.2-.3-.3-.2-.4-.5-.8-.8-1.1-.1-.1-.2-.2-.2-.3-.2-.4-.5-.8-.8-1.1-.1-.1-.2-.2-.3-.3-.2-.4-.5-.8-.8-1.1-.1-.1-.2-.2-.2-.3-.2-.4-.5-.8-.8-1.1-.1-.1-.2-.2-.3-.3-.2-.4-.5-.8-.8-1.1-.1-.1-.2-.2-.2-.3-.2-.4-.5-.8-.7-1.1-.1-.1-.2-.2-.3-.3-.2-.4-.5-.8-.8-1.1-5.6-6.4-16.3-10.3-28.7-10.3-1.6 0-3.1.1-4.6.2-.5 0-1 .1-1.5.2-1 .1-1.9.2-2.9.4-.6.1-1.2.2-1.8.4-.8.2-1.6.3-2.4.5-.6.2-1.3.4-1.9.6-.7.2-1.4.4-2 .7-.7.2-1.3.5-2 .8-.6.3-1.2.5-1.7.8-.7.3-1.3.7-2 1-.5.3-.9.5-1.4.8-.7.4-1.4.8-2 1.3-.4.3-.7.5-1.1.8-.7.5-1.4 1.1-2.1 1.6-.2.2-.4.3-.6.5-7.3 6.5-12 15.6-13.5 26.6-.2-.3-.4-.6-.7-.9-.3-.5-.6-1-1-1.4 0-.1-.1-.1-.1-.1-.2-.3-.4-.7-.7-1-.1-.1-.2-.2-.2-.3-.3-.3-.7-.6-1-.9 0 0-.1 0-.1-.1-.4-.2-.7-.4-1.1-.5-.1 0-.2-.1-.4-.1-.5-.1-.9-.2-1.4-.2h-23.9c-1.8 0-3.4.8-4.5 2.2s-1.4 3.2-1 4.9c.1.6.4 3.1.4 12 0 1 0 2-.1 2.9 0 .3 0 .6-.1.9 0 .6-.1 1.2-.2 1.7 0 .3-.1.6-.1.9-.1.5-.1.9-.2 1.4-.1.3-.1.6-.2.8-.1.4-.2.8-.3 1.1-.1.2-.1.5-.2.7-.1.4-.2.7-.4 1-.1.2-.2.4-.2.6-.1.3-.3.6-.5.9-.1.1-.2.3-.2.4-.2.4-.5.8-.8 1.1v0c-.3.3-.5.6-.8.9-.1.1-.2.2-.3.2-.2.2-.4.3-.6.5-.1.1-.2.1-.3.2-.2.1-.4.2-.6.3-.1.1-.2.1-.4.2s-.4.2-.6.2c-.1 0-.2.1-.4.1-.2.1-.4.1-.6.2-.1 0-.2.1-.3.1-.2 0-.4.1-.7.1-.1 0-.1 0-.2 0-.3 0-.6.1-.8.1-.2-1.5-.3-3.1-.3-4.6 0-2.3.1-4.9.7-6.9.4-1.5.2-3.1-.5-4.5-.3-.5-.6-.9-1-1.2 0-.1-.1-.1-.1-.2-.2-.4-.5-.8-.9-1.1 0-.1-.1-.2-.1-.2-.2-.4-.5-.8-.9-1.1 0-.1-.1-.2-.1-.3-.2-.4-.5-.8-.9-1.1 0-.1-.1-.2-.1-.3-.2-.4-.5-.8-.9-1.1 0-.1-.1-.2-.1-.3-.2-.4-.5-.8-.9-1.1 0-.1-.1-.2-.1-.2-.2-.4-.5-.8-.9-1.1 0-.1-.1-.2-.1-.3-.2-.4-.5-.8-.9-1.1 0-.1-.1-.2-.1-.3-.2-.4-.5-.8-.9-1.1 0-.1-.1-.2-.1-.3-.2-.4-.5-.8-.9-1.1 0-.1-.1-.2-.1-.3-.2-.4-.5-.8-.8-1.1 0-.1-.1-.2-.1-.3-.8-1.3-2.1-2.3-3.6-2.7l-23.3-5.5c-.4-.1-.9-.1-1.3-.1-1.1 0-2.1.3-3 .9-1.3.8-2.2 2.1-2.5 3.6-1 4.7-1.5 9.3-1.5 14.1 0 2.2.1 4.5.4 6.9 0 0 0-.1-.1-.1-.3-.5-.7-.9-1-1.4s-.7-.9-1-1.4-.7-.9-1-1.4-.7-.9-1-1.4-.7-.9-1-1.4-.7-.9-1-1.4c-.2-.4-.5-.7-.8-1.1-.8-1.3-1.8-2.5-2.9-3.7-.2-.3-.5-.5-.8-.8-.7-.7-1.4-1.3-2.2-1.9-.5-.4-1-.8-1.5-1.2-.2-.1-.3-.2-.5-.3-2-1.4-4.2-2.6-6.7-3.6 0 0 0 0-.1 0-1.3-.5-2.7-1-4.1-1.4-.2-.1-.4-.1-.6-.2-1.4-.4-2.9-.8-4.4-1.1-.4-.1-.7-.1-1.1-.2-1.5-.3-3-.6-4.6-.8-.7-.1-1.5-.2-2.3-.2-1.3-.1-2.7-.3-4.1-.4-2.3-.1-4.7-.2-7.2-.2-12.3 0-21.7.4-29.2 1.2-1.1.1-2.1.2-3.1.4-3 .4-5.2 3.1-4.9 6.1.2 2.2.3 4.2.5 6.3.1.7.1 1.4.2 2 .1 1.7.3 3.3.4 4.9 0 .4.1.7.1 1.1.1 1.9.3 3.8.4 5.6 0 .4.1.9.1 1.3.1 1.7.2 3.4.3 5v .2c-.1-.1-.1-.2-.2-.3l-.2-.3c-.3-.4-.5-.7-.8-1.1l-.2-.3c-.3-.4-.5-.7-.8-1.1l-.2-.3c-.3-.4-.5-.7-.8-1.1l-.2-.3c-.2-.3-.5-.7-.7-1l-.3-.4c-.3-.4-.5-.8-.8-1.1l-.2-.3c-.3-.4-.5-.7-.8-1.1l-.2-.3c-.2-.3-.5-.7-.7-1l-.3-.4c-.3-.4-.5-.7-.8-1.1l-.2-.3c-.3-.4-.5-.7-.8-1.1l-.2-.3c-.3-.4-.5-.7-.8-1.1-.5-.7-1.1-1.3-1.7-2-.2-.2-.4-.5-.6-.7-6.5-7.6-14.4-12.9-23.2-15.6-.5-.2-1-.3-1.5-.5-.8-.2-1.7-.4-2.5-.6-.9-.2-1.9-.4-2.8-.5-.6-.1-1.3-.2-1.9-.3-1.7-.2-3.3-.3-5.1-.3-1.5 0-3 .1-4.5.2-.5 0-.9.1-1.4.2-1 .1-2 .3-2.9.4-.5.1-1.1.2-1.6.3-.9.2-1.7.4-2.6.7-.5.2-1.1.3-1.6.5-.8.3-1.7.6-2.5.9-.5.2-1 .4-1.5.6-.8.4-1.7.8-2.5 1.2-.4.2-.9.4-1.3.7-1 .6-2 1.2-3 1.8-.2.1-.4.2-.6.4-1.2.8-2.3 1.6-3.4 2.5-.3.3-.7.6-1 .9-.7.6-1.5 1.3-2.2 2-.4.4-.8.8-1.2 1.2-.6.6-1.2 1.3-1.8 2-.4.4-.8.9-1.1 1.3-.6.7-1.1 1.4-1.7 2.1-.4.5-.7 1-1 1.4-.5.8-1.1 1.6-1.6 2.4-.3.5-.6.9-.9 1.4-.6 1-1.1 2-1.7 3.1-.2.3-.4.7-.5 1-.7 1.4-1.3 2.8-1.9 4.3-.2.4-.3.8-.4 1.2-.4.9-.7 1.8-1 2.8.7-3 1.1-6.3 1.1-9.7 0-8.4-2.3-15.7-6.7-21.7-.3-.5-.6-.9-1-1.3l0 0c-.3-.5-.7-.9-1-1.4s-.7-.9-1-1.4-.7-.9-1-1.4c-.3-.4-.6-.9-1-1.4-.3-.5-.7-.9-1-1.4s-.7-.9-1-1.4-.6-.9-1-1.3l0 0c-.3-.5-.6-.9-1-1.3l0 0c-.3-.5-.7-.9-1-1.4s-.6-.9-1-1.3c-.1-.1-.1-.2-.2-.3-7.8-10.3-21.8-15.9-42.5-17.1 0 0 0 0-.1 0-1.3-.1-2.6-.1-4-.2-1.5 0-3-.1-4.5-.1-17.5 0-30.3.6-40.2 1.9-3 .4-5.2 3.1-4.9 6.1.2 2.3.4 4.5.5 6.7 0 .3 0 .5.1.8.5 6.2.9 12 1.3 17.4 0 0-.1-.1-.1-.1-.1-.3-.4-.5-.6-.8-.1-.1-.2-.3-.3-.4-.3-.3-.5-.5-.9-.7-.1-.1-.2-.2-.3-.3-.3-.2-.7-.3-1-.5-.1-.1-.3-.1-.4-.2-.5-.1-1-.2-1.6-.2h-23.9c-1.8 0-3.4.8-4.5 2.2-.3.4-.5.7-.7 1.1-.5 1.2-.6 2.5-.3 3.8.1.4.2 1.5.3 4.4.1 1.8.1 4.2.1 7.6 0 1 0 2-.1 2.9 0 .3 0 .6-.1.9 0 .6-.1 1.2-.2 1.7 0 .3-.1.6-.1.9-.1.5-.1.9-.2 1.4-.1.3-.1.6-.2.8-.1.4-.2.8-.3 1.1-.1.2-.1.5-.2.7-.1.3-.2.7-.4 1-.1.2-.2.4-.2.6-.2.3-.3.6-.5.9-.1.1-.2.3-.2.4-.2.4-.5.7-.8 1.1v0c-.3.3-.5.6-.8.9-.1.1-.2.2-.3.2-.2.2-.4.3-.6.5-.1.1-.2.1-.4.2s-.4.2-.6.3c-.1.1-.2.1-.4.2s-.4.2-.6.2c-.1 0-.2.1-.4.1-.2.1-.4.1-.6.2-.1 0-.2.1-.3.1-.2 0-.4.1-.6.1-.1 0-.2 0-.2 0-.3 0-.6.1-.8.1-.2-1.5-.3-3.1-.3-4.6 0-2.3.1-4.9.7-6.9.4-1.5.2-3.1-.5-4.5-.3-.5-.6-.9-1-1.2 0-.1-.1-.1-.1-.2-.2-.4-.5-.8-.9-1.1 0-.1-.1-.2-.1-.2-.2-.4-.5-.8-.9-1.1 0-.1-.1-.2-.1-.3-.2-.4-.5-.8-.9-1.1 0-.1-.1-.2-.1-.3-.2-.4-.5-.8-.9-1.1 0-.1-.1-.2-.1-.3-.2-.4-.5-.8-.9-1.1 0-.1-.1-.2-.1-.2-.2-.4-.5-.8-.9-1.1 0-.1-.1-.2-.1-.3-.2-.4-.5-.8-.9-1.1 0-.1-.1-.2-.1-.3-.2-.4-.5-.8-.9-1.1 0-.1-.1-.2-.1-.3-.2-.4-.5-.8-.9-1.1 0-.1-.1-.2-.1-.3-.2-.4-.5-.8-.8-1.1 0-.1-.1-.2-.1-.3-.8-1.3-2.1-2.3-3.6-2.7l-23.3-5.5c-.4-.1-.9-.1-1.3-.1-1.1 0-2.1.3-3 .9-.3.2-.7.5-1 .8 0 0 0 0-.1 0-.2-.3-.5-.6-.7-.9-.3-.4-.6-.9-1-1.4-.3-.5-.7-.9-1-1.4s-.7-.9-1-1.4c-.3-.4-.6-.8-.9-1.3l-.1-.1c-.3-.5-.7-.9-1-1.4s-.7-.9-1-1.4c-.3-.4-.6-.9-.9-1.3l-.1-.1c-.3-.5-.7-.9-1-1.4-4.9-7.1-11.1-12.2-18.3-15.3-.1-.1-.3-.1-.4-.2-1-.4-1.9-.8-2.9-1.1-.6-.2-1.3-.4-1.9-.6-1-.3-2.1-.6-3.2-.8-1-.2-2.1-.4-3.2-.6-.5-.1-1-.1-1.5-.2-1.6-.2-3.2-.3-4.8-.3-11.8 0-23.2 6.1-30.4 15.7-6.4-8.5-15.7-14.1-25.8-15.4-1.4-.2-2.9-.3-4.3-.3-26.3 0-43.8 19.1-47.8 50.7-.6 4.5-.9 9.3-.9 14.3 0 38.7 2.3 51.3 15.6 84.7.3.7.7 1.2 1.1 1.7 0 .1.1.1.1.2.3.5.6 1 1 1.4.3.5.6 1 1 1.4.3.5.6 1 1 1.4.3.5.6 1 1 1.4.3.5.6 1 1 1.4.3.5.6 1 1 1.4.3.5.6 1 1 1.4.3.5.6 1 1 1.4.3.5.6 1 1 1.4.3.5.6 1 1 1.4 1 1.9 2.9 3.1 5 3.1.3 0 .7 0 1-.1l29.7-5.5c1.7-.3 3.2-1.4 4-2.9s.9-3.3.2-4.9c-1.9-4.3-3.6-8.7-5.1-13.2l.3.3c.1.3.3.5.5.8.2.2.3.4.5.6.1.3.3.5.5.8.2.2.3.4.5.6.1.3.3.5.5.8.2.2.3.4.5.6.1.3.3.5.5.8.2.2.3.4.5.6.1.3.3.5.5.8.2.2.3.4.5.6.1.3.3.5.5.8.2.2.3.4.5.6.1.3.3.5.5.8.2.2.3.4.5.6.1.3.3.5.5.8 1.1 1.4 2.8 2.3 4.6 2.3h31.6c1 0 2-.3 2.9-.8.1.1.2.3.3.4v.1c.3.5.6.9 1 1.3v.1c.3.5.6.9 1 1.3v.1c.3.5.6.9 1 1.3v.1c.3.5.6.9 1 1.3v.1c.8 1.5 2.3 2.6 4 2.9l29.6 5.5c.3.1.7.1 1 .1 2.3 0 4.4-1.4 5.3-3.5 9.2-22.3 14.1-45.4 15.3-71.8v0l .2.3c.3.4.5.7.8 1.1l.2.3c.2.3.5.7.7 1l .2.3c.3.4.5.7.8 1.1l.2.3c.2.4.5.7.8 1l .2.3c.3.4.5.7.8 1.1l.3.4c.2.4.5.7.8 1 1.6 2.2 3.4 4.3 5.3 6.1 0 2.9-.1 5.7-.1 8.4v2c0 1 0 1.9-.1 2.9 0 .7 0 1.4-.1 2.1 0 .9-.1 1.8-.1 2.7 0 .7-.1 1.4-.1 2.1 0 .8-.1 1.7-.1 2.5s-.1 1.5-.1 2.3-.1 1.5-.1 2.3c0 .9-.1 1.8-.2 2.7 0 .6-.1 1.2-.1 1.8-.1 1.5-.2 3-.3 4.5s.4 3.1 1.4 4.2l.2.2c.2.4.5.8.8 1.2l.2.2c.2.4.5.8.8 1.2l.2.2c.2.4.5.8.8 1.2l.2.2c.2.4.5.8.8 1.2l.2.2c.2.4.5.8.8 1.2l.2.2c.2.4.5.8.8 1.2l.2.2c.2.4.5.8.8 1.2l.2.2c.2.4.5.8.8 1.2l.2.2c.2.4.5.8.8 1.2l.2.2c.2.4.5.8.8 1.2l.2.2c.2.4.5.8.8 1.2 1 1.2 2.5 1.8 4 1.9l24.1.8h.2c1.5 0 2.9-.6 4-1.6 1.1-1.1 1.7-2.5 1.7-4.1 0-2.1 0-4.2-.1-6.3 0-2.1-.1-4.2-.1-6.3 0-10.9.3-21.3.8-32.4 7.5-2.9 13.4-7 17.8-12.3-.7 11.8-1.6 23.9-2.7 35.3 0 .5-.1 1.1-.1 1.6-.1 1.6-.3 3.1-.4 4.7-.2 2-.4 4-.5 6-.1 1.6.4 3.2 1.5 4.3l.2.2c.2.4.5.8.8 1.2l.2.2c.2.4.5.8.8 1.2 0 .1.1.1.2.2.2.4.5.8.8 1.2l.2.2c.2.4.5.8.8 1.2l.2.2c.2.4.5.8.8 1.2l.2.2c.2.4.5.8.8 1.2 0 .1.1.1.2.2.2.4.5.8.8 1.2l.2.2c.2.4.5.8.8 1.2l.2.2c.2.4.5.8.8 1.2l.2.2c.2.4.5.8.8 1.2 0 .1.1.1.2.2.2.4.5.8.8 1.2 1.1 1.2 2.6 1.9 4.2 1.9 47.9 0 83.3-11 100.1-30.6.5 1.5 1 3.1 1.5 4.6 0 .1.1.2.1.3v0c .2.5.4 1 .7 1.4.1.1.2.2.3.3s.2.3.3.4c.3.5.6 1 1 1.4.3.5.6 1 1 1.4.3.5.6 1 1 1.4.3.5.6 1 1 1.4.3.5.6 1 1 1.4.3.5.6 1 1 1.4.3.5.6 1 1 1.4.3.5.6 1 1 1.4.3.5.6 1 1 1.4.3.5.6 1 1 1.4 1 1.9 2.9 3.1 5 3.1.4 0 .9 0 1.3-.1l23.5-5.5c1.6-.4 2.9-1.4 3.7-2.8s.9-3.1.4-4.6l-.3-1c-.8-2.5-1.6-4.8-2.1-7.2 2.8-1.8 5.8-3.6 8.9-5.2v.2c-.1.6-.1 1.2 0 1.9v.2c.1.6.3 1.3.7 1.8.2.4.5.7.8 1 0 0 0 .1.1.1 0 .1.1.2.2.3.2.4.5.8.9 1.1 0 .1.1.2.1.3.2.4.5.8.9 1.1 0 .1.1.2.2.3.2.4.5.8.9 1.1 0 .1.1.2.2.3.2.4.5.8.9 1.1 0 .1.1.2.2.3.2.4.5.8.9 1.1 0 .1.1.2.1.3.2.4.5.8.9 1.1 0 .1.1.2.2.3.2.4.5.8.9 1.1 0 .1.1.2.2.3.2.4.5.8.9 1.1 0 .1.1.2.2.3.2.4.5.8.9 1.1 0 .1.1.2.2.3.2.4.5.8.9 1.1 0 .1.1.2.2.3.8 1.3 2.1 2.3 3.6 2.6l23.5 5.6c.4.1.9.2 1.3.2 2.5 0 4.8-1.7 5.5-4.3 0-.1.1-.2.1-.4.2.4.5.7.7 1l .2.2c.2.4.5.8.8 1.2l.2.2c.2.4.5.8.8 1.2l.2.2c.2.4.5.8.8 1.2l.2.2c.2.4.5.8.8 1.2 1.1 1.2 2.6 1.9 4.2 1.9 55.5 0 89.9-18.7 89.9-48.7 0-6.1-2-11.9-5.7-16.8-.3-.5-.7-.9-1-1.4s-.7-.9-1-1.4-.7-.9-1-1.4-.7-.9-1-1.4-.7-.9-1-1.4-.7-.9-1-1.4-.7-.9-1-1.4-.7-.9-1-1.4c-.3-.4-.5-.8-.8-1.1 1.9-3.2 3.2-7 3.7-11.2 1.6 2.7 3.3 5.3 5.3 7.6 0 .1.1.1.1.2l.2.3c.2.3.5.7.7 1l .2.3c.2.4.5.7.8 1l .2.3c.3.4.5.7.8 1.1l.2.3c.3.4.5.7.8 1l .3.4c.2.3.5.7.7 1l .2.3c.3.4.5.7.8 1.1l.2.3c.2.4.5.7.8 1l .2.3c.3.4.5.7.8 1l .2.3c.3.4.5.7.8 1.1 1.6 2.2 3.4 4.3 5.3 6.1 0 3.2-.1 6.1-.1 9v1.3c0 1.1-.1 2.3-.1 3.4v1.6c0 1.1-.1 2.1-.1 3.1 0 .6 0 1.1-.1 1.7 0 1-.1 1.9-.1 2.9 0 .6-.1 1.2-.1 1.9 0 .9-.1 1.8-.1 2.7 0 .8-.1 1.6-.1 2.4 0 .7-.1 1.4-.1 2-.1 1.5-.2 3-.3 4.5v0l0 0c-.1 1.5.4 3.1 1.4 4.2.1.1.1.1.2.2.2.4.5.8.8 1.2l.2.2c.2.4.5.8.8 1.2.1.1.1.1.2.2.2.4.5.8.8 1.2l.2.2c.2.4.5.8.8 1.2.1.1.1.1.2.2.2.4.5.8.8 1.2l.2.2c.2.4.5.8.8 1.2.1.1.1.1.2.2.2.4.5.8.8 1.2l.2.2c.2.4.5.8.8 1.2.1.1.1.1.2.2.2.4.5.8.8 1.2l.2.2c.2.4.5.8.8 1.2.1.1.1.1.2.2.2.4.5.8.8 1.2 1 1.2 2.5 1.8 4 1.9l24.1.8h.2c1.5 0 2.9-.6 4-1.6 1.1-1.1 1.7-2.5 1.7-4.1 0-2.1 0-4.2-.1-6.3 0-2.1-.1-4.2-.1-6.3 0-10.8.3-21.2.8-32.4 16.4-6.4 25-18.1 27.6-37.4.8 1.1 1.5 2.1 2.3 3.2.1.1.1.2.2.3.3.4.7 1 1.1 1.5l.1.2c.3.4.5.8.8 1.1.3.4.6.9 1 1.4s.7.9 1 1.4c.3.4.7.9 1.1 1.5l.1.2c.3.4.5.8.8 1.1.3.4.6.9 1 1.4s.7.9 1 1.4l.2.2c.2.3.4.6.6.9 5.7 8.1 13.1 14.5 19.6 19.7 1.3 1.1 2.5 2.1 3.7 3-.1.2-.2.3-.2.5-.2.5-.4.9-.7 1.2-.2.2-.4.3-.5.5-.3.3-.7.5-1.1.7-.2.1-.4.2-.6.3-.7.2-1.5.3-2.4.3s-2.1-.2-3.9-1.7c-1-.9-2.3-1.3-3.7-1.3-.2 0-.4 0-.6 0-1.5.1-2.9.9-3.9 2.1l-19 23.4c-1 1.2-1.4 2.7-1.2 4.2.1.6.2 1.1.5 1.6 0 .1.1.2.1.3.2.5.6.9.9 1.3 0 0 0 .1.1.1.3.5.6 1 1 1.4.3.5.6 1 1 1.4.3.5.6 1 1 1.4.3.5.6 1 1 1.4.3.5.6 1 1 1.4.3.5.6 1 1 1.4.3.5.6 1 1 1.4.3.5.6 1 1 1.4.3.5.6 1 1 1.4.3.5.6 1 1 1.4.4.7.9 1.4 1.6 1.9 9.2 7.1 19.2 10.6 29.8 10.6 18 0 33.7-10.4 41.8-25.6.2.2.3.5.5.7.3.5.6 1 1 1.4.3.5.6 1 1 1.4.3.5.6 1 1 1.4.3.5.6 1 1 1.4.3.5.6 1 1 1.4.3.5.6 1 1 1.4.9 1.8 2.8 3.1 5 3.1h24.1c3.1 0 5.7-2.5 5.7-5.7 0-7.6-.1-14.7-.4-21.5 12.4-3.2 22.4-7.9 29.7-14.1 1.5 8.5 3.7 16.9 6.4 24.7.2.5.5 1 .8 1.4.1.1.2.2.3.3s.2.3.3.4c.3.5.6 1 1 1.4.3.5.6 1 1 1.4.3.5.6 1 1 1.4.3.5.6 1 1 1.4.3.5.6 1 1 1.4.3.5.6 1 1 1.4.3.5.6 1 1 1.4.3.5.6 1 1 1.4.3.5.6 1 1 1.4.3.5.6 1 1 1.4 1 1.9 2.9 3.1 5 3.1.4 0 .9 0 1.3-.2l23.5-5.5c1.6-.4 2.9-1.4 3.7-2.8s.9-3.1.4-4.6l-.3-1c-.8-2.5-1.6-4.7-2.1-7.1 2.8-1.8 5.8-3.6 8.9-5.2v.2c-.1.6-.1 1.2 0 1.8v.2c.1.6.3 1.3.7 1.8v0 0c .2.4.5.7.7 1 0 0 0 .1.1.1.1.1.1.2.2.3.2.4.5.8.9 1.1 0 .1.1.2.1.3.2.4.5.8.8 1.1.1.1.1.2.2.3.2.4.5.8.9 1.1 0 .1.1.2.1.3.2.4.5.8.8 1.1.1.1.1.2.2.3.2.4.5.8.9 1.1 0 .1.1.2.1.3.2.4.5.8.8 1.1.1.1.1.2.2.3.2.4.5.8.9 1.1 0 .1.1.2.1.3.2.4.5.8.8 1.1 0 .1.1.2.2.3.2.4.5.8.9 1.1 0 .1.1.2.1.3.2.4.5.8.8 1.1.1.1.1.2.2.3.8 1.3 2.1 2.3 3.6 2.6l23.5 5.6c.4.1.9.2 1.3.2 2.5 0 4.8-1.7 5.5-4.3 9.1-35.1 9.1-46.4 9.1-54.6.1-17.4-5.1-33.2-14.5-45z" fill="#005698"/><path d="m683.9 421.9c0-32-20-57.9-47.3-57.9-27.6 0-45.9 25-45.9 57.9 0 18.3 3.5 36.7 8.8 51.8l23.5-5.5c-1.4-4.1-2.7-7.9-3.2-12.6 11.7-8.5 27-14.7 38.6-16.7-2.9 13.9-5.2 23.8-7 30.5l23.5 5.6c8.9-33.7 9-44.9 9-53.1zm-68.8 9.3c-.3-2.9-.5-5.9-.5-9.2 0-18.9 8.2-33.9 22-33.9 11.5 0 20.8 11.4 22.7 26.5-12 1.6-31.9 8.1-44.2 16.6z" fill="#fff"/><path d="m749.7 411.8c9.2-2.6 13.5-10.8 13.5-20.5 0-17.4-13.2-26.8-41.8-26.8-13.3 0-23.6.5-31.5 1.5 2.3 27.3 3.3 45 3.3 55.3 0 17.7-2 39.4-3.6 57.6 51.5 0 84.2-16.2 84.2-43 0-12.8-10.2-21.7-24.1-24.1zm-27-23.8c9.2 0 13.8 2.7 13.8 8 0 6.7-9.7 13-19.4 14.2-.2-5.3-.8-12.4-2-21.5 2.6-.4 5.1-.7 7.6-.7zm-6.2 65.6c.8-9.7 1.2-17.9 1.2-25 3.5-.6 7-.8 11.1-.8 13.2 0 19.8 2.7 19.8 8 0 7.8-16.8 16.6-32.1 17.8z" fill="#fff"/><path d="m856.8 378.9c0-3.6-.2-7.6-.5-11.7h-23.9c.5 1.7.6 6.2.6 13.5 0 10.9-2.7 23.2-17.3 23.2-9.7 0-15.5-12.9-15.5-25.5 0-3 .2-5.9.9-8.5l-23.3-5.5c-.9 4.2-1.4 8.5-1.4 12.9 0 21.2 11.5 43.3 28.2 47.9.3 1.8.3 3.5.3 5.3 0 16.1-.3 28.9-1.4 43.3l24.1.8c0-4.1-.2-8.3-.2-12.6 0-11.5.3-23.2 1.1-36.5 18.8-6 28.3-18.1 28.3-46.6z" fill="#fff"/><path d="m586.7 426.7c0-15.9-12.7-27.1-30.1-30.1 11.6-3.2 16.9-13.4 16.9-25.6 0-21.8-16.5-33.5-52.3-33.5-16.7 0-29.6.6-39.4 1.9 2.8 34.1 4.2 56.3 4.2 69.1 0 22.2-2.5 49.3-4.5 72 64.3 0 105.2-20.2 105.2-53.8zm-63.8-59.8c11.6 0 17.2 3.4 17.2 10 0 8.3-12.1 16.3-24.2 17.8-.2-6.6-.9-15.5-2.5-26.9 3.3-.5 6.3-.9 9.5-.9zm-7.8 82c .9-12.1 1.5-22.4 1.5-31.3 4.4-.8 8.7-.9 13.8-.9 16.5 0 24.8 3.4 24.8 10 .1 9.7-20.9 20.7-40.1 22.2z" fill="#fff"/><path d="m1023.6 403.9c0-29.5-15.2-41.1-74.8-41.1 4.8 29.8 6.4 70.8 6.4 108.5h24.1c0-8-.2-16.8-.6-25.9 30.2-6.5 44.9-21.3 44.9-41.5zm-46.1 17.3c-.5-9.8-1.1-22-2.7-34.2 14.1 0 24.8 5.5 24.8 13.3.1 10.4-7.4 17.4-22.1 20.9z" fill="#fff"/><path d="m1121.5 421.9c0-32-20-57.9-47.3-57.9-27.6 0-45.9 25-45.9 57.9 0 18.3 3.5 36.7 8.8 51.8l23.5-5.5c-1.4-4.1-2.7-7.9-3.2-12.6 11.7-8.5 27-14.7 38.6-16.7-2.9 13.9-5.1 23.8-7 30.5l23.5 5.6c8.8-33.7 9-44.9 9-53.1zm-68.8 9.3c-.3-2.9-.5-5.9-.5-9.2 0-18.9 8.2-33.9 22-33.9 11.5 0 20.8 11.4 22.7 26.5-12.1 1.6-31.9 8.1-44.2 16.6z" fill="#fff"/><path d="m927.4 409.9c-14.2-12.7-29.2-18.9-29.2-35.6 0-6.6 2.7-9.9 7.8-9.9 2.7 0 4.9 1.1 6.6 3.2l18.4-23.9c-5.1-5.9-15.3-8.3-24.4-8.3-24.2 0-38.3 16.3-38.3 38.8 0 23.3 12.7 36.6 28 48.9 13.1 10.6 17.2 15.2 17.2 19.9 0 7.8-4.9 11.9-11.7 11.9-2.7 0-5.1-.9-7.6-3l-18.8 23.5c8.1 6.3 17.1 9.5 26.3 9.5 23.5 0 41.9-19.7 41.9-43.4 0-10-3.6-20.3-16.2-31.6z" fill="#fff"/><path d="m388.1 394.5c0-36.2-16.1-59.3-42.6-59.3-11.9 0-25.2 8-30.3 21.6-5.5-13.6-18-21.6-30.1-21.6-27.1 0-43 23.1-43 59.3 0 38.8 2.5 50.6 15.2 82.6l29.7-5.5c-9.8-22.7-15-47.5-15-77.1 0-19.5 4.4-29.2 13.1-29.2 10.8 0 17.6 20.8 17.6 58.7 0 18.9-.9 31.8-3.2 39.4h31.6c-2.5-8.5-3.8-22-3.8-40 0-36.6 6.3-58.2 18.2-58.2 8.5 0 12.7 9.7 12.7 29.2 0 29.5-5.1 54.4-14.8 77.1l29.6 5.5c9-22 15.1-47.4 15.1-82.5z" fill="#fff"/><path d="m473.4 378.9c0-3.6-.2-7.6-.5-11.7h-23.9c.5 1.7.6 6.2.6 13.5 0 10.9-2.7 23.2-17.3 23.2-9.7 0-15.5-12.9-15.5-25.5 0-3 .2-5.9.9-8.5l-23.3-5.5c-.9 4.2-1.4 8.5-1.4 12.9 0 21.2 11.5 43.3 28.2 47.9.3 1.8.3 3.5.3 5.3 0 16.1-.3 28.9-1.4 43.3l24.1.8c0-4.1-.2-8.3-.2-12.6 0-11.5.3-23.2 1.1-36.5 18.8-6 28.3-18.1 28.3-46.6z" fill="#fff"/><path d="m718 245.9c0 1 0 1.9.1 2.8-1.8-1.4-3.8-2.7-5.4-4.2-4.4-4.2-8-10.3-11.2-15.4-6.9-10.9-11.7-24.3-15.3-36.6-1-3.6-2-7.5-2.9-11.4 11.9 18.1 32.4 28.4 49.8 41.2.2.1.3.2.5.3 2.9 2.1 5.7 4.3 8.2 7 2.6 2.8 4.7 6.8.4 9.7-2.7 1.8-6.8.8-9.6.3-.3-.1-.5 0-.8 0-2.2-.5-3.9-2.2-6.2-2.5-2.2-.3-4.7.2-6 2.2-1.4 2-1.6 4.1-1.6 6.6z" fill="#6ecde8"/><path d="m704.5 211c14.2 7.1 27.3 15.3 40.2 23.7-.2-1.9-1.4-3.7-2.8-5.3-2.5-2.7-5.3-4.8-8.2-7-.2-.1-.3-.1-.5-.3-17.5-12.8-38-23.1-49.8-41.2.9 3.9 1.9 7.8 2.9 11.4 3.6 12.3 8.4 25.7 15.3 36.6 3.3 5.1 6.9 11.2 11.2 15.4 1.6 1.6 3.6 2.8 5.4 4.2 0-.9 0-1.8-.1-2.8-.1-2.3.2-4.2 1.3-6.2-7.5-8.5-16.5-15.8-14.9-28.5z" fill="#231f20" opacity=".3"/><path d="m602.1 107c24.3-7.7 44 7.1 56.5 26.4-.1.4 0 .8.4 1.2s.7.7 1.1 1.1c.2.4.4.7.6 1.1.3.5.6.7 1 .8 7.2 8.4 11.5 18.8 14.6 29.8 3.4 11.6 5.6 23.7 9.1 34.4s8.7 22.1 14.8 31.6c2.5 3.9 5.3 7.8 8.3 11.3 2.4 2.9 6 4.8 8.7 7.4 2.3 2.6 4.4 5.2 6.5 7.9 1.4 1.7 2.6 3.3 3.7 5.2 2.4 4.4 2.4 13.6-5 14.3-.2 0-.3.1-.5.1-7.6-.7-12-8.6-18-12.7-7.3-4.9-15.3-8.2-22.9-12.6-18.3-10.4-32.2-24.4-45.8-40.1-.1-.1-.2-.2-.4-.3v0c-8.7-10.8-15.8-25-30.8-26.2v0c-.1-.1-.2-.1-.3-.2-.1-20.9-14.7-46-36.4-49 3.8-3 6.5-7.7 9.1-11.6 7-10.5 13.5-16 25.7-19.9z" fill="#6ecde8"/><path d="m564.3 141.1c21.7 2.5 36.5 26.1 36.3 47.3-4.3 3.5-7.9 7.7-11.1 12.1-1.9-10.1-6.8-19.4-13.5-27.3-8.5-10-17.5-16.5-29.6-19.6 1.4-.8 2.7-1.6 4.1-2.5 4.7-3.1 9.2-6.6 13.8-10z" fill="#6ecde8"/><path d="m623.4 116.7c52.8 24.5 47.2 84.9 73.6 130.2 6.4 12.8 18.1 21.3 31.5 27.8 1-3.1.4-7-1-9.4-1-1.9-2.3-3.6-3.7-5.2-2.2-2.7-4.3-5.3-6.5-7.9-2.7-2.6-6.3-4.5-8.7-7.4-2.9-3.5-5.8-7.4-8.3-11.3-6.1-9.5-11.2-20.9-14.8-31.6-3.5-10.7-5.8-22.9-9.1-34.4-3.2-10.9-7.4-21.4-14.6-29.8-.4-.1-.8-.3-1-.8-.2-.4-.4-.7-.6-1.1-.3-.4-.7-.8-1.1-1.1-.4-.4-.5-.8-.4-1.2-12.4-19.3-32.2-34.1-56.5-26.4-12.2 3.9-18.7 9.4-25.6 19.9-2.6 3.9-5.2 8.7-9.1 11.6 2.1.3 4.2.8 6.2 1.5 17-7.6 28.3-32.3 49.7-23.4z" fill="#231f20" opacity=".3"/><path d="m573.6 228.2c4.3-8 8.3-16.2 13.2-23.8-1.6-11-6.8-23.2-14.9-30.9-4.4-4.1-8.9-9-13.9-12.2-4.9-3.1-9.7-4.1-15.1-5.6-4.2 2.5-8.4 5-12.1 8-.1.1-.2.1-.3.2.1.7.1 1.4.2 2.1.9 11.6 4.2 20.6 7.6 31.5 3.3 10.6 6.4 21.5 11.2 31.6 8-1.1 16.1-1.6 24.1-.9z" fill="#fad5c6"/><path d="m526.7 165.9c-.5-5.9-1.4-12.1-1.6-18.3-.3.6-.7 1.1-1.1 1.7-3.7 4.9-8 9.2-12.6 13.3-16.2 14.2-37.4 26.2-59.3 21.2.9 1.9 1.7 3.9 2.5 5.8 4.5 10.5 7.4 21.5 9.6 32.7.7 3.4 1.5 7.4 2.2 11.4h.4 20.8c19.5 2.9 38.9-1.7 58.4-4.2-4.3-10-7.2-20.6-11.1-31-4.3-11.2-7.2-20.9-8.2-32.6z" fill="#fad5c6"/><path d="m468.2 154.7c-8 3-16.2 4.5-24.6 2.2-10-2.8-14.9-13.4-17.7-22.9-1.6-13.9 9.4-28.7 17.4-39s18-18.3 28.4-26.2c6-4.6 14.7-9.7 19.4-15.8 5.8-7.8 10.9-18.3 11.7-28.1 0-.1 0-.2 0-.3s0-.2 0-.3c0-.5-.2-.9-.5-1.2 2-9.8 6.6-17 17.3-19.6 13.5-3.3 10.2 11.7 12.2 20.4-.6.5-1 1.3-.5 2.1 3.8 5.3 10.8 3.9 16.2 1.7 10-4.2 17.4-20 30.4-13.9.5.2.9.2 1.2 0 9.1 3.1 4.4 17.2 1.6 23.2-1.9 4-3.6 6.2-3.3 9.3-.5.4-.8.9-.6 1.6 2.6 7.7 12.3 5.8 18.8 5.3 5.5-.3 12.9 4.4 9 10.8-1.7 2.8-4.3 5.2-6.4 7.7-4.6 5.6-9.6 9.3-16.1 11.9-.4-.2-1-.3-1.5-.1-8.7 4-17 8.4-25 13.1-16.9 9.9-32.7 21.3-48.3 33.9-11.9 9.8-24.5 18.7-39.1 24.2z" fill="#6ecde8"/><path d="m426.3 144c3.7 7.9 9.8 14.3 19.2 16.8 14.1 3.8 30.9-5.2 42.5-12.1 15.2-9.1 28.2-21.5 42.2-32.2 4.2-3.2 8.5-6.2 12.9-9-2.1 2.1-4.1 4.4-6 6.6-3.2 3.8-6 7.9-8.4 12.3-1.6 3-2.5 6.2-3.4 9.4-.8 3.2-1.6 6.5-3 9.5-5.5 11.9-22 23.3-33.1 29.1-12.2 6.4-25.5 9.5-38.9 5.6v0c-2.5-5.2-5.3-10.3-9.1-14.8-3.5-4.2-7.9-7.6-11.1-12.2-1.6-2.6-2.9-5.7-3.8-9z" fill="#6ecde8"/><path d="m163 365.7v47.2c-7.5-1.9-11.3 1.9-15.1 5.7-5.7 11.3-3.8 24.5 3.8 34 22.1 22.1 44.2 13 61.1-4.8-4.1.6-8.4 1.2-12.2 2.5-3.4 1.2-8.2 4.5-12.9 6.5.8.1 1.5.3 2.3.6 1.2.4.7 2.2-.5 2-7.2-1.2-13.9.5-20.2-3-.6-.3-1.2-.7-1.8-1.2-5.2-3.9-8.1-8.7-10.6-14.5-.2-.1-.4-.2-.5-.4-1.1-1.8-1.7-3.8-2.3-5.8-.5-1.8-1.7-4.1-1.5-5.9.2-2 1.6-5.1 4.1-5 2.9.1 4.3 2.3 5.9 4.5 2.1 3 4.4 5.6 6.7 8.4v-48.5-45.9c-13.7-4-28-6.8-41.8-6.6-2.2 4.4-4.3 8.9-6.2 13.4-1.2 2.7-2.5 5.4-3.8 8 13 9.4 30.7 17 45.5 8.8z" fill="#f7b898"/><path d="m223.1 485c5.7-2.1 11.4-2.5 17.4-1.5 3.5.5 7 .8 10.6 1.3 2.9.3 16 2.8 13.9-4.2-2.8-4.4-15-6.5-18.6-7.2-6-1-12.2-1.4-18.3-2-10.5-1-13.6-7.6-21.6-13.4-1-.7-.1-2.3 1-1.7 1.4.8 2.7 1.9 4 3 4.4.8 9.5-.4 13.8-1.9 5.4-1.9 14.4-8.4 7-13.8h-.1c-1.8-.6-4.3 0-7 .9-2.6.8-5.2 1.9-7.3 2.5-.5.1-1 .3-1.4.3-1.1.2-2.3.3-3.5.5-16.9 17.9-39 26.9-61.1 4.8-7.5-9.4-9.4-22.6-3.8-34 3.8-3.8 7.5-7.5 15.1-5.7 0-15.1 0-32.1 0-47.2-14.8 8.2-32.6.6-45.6-9-4 8.2-8.2 16.1-11.1 25.1-5 15.6-9.5 30.8-6.1 47.3 2.8 13.4 8.3 26.2 18.3 35.9 10.5 10.2 23.9 14.2 35.5 22.7 5.3 3.9 10.1 8.4 15.1 12.3 5.3 4.2 11 7.7 17.9 9.4.7.1 1 .6 1.1 1.1 4.5 1 7.2 4.3 10.6 7.8 3.1 3.1 14.5 19.2 20.2 16 2.2-4.7-7.5-11.9-9.6-15.8-1.9-3.5-4.6-7.6-4.4-11.7.1-1.1 1.5-1 1.6 0 0 .2.1.4.1.6 4 1.3 8.2 2.3 11.6 4.9 3.5 2.7 14.2 11.7 21.2 11.7 1.4 0 2.7-.4 3.8-1.3 2.6-3.6-6.4-8.3-8.1-9.5-2.1-1.4-4.3-2.8-6.2-4.5-3.5-3.2-8.2-5.4-11-9.3-.3-.4 0-.8.3-1.1.1-.4.5-.8 1.1-.7 6.3 1.1 12.2 2.5 18.6 3.2 3 .4 22.6 5.1 21.2-3.2-5.3-2.8-10.6-5.1-16.5-6.2-6.2-1.2-11.7-4.4-18.1-5.1-.1 0-.2.1-.4.1-.1.1-.3.1-.5.1h-.1c-1.5.5-1.6-1.1-.6-1.5z" fill="#fad5c6"/><path d="m289.4 222.6c-11.4 2.5-22.3-.7-33.5-1.3-7.8-.4-15.7.2-23.4 2.2-16 4.4-30.4 13.2-42.7 24.2-23.3 20.8-41.2 47.3-55.8 74.7-2.2 4.2-4.4 8.5-6.5 12.8 13.8-.2 28 2.6 41.8 6.6v-46l51.7-50.5h46c .4-5.3 1.6-9.9 5.5-9.9 19.7-2.5 40.3-10.6 51.6-25.4-11.6 4.2-22.8 10-34.7 12.6z" fill="#f7b898"/><path d="m393.2 252.5c-19.3-20.6-42.1-14-64.9-7.1h36.6c-.4-.4-.8-.8-1.1-1.2-1.3-1.5.8-3.7 2.2-2.2 1.3 1.3 2.7 2.4 4.2 3.5 4.1 2.9 8.9 5.3 12.4 8.9 5.4 5.6 10.1 11.1 13.8 18 3 5.6 1.2 13.1-.7 18.7-2.3 6.8-4.5 12.3-5.1 19.1 12.6-17.6 21.2-37.6 2.6-57.7z" fill="#f7b898"/><path d="m474.8 311c-.5-.4-.8-.9-1.2-1.3-.5-.4-.9-.7-1.3-1.1-1.5-1.5-3.1-3.1-4.9-4.4-3.5-2.8-6.9-5.8-10.5-8.5-3.9-2.9-7-7.2-8.4-11.9-.4-.1-.6-.5-.7-1-1.5-9.7-10.3-15-16.3-21.9-3.9-4.5-7-9.7-10.6-14.4-.3-.3-.5-.7-.8-1-10.9-14.1-21.1-26.2-37.5-34.2-4.2-2-8.9-5.7-13.5-6.5-5-.8-10.8-1.3-15.9-1.4-8.4-.1-17.2 2.9-25.1 5.4-1.4.4-2.7.9-4.1 1.4-11.3 14.8-31.9 22.9-51.6 25.4-3.9 0-5.1 4.6-5.5 9.9h61.4c22.7-6.9 45.6-13.5 64.9 7.1 18.6 20.1 10 40.1-2.6 57.7-.1 1.1-.2 2.3-.2 3.5v.1c0 3.5.1 7.1-.4 10.6-.4 2.8-4.5 13.2 1.6 12.5 6-.7 6.9-6.1 7.4-11.1.4-3.6 1-7.1 1.8-10.7-1.7-2-3.1-4.1-3.3-6.8-.1-1.6 2.4-1.9 2.7-.4 1.1 4.6 5.6 6.8 8.2 10.2 2.1 2.7 3.5 6.1 5.1 9 2.8 4.8 2.6 11.1 4 16.4 1.6 6.2 3.6 12.1 6.8 17.6 0 .1 0 .1.1.2 7.2 6.9 4.8-6.8 3.5-10.6-1-2.9-2.1-5.9-2.5-8.9-.7-6.4-.8-12.3 1.4-18.3.6-1.7 3.2-1 2.7.7-.3.8-.5 1.7-.7 2.6 5.2 4.9 10.8 30.5 15.7 28.9 5.7-13.6-7.5-25.3-4.2-38.9.4-1.5 2.8-1.2 2.7.4-.1.5-.1 1-.1 1.5.1.1.2.1.2.2 4.3 2.8 6.9 6.6 10.6 10.2 2.6 2.5 7.6 11.2 11.9 11.2.1 0 .1-.1.2-.1 4.5-1.5-3.6-9.6-4.5-11.2-1.6-2.8-3.1-5.6-4.8-8.3-3.2-5.1-6.3-10.1-8.7-15.6-.8-1.7 1.7-3.3 2.6-1.5.4.8.8 1.6 1.2 2.4 4.2.2 7 2 10.6 4.8 2.5 2 6.1 4.8 9.2 5.6 4.2 1.1 6.4-2.5 3.4-5.5z" fill="#fad5c6"/><path d="m154 487.7c5.3 3.9 10.1 8.4 15.1 12.3 5.3 4.2 11 7.7 17.9 9.4.7.1 1 .6 1.1 1.1 4.5 1 7.2 4.3 10.6 7.8 3.1 3.1 14.5 19.2 20.2 16 2.2-4.7-7.5-11.9-9.6-15.8-1.9-3.5-4.6-7.6-4.4-11.7.1-1.1 1.5-1 1.6 0 0 .2.1.4.1.6 4 1.3 8.2 2.3 11.6 4.9 3.5 2.7 14.2 11.7 21.2 11.7 1.4 0 2.7-.4 3.8-1.3 2.6-3.6-6.4-8.3-8.1-9.5-2.1-1.4-4.3-2.8-6.2-4.5-3.5-3.2-8.2-5.4-11-9.3-.3-.4 0-.8.3-1.1.1-.4.5-.8 1.1-.7 6.3 1.1 12.2 2.5 18.6 3.2 3 .4 22.6 5.1 21.2-3.2-5.3-2.8-10.6-5.1-16.5-6.2-6.2-1.2-11.7-4.4-18.1-5.1-.1 0-.2.1-.4.1-.1.1-.3.1-.5.1h-.1c-1.2 0-1.3-1.6-.3-1.9 5.7-2.1 11.4-2.5 17.4-1.5 3.5.5 7 .8 10.6 1.3 2.9.3 16 2.8 13.9-4.2-2.8-4.4-15-6.5-18.6-7.2-6-1-12.2-1.4-18.3-2-10.5-1-13.6-7.6-21.6-13.4-1-.7-.1-2.3 1-1.7 1.4.8 2.7 1.9 4 3 4.4.8 9.5-.4 13.8-1.9 5.4-1.9 14.4-8.4 7-13.8h-.1c-1.8-.6-4.3 0-7 .9l-.2-.8c.5-.1 1.1-.3 1.6-.5 1.6-.5 3.4-1.4 5.2-1.3.2-.2.6-.3.9-.1 5 3 5.2 9.5.6 13.2-3.1 2.6-6.4 4.1-10.3 4.9-3.2.7-6 1.7-9.1 1.4 3.6 3.3 7.1 6.7 12 7.5 7.1 1.1 14.4 1.1 21.4 2.5 3.6.7 23.2 4.1 20.5 11.1 0 .1-.1.1-.1.2 0 4-4.2 5.7-9 5.4-9.8-.7-19.3-3.7-28.9-2.3 5.2 1.1 10.1 3 15.2 4.9 4.3 1.5 11.4 1.9 14.5 5.9.2 0 .4 0 .5.2 2.5 4.2-2.2 9.2-6.7 8.8-10.9-.8-21.5-2.8-32.1-5.2 6.5 4.9 12.8 10.2 19.9 14.2 3.1 1.8 7.1 7 3.8 9.8-2.5 5.2-10.6.8-14-.9-4.6-2.4-7.9-4.8-11.9-8-3.6-2.9-7.7-3.9-11.6-5.9 1.2 4.4 4 9.5 6.8 12.5 1.8 2 4.2 3.6 5.7 5.9 1.4 2.1 3 5.5.9 7.1.1.3 0 .6-.2.9-3.7 4.6-11.5-3.3-14.1-5.9-6.4-6.4-11.5-12.5-18.8-17.6-.3.2-.7.3-1.2.2-6.6-1.5-11.9-4.5-17-8.2-3.2-2.3-6.4-4.9-9.7-7.6-9.9-8-21.3-12.1-31.7-19.1-17.9-11.8-28.3-29.5-31.8-50.4-1.9-11.3-.6-22.5 2.7-33.4 3.1-10.2 5.9-21.1 10.6-30.7 3.1-6.1 6.6-11.3 9.4-17.6 10.1-22.8 22.4-44.9 37.2-65 17.5-23.9 39.8-48.2 68.6-58.1 7-2.5 14.4-4.2 21.9-4.6 9.1-.5 17.7 2 26.8 2.1 26.8.2 49.9-16.1 76.3-20.1 11.7-1.7 22.1 2.1 32.2 7.1 10.8 5.3 19.8 10.6 27.7 20 4.2 5 8.3 10 12.3 15.2.8 1.1 1.7 2.2 2.5 3.4 3.1 4.5 6 9.4 9.8 13.1 6.8 6.6 15.5 13.5 17 23.4 0 .3 0 .6-.1.9 2.9 7.3 8.8 12.9 15.2 17.6 3.6 2.7 6.7 5.6 9.9 8.7 1.1 1.1 2.1 2.2 2.4 3.5.3.8.5 1.5.3 2.3-.5 2.2-2.5 3.9-4.9 3.8-8.1-.5-13.6-8.1-21.1-10.5 4.2 8.3 9.3 16.5 14.9 23.8 2.6 3.4 5.2 8.8.2 10.5-.2.2-.4.4-.7.5-4.1 1.5-7.8-2.7-10.1-5.6-2.4-3.1-5.4-5.6-7.9-8.6-2-2.3-3.7-4.3-5.9-6.1 1.7 11.2 9.9 23.5 3.8 33.8.1.4 0 .9-.3 1.2-6.9 7.5-14.6-17.6-18.6-26.5-.6 6.3.5 12.7 2.7 18.8 1.3 3.6 3.2 9 1.8 12.9-2.3 6-6.6 4.4-10.1.3-.3-.1-.5-.3-.7-.6-7-12.3-7.2-26.5-13.5-39-1.1-2.2-2.9-4.1-4.8-5.9-1.3 8.9-1.4 21.8-12.8 21.8-4.3 0-5.6-4.1-5.2-7.7.3-3.1 1.8-6 2-9.1.2-2.8.4-5.6.6-8.4v-.1c-.1-6.3.2-12.8 2.6-18.8 3.5-8.5 5.3-18.5-.1-26.9-4.1-6.4-9.5-12-15.9-16.2-3.2-2.2-6.9-4.2-9.7-7-.4-.4-.8-.8-1.1-1.2-1.3-1.5.8-3.7 2.2-2.2 1.3 1.3 2.7 2.4 4.2 3.5 4.1 2.9 8.9 5.3 12.4 8.9 5.4 5.6 10.1 11.1 13.8 18 3 5.6 1.2 13.1-.7 18.7-2.7 8-5.1 14.1-5.4 22.6v.1c0 3.5.1 7.1-.4 10.6-.4 2.8-4.5 13.2 1.6 12.5 6-.7 6.9-6.1 7.4-11.1.4-3.6 1-7.1 1.8-10.7-1.7-2-3.1-4.1-3.3-6.8-.1-1.6 2.4-1.9 2.7-.4 1.1 4.6 5.6 6.8 8.2 10.2 2.1 2.7 3.5 6.1 5.1 9 2.8 4.8 2.6 11.1 4 16.4 1.6 6.2 3.6 12.1 6.8 17.6 0 .1 0 .1.1.2 7.2 6.9 4.8-6.8 3.5-10.6-1-2.9-2.1-5.9-2.5-8.9-.7-6.4-.8-12.3 1.4-18.3.6-1.7 3.2-1 2.7.7-.3.8-.5 1.7-.7 2.6 5.2 4.9 10.8 30.5 15.7 28.9 5.7-13.6-7.5-25.3-4.2-38.9.4-1.5 2.8-1.2 2.7.4-.1.5-.1 1-.1 1.5.1.1.2.1.2.2 4.3 2.8 6.9 6.6 10.6 10.2 2.6 2.5 7.6 11.2 11.9 11.2.1 0 .1-.1.2-.1 4.5-1.5-3.6-9.6-4.5-11.2-1.6-2.8-3.1-5.6-4.8-8.3-3.2-5.1-6.3-10.1-8.7-15.6-.8-1.7 1.7-3.3 2.6-1.5.4.8.8 1.6 1.2 2.4 4.2.2 7 2 10.6 4.8 2.5 2 6.1 4.8 9.2 5.6 4.3 1.1 6.5-2.4 3.4-5.5-.5-.4-.8-.9-1.2-1.3-.5-.4-.9-.7-1.3-1.1-1.5-1.5-3.1-3.1-4.9-4.4-3.5-2.8-6.9-5.8-10.5-8.5-3.9-2.9-7-7.2-8.4-11.9-.4-.1-.6-.5-.7-1-1.5-9.7-10.3-15-16.3-21.9-3.9-4.5-7-9.7-10.6-14.4-.3-.3-.5-.7-.8-1-10.9-14.1-21.1-26.2-37.5-34.2-4.2-2-8.9-5.7-13.5-6.5-5-.8-10.8-1.3-15.9-1.4-8.4-.1-17.2 2.9-25.1 5.4-13 4-25.5 11-38.8 13.9-11.4 2.5-22.3-.7-33.5-1.3-7.8-.4-15.7.2-23.4 2.2-16 4.4-30.4 13.2-42.7 24.2-23.3 20.8-41.2 47.3-55.8 74.7-4.6 8.6-8.9 17.3-12.8 26.2-4.9 11.2-11.1 21.3-14.9 33.2-5 15.6-9.5 30.8-6.1 47.3 2.8 13.4 8.3 26.2 18.3 35.9 10.2 10.6 23.7 14.6 35.2 23z" fill="#41130c"/><path d="m244.2 216c-5.7-37.7-20.8-71.7-39.6-105.6-12.6-23.3-62.6-22.8-64.3-51.8-11.5-2-20.2-1.8-23.1-1.6.4 3.5-3.8 10.4-24.2 22.6-11 6.6-17.8 6.1-26.4 6.5-5.6.3-9.6 6-15.1 8-20 24.2-39 55.3-29.9 89.9 7.5 20.8 34 39.6 34 47.2 6.4 62.6 52.5 99.3 102.1 122.8 15.5-1.8 30.1-8.2 43.2-16.6 4.1-2.6 8.1-5.4 12.1-8.4 3.5-5.3 7.1-10.8 10.5-16.7 15-28.3 24.4-62.3 20.7-96.3z" fill="#fad5c6"/><path d="m238.3 158.5c-2.9-1.7-5.3-4.4-6.6-8.1-.5-1.4 1.5-1.9 2.2-.9 1.7 2.4 3.6 4.5 5.8 6.5 6.2 3.7 11.3 2 15.4-5.2.9-4.9.1-10.2-1.2-14.9-2.2-8.1-6.8-14-11-20.9-.2-.1-.4-.2-.6-.5-3.6-6-9.8-10.7-17.2-8.4-3.7 1.1-6.4 3.2-6.9 6.5 1.2 3.5 2.3 7.1 3.4 10.7.3.2.5.6.5 1.1v.6c0 1.8-2.6 2.1-3.1.4-.6-1.9-1.2-3.9-1.8-5.9-.1-.2-.3-1-.7-2-20.2-41.5-53.6-54.8-76.3-58.8 1.7 29 51.7 28.5 64.2 51.8 18.9 34 34 67.9 39.6 105.6 3.8 34-5.7 67.9-20.8 96.2-3.4 5.8-7.1 11.3-10.5 16.7 23.2-17.6 43.3-41.8 47.3-71.2 4.8-34.6-9.4-67.7-21.7-99.3z" fill="#f7b898"/><path d="m55.5 231.1c0-7.5-26.4-26.4-34-47.2-9.1-34.6 9.9-65.7 29.9-89.9-8.1 3-16.5 9.9-26.5 26.5-21.9 36.1-1.7 85-.1 88.8 5.8 8.1 11.9 14.4 14.3 17.1 6.2 6.9 16.1 14.3 16 24.5 0 .5-.3.8-.7.8 4.4 15.1 7.1 30.2 15.1 44.3 8.2 14.7 19.2 28.2 32.4 38.8 14.4 11.5 32.7 20.6 51.7 19.4 1.3-.1 2.7-.2 4-.4-49.6-23.4-95.7-60-102.1-122.7z" fill="#f9e7e6"/><path d="m224.8 443.6c-4.4 1.3-9 2.3-13.6 3-5.9.9-11.3 1.3-16.8 3.7-3.9 1.6-9.2 5.6-13.7 5.9-3 0-6.1-.2-9.1-1.5-.9-.4-1.7-.8-2.4-1.4-4.9-3.3-7.8-9.3-10.8-14.2-.8-2.6-1.8-5.2-2.5-7.8-.1-.4-.2-.8-.3-1.2-.9-1.8.2-3 3.1-3.5 1.1.9 1.8 2.4 2.6 3.5 2.5 3.5 4.6 7.4 7.9 10.2v-4.1c-2.3-2.7-4.6-5.4-6.7-8.4-1.5-2.2-3-4.4-5.9-4.5-2.5-.1-3.9 3-4.1 5-.2 1.9 1 4.2 1.5 5.9.6 2 1.2 4 2.3 5.8.1.2.3.3.5.4 2.4 5.7 5.4 10.5 10.6 14.5.6.5 1.2.8 1.8 1.2 6.3 3.6 13.1 1.8 20.2 3 1.3.2 1.8-1.5.5-2-.8-.3-1.5-.5-2.3-.6 4.7-2 9.5-5.3 12.9-6.5 4.9-1.7 10.6-2.2 15.7-3 2.2-.3 5.5-1.8 8.7-2.8z" fill="#41130c"/><path d="m123.3 236.5c0 15.4-12.1 23.8-26.4 23-9.5-4.4-15.8-15.8-18.6-25.2-1.7-5.5-1.4-11.8-.9-17.5.7-7.3 4.1-10.8 8.4-15.3 1.5-.5 3.2-.8 5-1 5.8-.6 11.8 3.5 16.7 6.2 11.3 6.2 15.8 17.3 15.8 29.8z" fill="#fff"/><path d="m204.4 166.6c4.8 8.1 5.5 21.8 3 30.8-3 2.7-5.8 5.5-8.8 8.3-8.1 7.5-17.1 5.2-25.3-1.2-9-7-13.3-19.4-13.4-30.5-.1-10.8 6-18.8 14.4-23.4 12.2.4 23.6 5.1 30.1 16z" fill="#fff"/><path d="m184.4 326.1c.1-4.3.2-8.3 2.5-12.2 2.4-4.1 6.8-6 11.2-6.4-.2 1.1-.2 2.2 0 3.4.2.9 1.7.9 1.8 0 .8-4.1 1.9-7.1 5.1-10 2.9-2.6 7.5-4.5 11.5-3.9-3.7 11.6-13.2 21.1-23.8 26.7-2.8 1.3-5.6 2.2-8.3 2.4z" fill="#f49497"/><path d="m181.9 288.4c-8.1 11.3-6.5 23.9-4.7 36.8 1.7.6 3.4.9 5.2.9-.5-10.8 4.7-20 16.3-20.8 1.1-2.8 3.3-5.4 5.7-7.1 3.3-2.4 8.6-4.8 12.8-3.5.7-2.8 1.1-5.8 1-8.8 0-1.4-.1-2.7-.2-4.1-12-4.1-26.6-1.7-36.1 6.6z" fill="#451512"/><path d="m174 278.4c-12.6 7.3-27.5 12.8-42.1 15.2 2.5 2.7 5.1 4.5 9 5.6 5.6 1.6 10.6 3.1 15.5 6.4 5 3.5 7.5 9.1 11.6 13.4 2.7 2.9 5.8 5 9.2 6.1-1.8-12.9-3.4-25.5 4.7-36.8 9.5-8.3 24.1-10.6 36.1-6.6-.9-12.7-4.5-24.6-8.2-36.6-8 14.1-21.6 25.1-35.8 33.3z" fill="#710f11"/><path d="m241.5 128.2c-2.6-4.4-8-12.1-13.9-8.4-1.3.8-2.6-1-1.6-2.1 8.1-8.8 17.1 7.4 20.7 13.1 2.2 3.4 5 9.4 2.6 13.4-1.7 2.9-4.4 3.6-7.2 2.2-.7-.4-.6-1.7.2-1.8 3.1-.5 4.2-2.1 4.3-4-.1-1.1-.3-2.1-.8-3.3-.6-1.4-1.3-2.8-2.3-4.1-3-3.9-7.5-4.7-11.8-2.3-1.1.6-2.1-1-1-1.7 3.3-2.3 7.4-2.6 10.8-1z" fill="#41130c"/><path d="m151.8 132.1c8.2-5.4 20.4-7.4 30.2-4.3-4.9.4-10.2 2.7-14.1 4.3-4 1.7-9.2 4.2-11.8 7.9 1.2-1.6-2.3-5.8-4.3-7.9z" fill="#f6921e"/><path d="m151.8 132.1c1.9 2.1 5.4 6.3 4.3 8 2.6-3.7 7.8-6.3 11.8-7.9 3.8-1.6 9.1-3.9 14.1-4.3-9.8-3.1-21.9-1.2-30.2 4.2zm-2-1.1c11.3-8.8 29.9-10.4 41-.8.9.8-.4 2.3-1.3 1.6-.2-.2-.5-.3-.7-.5-6.6-2-13.7 0-19.8 2.9-3 1.4-7.2 3.1-9.4 5.6-1.3 1.5-1.4 2.1-2.7 3-.6.4-1.5.4-1.9-.3-1.8-3.4-3.4-6.8-5.4-10.2l0 0c-.3-.5-.3-.9.2-1.3z" fill="#41130c"/><path d="m189 214.3c-10.9 1.7-22.3-9.2-26.8-17.9-12-23-3-49.1 24.6-52 1.1-.1 1.3 1.7.3 1.9-2.8.5-5.5 1.2-8.1 2.2 11.2.5 23.1 6.2 28.1 16.7 3.8 7.9 6.6 19.4 4.8 28.8 4.5-2.9 10-4 15.2-3.8 1.6.1 2.2 2.8.4 3-10.6 1.5-16.5 5.9-24.2 13.1-4.4 3.8-8.2 7-14.3 8zm-29.1-40.3c.1 11.1 4.4 23.5 13.4 30.5 8.1 6.3 17.1 8.7 25.3 1.2 3-2.8 5.8-5.6 8.8-8.3 2.5-9 1.8-22.8-3-30.8-6.5-10.9-17.9-15.6-30.1-16-8.4 4.7-14.5 12.6-14.4 23.4z" fill="#41130c"/><path d="m160.4 241.4c2.5 1.4 7.3 3.5 6.9 6.9-.1.7-.8 1.4-1.6.9-2.2-1.4-3.6-3.6-6-4.9-2.9-1.6-6-2.4-9-3.8-4.2-1.9-3.1 6.7-2.9 8.8.3 2.7 1.5 5.1 1.8 7.7.1.5-.7 1-1.1.6-3.4-2.3-3.4-8.2-3.4-12 0-2.8-.4-7.5 3.2-8.5 1.7-.5 4.5 1.1 6 1.6 2.1.8 4.1 1.6 6.1 2.7z" fill="#41130c"/><path d="m198.1 307.4c-4.5.5-8.9 2.3-11.2 6.4-2.3 3.9-2.4 8-2.5 12.2 2.7-.2 5.5-1 8.3-2.5 10.6-5.6 20.1-15.1 23.8-26.7-4-.6-8.6 1.3-11.5 3.9-3.2 2.9-4.3 5.9-5.1 10-.2.9-1.7.9-1.8 0-.2-1-.1-2.2 0-3.3zm-41.7-1.7c5 3.5 7.5 9.1 11.6 13.4 4.1 4.4 9.1 6.9 14.4 7-.5-10.8 4.7-20 16.3-20.8 1.1-2.8 3.3-5.4 5.7-7.1 3.3-2.4 8.6-4.8 12.8-3.5.7-2.8 1.1-5.8 1-8.8-.3-14.2-4.3-27.3-8.4-40.7-8 14-21.6 25-35.7 33.3-12.6 7.3-27.5 12.8-42.1 15.2 2.5 2.7 5.1 4.5 9 5.6 5.6 1.5 10.6 3 15.4 6.4zm-46.5-16.7c6.9 5.8 17.4 3.3 25.1 1.4 13-3.2 26.3-6.9 37.7-14 10.9-6.8 19.9-15.7 27.5-26 7.4-10 8.8-20.4 12.4-31.6-1.7.5-3.4 1.2-5.1 2.1-.9.5-1.7-.8-.8-1.4 4-2.6 7.2-5 12.2-5.6 3.6-.5 9.2-1.8 11.5 1.8.5.7 0 1.5-.7 1.8-3.2 1.2-7.3 0-10.7.2-.7 0-1.4.1-2.1.2.2 8.7-1.8 16.7-5.3 23.9 11 28.1 17.2 66.5-14.6 83.6-10.6 5.7-23.2 6.7-31.6-3.5-3-3.6-5.6-7.9-9.3-10.8-4.9-3.9-10.5-5.4-16.3-7.5-1.8-.7-4.6-2.1-6.1-3.6-.4-.4-4.6-5.9-4.1-5.8h-.1c-.2 0-.4.1-.6.1-5.3.7-10.5 1.2-15.8.1-4.2-.9-7.9-5.2-11.8-7.9-1.9 4.2-2.4 9.5-1.4 13.9.2.9-1.1 1.5-1.5.6-3.3-6.6-3.6-14.1 1.1-20 1.5-1.9 4.8.6 3.4 2.6-.2.2-.3.5-.4.7 2.8 1 4.9 2.6 7.4 4.7z" fill="#41130c"/><path d="m78.3 234.3c2.9 9.4 9.1 20.8 18.6 25.2 14.3.8 26.4-7.6 26.4-23 0-12.5-4.5-23.6-15.8-29.8-4.9-2.7-10.9-6.8-16.7-6.2-1.8.2-3.4.5-5 1-4.3 4.5-7.8 8.1-8.4 15.3-.5 5.7-.8 11.9.9 17.5zm-3.8-5.1c-1-5.8-.9-15.5 2.5-22.3-1.4 1.3-2.6 2.8-3.8 4.5-.7 1-2.1.2-1.6-.9 11-25.6 47.5-8.4 53.2 12.4 3 11 3.3 25.8-6.6 33.6-4.6 3.7-9.9 6.3-15.9 6.4-5.9.2-11.9.4-17 3.7-2.9 1.9-5.5 4.1-8.4 5.8-2 1.2-4.1-1.5-2.5-3.2 4.5-4.6 10.2-8.5 16.6-9.5-9.4-6.6-14.8-20.8-16.5-30.5z" fill="#41130c"/><path d="m78 171.7c6.1 4.1 6.4 11.5-1.2 14.5-3.6 1.4-7.4 3-10.6 5.2-3.6 2.5-6.6 5.1-8.7 8.4 2.4-12.4 7.8-24.9 20.5-28.1z" fill="#f6921e"/><path d="m76.7 186.1c7.6-2.9 7.4-10.3 1.2-14.5-12.7 3.3-18 15.7-20.5 28 2.1-3.3 5.2-5.9 8.7-8.4 3.3-2.1 7-3.7 10.6-5.1zm3.2-16.3c4.7 1.4 8 9.5 5.4 13.7-2.4 3.8-6.1 4.5-10.1 6.3-9.2 4.1-14.6 9.1-19 18.1v.3c-.2 1.3-2.3 1.5-2.4.1-.7-16.2 6.1-37.9 25-39.1.5 0 .9.3 1.1.6z" fill="#41130c"/><defs><linearGradient id="SVGID_4_" gradientUnits="userSpaceOnUse" x1="684.5859" x2="684.5859" y1="358.6099" y2="251.0947"><stop offset="0" stop-color="#fff"/><stop offset=".9" stop-color="#fff" stop-opacity="0"/></linearGradient><linearGradient id="SVGID_6_" gradientUnits="userSpaceOnUse" x1="684.5859" x2="684.5859" y1="558.1263" y2="387.996"><stop offset=".0181818" stop-color="#fff" stop-opacity="0"/><stop offset=".7818" stop-color="#fff"/></linearGradient><clipPath id="SVGID_7_"><path id="SVGID_2_" d="m123.3 236.5c0 15.4-12.1 23.8-26.4 23-9.5-4.4-15.8-15.8-18.6-25.2-1.7-5.5-1.4-11.8-.9-17.5.7-7.3 4.1-10.8 8.4-15.3 1.5-.5 3.2-.8 5-1 5.8-.6 11.8 3.5 16.7 6.2 11.3 6.2 15.8 17.3 15.8 29.8z"/></clipPath><clipPath id="SVGID_8_"><path id="SVGID_1_" d="m204.4 166.6c4.8 8.1 5.5 21.8 3 30.8-3 2.7-5.8 5.5-8.8 8.3-8.1 7.5-17.1 5.2-25.3-1.2-9-7-13.3-19.4-13.4-30.5-.1-10.8 6-18.8 14.4-23.4 12.2.4 23.6 5.1 30.1 16z"/></clipPath></defs><g clip-path="url(#SVGID_7_)"><path d="m129.9 240.2c0 11.9-9.7 21.6-21.6 21.6s-21.6-9.7-21.6-21.6 9.7-21.6 21.6-21.6c12 .1 21.6 9.7 21.6 21.6z" fill="#234088"/><path d="m127.5 240.2c0 10.6-8.6 19.2-19.2 19.2s-19.2-8.6-19.2-19.2 8.6-19.2 19.2-19.2 19.2 8.6 19.2 19.2z" fill="#6693cc"/><path d="m121.6 240.2c0 7.3-5.9 13.3-13.3 13.3-7.3 0-13.3-5.9-13.3-13.3 0-7.3 5.9-13.3 13.3-13.3 7.4.1 13.3 6 13.3 13.3z" fill="#000f24"/><circle cx="97.1" cy="230.4" fill="#fff" r="5.6"/></g><g clip-path="url(#SVGID_8_)"><path d="m215 182.9c3.3 11.5-3.4 23.4-14.8 26.6-11.5 3.3-23.4-3.4-26.6-14.8-3.3-11.5 3.4-23.4 14.8-26.6 11.4-3.3 23.4 3.4 26.6 14.8z" fill="#234088"/><path d="m212.7 183.6c2.9 10.2-3 20.8-13.2 23.7s-20.8-3-23.7-13.2 3-20.8 13.2-23.7 20.8 3 23.7 13.2z" fill="#6693cc"/><path d="m207 185.2c2 7-2.1 14.4-9.1 16.4s-14.4-2.1-16.4-9.1 2.1-14.4 9.1-16.4c7.1-2 14.4 2 16.4 9.1z" fill="#000f24"/><circle cx="180.8" cy="182.5" fill="#fff" r="5.6"/></g><g fill="#231f20"><path d="m528.8 126.4c2.4-4.4 5.1-8.5 8.4-12.3 1.9-2.2 3.9-4.5 6-6.6-4.4 2.8-8.8 5.8-12.9 9-14 10.7-27 23.1-42.2 32.2-11.6 6.9-28.4 16-42.5 12.1-9.3-2.6-15.4-8.9-19.2-16.8.9 3.3 2.2 6.5 3.9 9.1 3.1 4.6 7.5 8 11.1 12.2 1.4 1.7 2.6 3.5 3.8 5.3 22.8 4.2 42.3-17.2 63.1-23.6 4.6-1.5 9.6-2.4 14.5-2.3 1.2-2.8 2-5.8 2.7-8.8.8-3.4 1.7-6.6 3.3-9.5z" opacity=".3"/><path d="m564.3 141.1c-4.6 3.4-9.1 6.9-13.9 10-1.3.8-2.7 1.7-4.1 2.5 1.9.5 3.7 1.1 5.4 1.8 4.7-4.5 10.4-7.3 16.9-4.7 16 7.1 20.3 26 30.2 39.2.6-.5 1.1-1 1.7-1.5.3-21.2-14.5-44.8-36.2-47.3z" opacity=".3"/><path d="m449.8 146.9c-15.1-5.7-24.5-17-13.2-32.1 26.4-35.8 81.1-49 75.5-100 0 0 5.7-3.8 7.5-1.9 1.9 15.1 9.4 30.2 26.4 24.5 15.1-5.7 20.8-28.3 37.7-18.9.1 0 .2 0 .2.1-.7-2.2-2.1-4-4.7-4.9-.3.2-.8.2-1.2 0-13-6.1-20.3 9.8-30.4 13.9-5.4 2.2-12.4 3.6-16.2-1.7-.5-.8-.2-1.6.5-2.1-2-8.7 1.3-23.7-12.2-20.4-10.8 2.6-15.3 9.8-17.3 19.6.3.2.5.6.5 1.2v.3.3c-.9 9.9-5.9 20.5-11.8 28.2-4.6 6.1-13.3 11.2-19.4 15.8-10.3 7.9-20.3 15.8-28.4 26.2-8 10.3-19 25.1-17.4 39 2.7 9.5 7.6 20.1 17.7 22.9 8.4 2.3 16.6.8 24.6-2.2 14.6-5.5 27.2-14.4 39.2-24.1 8.3-6.7 16.7-13.1 25.3-19.1-18.6 5.8-35.3 20.4-52.7 31.6-9.5 5.7-20.8 5.7-30.2 3.8z" opacity=".3"/></g><path d="m436 164.5c3.9 4.2 6.9 8.9 9.7 13.9.7 1.3 1.4 2.6 2.1 3.9 4.6 9 8 19.1 10.2 28.8 1.7 7.2 3.4 14.5 4.3 21.8.4 3.6 1.3 8.4 1.2 12.6h3.7c.4-7.5-1.7-16.5-3-23.2-2.2-11.2-5-22.2-9.6-32.7-.8-1.9-1.7-3.9-2.5-5.8 22 5 43.2-6.9 59.3-21.2 4.6-4.1 8.9-8.4 12.6-13.3.4-.5.8-1.1 1.1-1.7.2 6.1 1.1 12.3 1.6 18.3 1 11.7 3.8 21.5 8.1 32.5 6.2 16.3 9.8 33.1 20.2 47.1h4.6c-11.2-13.8-16.2-31.3-21.3-48-3.4-10.9-6.7-19.9-7.6-31.5-.1-.7-.1-1.4-.2-2.1.1 0 .2-.1.3-.2 3.7-3 7.9-5.5 12.1-8 5.4 1.5 10.3 2.4 15.1 5.6 5.1 3.3 9.6 8.1 13.9 12.2 8.1 7.7 13.4 19.9 14.9 30.9-7.9 12.2-13.5 26.2-21.6 37.9-.9 1.2-1.4 2.3-1.8 3.1h4.2c4.4-7.5 9.5-14.7 13.5-22.5 2.8-5.3 5.5-10.7 8.6-15.8.2-.2.4-.4.4-.7 3.6-5.9 7.8-11.4 13.3-15.8 16 1.5 21 17.7 31.2 27.5.1.1.1.1.2.1l0 0v0c12.2 15.8 27.3 28.7 44.5 38.9 9.2 5.5 22.7 9 28.9 18.3 3.2 4.8 9.8 7.7 15.3 7.4.6 0 1-.3 1.2-.7 5-.8 6.9-6 7.2-11.2.4-5.9-4.8-12.8-9.5-17.9-.3-3.7-1.8-7.9-.1-11.5 1.6-3.3 5.9.2 9.1.7.1 0 .2.1.3.1 6.1 1.7 15.2 1.2 16.3-6.6.9-6.7-7.4-12.6-12.8-15.9-.1-.2-.3-.4-.5-.5-9-6.6-19.9-11.6-27.9-19.6-4.8-4.7-10.4-7.6-14.8-12.9-4.8-5.8-8.8-11.8-12-18.6-3.4-12.6-8-24.9-17-33.5-9.9-18.4-26.7-32.5-48.3-33.1-10.5-.3-22.5 4.3-30.9 10.5-8.8 6.6-11.3 19.5-20.5 25.4-.4.2-.6.5-.7.9v0c-5.2 3.8-10.4 7.8-15.9 11.3-1.6 1-3.2 2-4.9 3v0c-.2 0-.4.2-.5.3-3.9 2.3-8 4.7-11.3 7.6-.8-8-1.9-16-1.4-24 .3-1.2.6-2.5.9-3.7 4.5-15.4 20.8-30.8 34.9-37.2.4-.2.6-.6.7-1 4.9-2.5 9.8-5 14.7-7.4 7.7-1.9 13.8-5.9 19.1-11.8 4.1-4.6 9-9.4 10.8-15.5 1.2-3.8-1.7-8.2-5.4-9.2-5.4-1.6-18.5 1.8-23.3-2.4-2.2-8.6 8.6-17.4 6.8-26.8-.8-4.5-3.9-11-9.2-11.3-.3 0-.5.1-.7.2-13.7-7.4-31.7 21.6-42 15.4-3.2-5.6-.5-13-3.2-19.2-2-4.6-7.1-7.4-12-6.6-14 2-21 12.4-21.8 26 0 .5.2.8.5 1.1-4.1 26.5-30.2 36.3-47.4 53.5-11.1 11.1-27.3 28.9-29.3 46.4-.1.1-.1.2-.1.3-1.7 9.6.6 18.6 4.8 27.3 1.8 3.8 5.8 6.7 8.6 9.8zm297.1 57.7c.2.1.3.2.5.3 2.9 2.1 5.7 4.3 8.2 7 2.6 2.8 4.7 6.8.4 9.7-2.7 1.8-6.8.8-9.6.3-.3-.1-.5 0-.8 0-2.2-.5-3.9-2.2-6.2-2.5-2.2-.3-4.7.2-6 2.2-1.4 2.2-1.6 4.2-1.5 6.7 0 1 0 1.9.1 2.8-1.8-1.4-3.8-2.7-5.4-4.2-4.4-4.2-8-10.3-11.2-15.4-6.9-10.9-11.7-24.3-15.3-36.6-1-3.6-2-7.5-2.9-11.4 11.8 18 32.3 28.3 49.7 41.1zm-156.6-95.3c6.9-10.5 13.4-16 25.6-19.9 24.3-7.7 44 7.1 56.5 26.4-.1.4 0 .8.4 1.2s.7.7 1.1 1.1c.2.4.4.7.6 1.1.3.5.6.7 1 .8 7.2 8.4 11.5 18.8 14.6 29.8 3.4 11.6 5.6 23.7 9.1 34.4s8.7 22.1 14.8 31.6c2.5 3.9 5.3 7.8 8.3 11.3 2.4 2.9 6 4.8 8.7 7.4 2.3 2.6 4.4 5.2 6.5 7.9 1.4 1.7 2.6 3.3 3.7 5.2 2.4 4.4 2.4 13.6-5 14.3-.2 0-.3.1-.5.1-7.6-.7-12-8.6-18-12.7-7.3-4.9-15.3-8.2-22.9-12.6-18.3-10.4-32.2-24.4-45.8-40.1-.1-.1-.2-.2-.4-.3v0c-8.7-10.8-15.8-25-30.8-26.2v0c-.1-.1-.2-.1-.3-.2-.1-20.9-14.7-46-36.4-49 3.9-2.9 6.6-7.7 9.2-11.6zm-26.1 24.2c4.8-3.1 9.3-6.6 13.9-10 21.7 2.5 36.5 26.1 36.3 47.3-4.3 3.5-7.9 7.7-11.1 12.1-1.9-10.1-6.8-19.4-13.5-27.3-8.5-10-17.5-16.5-29.6-19.6 1.3-.8 2.6-1.7 4-2.5zm-107-56.1c8-10.3 18-18.3 28.4-26.2 6-4.6 14.7-9.7 19.4-15.8 5.8-7.8 10.9-18.3 11.7-28.1 0-.1 0-.2 0-.3s0-.2 0-.3c0-.5-.2-.9-.5-1.2 2-9.8 6.6-17 17.3-19.6 13.5-3.3 10.2 11.7 12.2 20.4-.6.5-1 1.3-.5 2.1 3.8 5.3 10.8 3.9 16.2 1.7 10-4.2 17.4-20 30.4-13.9.5.2.9.2 1.2 0 9.1 3.1 4.4 17.2 1.6 23.2-1.9 4-3.6 6.2-3.3 9.3-.5.4-.8.9-.6 1.6 2.6 7.7 12.3 5.8 18.8 5.3 5.5-.3 12.9 4.4 9 10.8-1.7 2.8-4.3 5.2-6.4 7.7-4.6 5.6-9.6 9.3-16.1 11.9-.4-.2-1-.3-1.5-.1-8.7 4-17 8.4-25 13.1-16.9 9.9-32.7 21.3-48.3 33.9-12.1 9.8-24.6 18.7-39.2 24.1-8 3-16.2 4.5-24.6 2.2-10-2.8-14.9-13.4-17.7-22.9-1.5-13.8 9.5-28.6 17.5-38.9zm2.1 65.8c14.1 3.8 30.9-5.2 42.5-12.1 15.2-9.1 28.2-21.5 42.2-32.2 4.2-3.2 8.5-6.2 12.9-9-2.1 2.1-4.1 4.4-6 6.6-3.2 3.8-6 7.9-8.4 12.3-1.6 3-2.5 6.2-3.4 9.4-.8 3.2-1.6 6.5-3 9.5-5.5 11.9-22 23.3-33.1 29.1-12.2 6.4-25.5 9.5-38.9 5.6v0c-2.5-5.2-5.3-10.3-9.1-14.8-3.5-4.2-7.9-7.6-11.1-12.2-1.8-2.6-3.1-5.7-3.9-9.1 3.9 8 10 14.3 19.3 16.9z" fill="#41130c"/><path d="m467.3 245.4h87.7c-3.8-5-6.6-10.4-9-16-19.5 2.6-38.9 7.2-58.4 4.2-7.5 0-15.1 0-20.8 0-.1 0-.2 0-.4 0 .7 4 1.1 8.1.9 11.8z" fill="#f7b898"/><path d="m563.5 245.4c.4-.9.9-1.9 1.8-3.1 3.1-4.4 5.8-9.2 8.4-14.1-8.1-.6-16.1-.2-24.2.8 2.7 5.8 6 11.4 10.1 16.5h3.9z" fill="#f7b898"/><path d="m96.5 84.1c-11 6.6-20 7-28.6 7.5-2.8.1-5.5.3-8.2.6-1.4 3.2-1.4 6.6 1.3 9.8 7 8 15.8 2.1 23.7 0 3.4-.9 6-.2 8.2 2.4 7.3 8.6-2.6 18.1-9.9 22.8 18.3 5.3 35.1-8.4 37.3-27.1 1.3-11.3-2.9-20.6-10.6-26.3-3 3.3-7.3 6.8-13.2 10.3z" fill="none"/><path d="m80.5 128.7c.8-.4 1.6-.9 2.5-1.5-.7-.2-1.5-.5-2.3-.7 0 .7-.1 1.5-.2 2.2z" fill="#41130c"/><path d="m23.3 119.6c-17.8 29.3-8.5 66.7-3.1 82.8-.3-.5-.6-1-.9-1.5-7.9-13.6-13.1-29.3-14.1-33.1-5.1-18.1-.5-35.3 8.8-51.2 5.4-9.4 19-25.6 29.4-35.4 5-4.7 27-19 27.1-19.3 2.9-1.6 5.9-3.1 9-4.5 1.2-.5 22.9-9.1 44.6-10.9 18.2-1.5 36.4 3.4 42.6 5.7 23.9 8.9 36.7 29.5 45.3 51.9.2.9.7 1.9 1.1 3-34.6-58.1-96.5-51.9-97.1-51.8l-1.1.1.3 1.1c0 .1 1.5 6-5 14.1-.6.8-1.3 1.5-2.1 2.4.5.3 1.1.7 1.6 1.1 7.7 5.7 11.9 14.9 10.6 26.3-2.2 18.7-19 32.4-37.3 27.1 7.3-4.7 17.2-14.2 9.9-22.8-2.2-2.6-4.8-3.3-8.2-2.4-7.9 2.1-16.7 7.9-23.7 0-2.8-3.2-2.7-6.6-1.3-9.8.3-.7.6-1.4 1-2-1.4.1-2.8.3-4.1.6-10.1 1.6-20.6 7.6-33.3 28.5z" fill="#f6921e"/><path d="m216.6 117.4c-30.4-62.6-90.9-60.9-99.4-60.4.2 2.2 0 7.7-5.4 14.5 10.8 7.7 16 21.3 10.2 36.1-7.1 18-24.3 28.4-43.4 21.3-1.3-.5-.7-1.7.3-2.2.5-.3 1-.5 1.5-.8l.4.7c-.1.8-.2 1.5-.3 2.2.8-.4 1.6-.9 2.5-1.5 18.3 5.3 35.1-8.3 37.3-27.1 1.3-11.3-2.9-20.6-10.6-26.3-.5-.4-1.1-.8-1.6-1.1.8-.8 1.5-1.6 2.1-2.4 6.5-8.1 5-14 5-14.1l-.3-1.1 1.1-.1c.7-.1 62.5-6.3 97.1 51.8 2.6 4.4 5.1 9.2 7.4 14.3l-1.7.8c-.7-1.5-1.5-3.1-2.2-4.6z" fill="#41130c"/><path d="m23.3 119.6c12.7-20.9 23.2-26.9 33.3-28.9 1.4-.3 2.8-.5 4.1-.6-.4.7-.8 1.3-1 2-1.4 3.2-1.5 6.6 1.3 9.8 7 8 15.8 2.1 23.7 0 3.4-.9 6-.2 8.2 2.4 7.3 8.6-2.6 18.1-9.9 22.8-.8-.2-1.5-.5-2.2-.7l-.4-.7c5.3-2.9 10.6-6.7 10.5-13.6-.2-8.7-7.2-7-13.2-4.3-4.7 2.1-11.7.9-16.1-1.1-4.7-2.2-7-8.7-5.8-13.6.1-.2.1-.4.2-.5-9.5 2.1-19 8.2-30.9 27.8-21.9 36.1-1.7 85-.1 88.8.1.1.1.2.1.2l-1.7.8c-.1-.1-1.3-3.1-3-8-5.6-15.9-14.8-53.3 2.9-82.6z" fill="#41130c"/><path d="m70.5 61.9c-.2.3-22.2 14.6-27.1 19.3-10.4 9.8-24 26-29.4 35.4-9.3 15.8-13.9 33.1-8.8 51.2 1.1 3.8 6.2 19.5 14.1 33.1l.9 1.5c1.7 4.9 2.9 7.8 3 8l1.7-.8s0-.1-.1-.2c5.8 8.1 11.9 14.4 14.3 17.1 6.2 6.9 16.1 14.3 16 24.5 0 .5-.3.8-.7.8 4.4 15.1 7.1 30.2 15.1 44.3 8.2 14.7 19.2 28.2 32.4 38.8 14.4 11.5 32.7 20.6 51.7 19.4 17-1.1 32.9-7.8 47.2-16.9 28-17.8 54.7-45.2 59.4-79.6 4.7-34.6-9.6-67.6-21.8-99.2-2.9-1.7-5.3-4.4-6.6-8.1-.5-1.4 1.5-1.9 2.2-.9 1.7 2.4 3.6 4.5 5.8 6.5 6.2 3.7 11.3 2 15.4-5.2.9-4.9.1-10.2-1.2-14.9-2.2-8.1-6.8-14-11-20.9-.2-.1-.4-.2-.6-.5-3.6-6-9.8-10.7-17.2-8.4-3.7 1.1-6.4 3.2-6.9 6.5 1.2 3.5 2.3 7.1 3.4 10.7.3.2.5.6.5 1.1v.6c0 1.8-2.6 2.1-3.1.4-.6-1.9-1.2-3.9-1.8-5.9-.1-.2-.3-1-.7-2 .7 1.5 1.5 3.1 2.2 4.7l1.7-.8c-2.3-5.1-4.7-9.9-7.4-14.3-.4-1.1-.9-2.1-1.1-3-8.6-22.4-21.4-43-45.3-51.9-6.2-2.3-24.4-7.2-42.6-5.7-21.7 1.8-43.4 10.4-44.6 10.9-3 1.3-6 2.7-9 4.4zm27.1 277.3c-26.1-22.5-43.2-58-46.2-92.4-8.2-14.9-26-24.8-33.8-40.1-3.7-5-6.7-11.1-8.8-16.2-2.3-5.7-5.9-13.1-5.7-19.7-1.1-3.8-2-7.6-2.6-11.5-2.4-15.4 2.8-31.2 10.9-44.1 16.7-26.7 40.2-49.7 69.8-61.5 28.4-11.3 63.7-16 92-1.7 23.4 11.9 35.4 33.5 43.7 57 1.1-2.1 3-3.8 6.1-4.7 9.1-2.8 16.3 1.4 21.5 8.8.2.3.2.6.2.9 5.4 5.9 10 13.3 11.7 21.1 1.2 5.5 4.1 14 .4 19.2-4 5.5-10.1 7.2-15.4 5.7 13.5 34.2 30.9 70.8 20.1 108.3-9.9 34.1-36.7 60.1-67.1 77.1-32 17.8-68.1 18.6-96.8-6.2z" fill="#41130c"/></svg>