<?xml version="1.0" encoding="utf-8"?>
<!-- Generated by IcoMoon.io -->
<!DOCTYPE svg PUBLIC "-//W3C//DTD SVG 1.1//EN" "http://www.w3.org/Graphics/SVG/1.1/DTD/svg11.dtd">
<svg version="1.1" xmlns="http://www.w3.org/2000/svg" xmlns:xlink="http://www.w3.org/1999/xlink" width="47" height="47" viewBox="0 0 47 47">
<g id="icomoon-ignore">
</g>
<path d="M23.5 0c-12.989 0-23.5 10.511-23.5 23.5s10.511 23.5 23.5 23.5c12.989 0 23.5-10.511 23.5-23.5s-10.511-23.5-23.5-23.5zM29.747 37.778c-1.983-0.198-15.072-3.272-20.525-18.741-1.091-3.272 0.297-8.527 3.966-9.618 3.768-1.19 5.751 4.065 6.247 7.338l-3.272 3.272c0 0-0.099 2.082 4.363 6.544s6.544 4.363 6.544 4.363l3.867-3.867c2.38 0.496 7.238 3.57 7.238 3.57-0.595 4.66-3.669 7.635-8.428 7.139z" fill="#2B67A3"></path>
</svg>
