<svg style="display: none" height="0" overflow="hidden" width="0" xmlns="http://www.w3.org/2000/svg"><defs><symbol id="icon-babys" viewBox="0 0 58 32"><path d="m39.462 20.256c1.247 0 1.247-1.918 0-1.918s-1.247 1.918 0 1.918z" fill="#ff0084"/><path d="m31.357 22.706c1.333 3.505 4.182 6.168 7.723 7.22.73 1.239 1.99 2.054 3.441 2.054s2.71-.815 3.347-2.012c3.645-1.087 6.503-3.751 7.814-7.18 2.173-.081 3.912-1.82 3.912-3.966s-1.739-3.884-3.884-3.884c-.852-2.273-2.319-4.151-4.198-5.486l-.036 1.472c-.002.11-.017.215-.045.316 1.415 1.21 2.48 2.795 3.052 4.6l.202.671.619-.091c.107-.017.232-.028.359-.029h.014c1.343 0 2.431 1.089 2.431 2.431s-1.089 2.431-2.431 2.431c-.132 0-.261-.01-.387-.031l-.605-.089-.182.599c-.971 3.036-3.224 5.415-6.106 6.536s-.07-.019-.07-.043c-.001-.728-.208-1.407-.566-1.982.347-.324.558-.791.566-1.306 0-1.397-1.664-2.49-3.793-2.49s-3.793 1.089-3.793 2.489c.012.512.222.972.556 1.309-.349.559-.556 1.238-.556 1.966s0 .043 0 .067c-2.95-1.143-5.203-3.519-6.156-6.478l-.203-.672-.619.091c-.108.017-.232.028-.359.029-1.344 0-2.432-1.089-2.432-2.431s1.089-2.431 2.431-2.431c.128.001.252.011.374.031l.604.089.182-.599c.651-2.055 1.876-3.774 3.487-5.018l.023-1.777c-2.152 1.375-3.797 3.379-4.692 5.751-2.172.08-3.911 1.82-3.911 3.965s1.739 3.884 3.884 3.884zm8.834 5.501c.003-.428.122-.829.327-1.171.314-.541.838-.944 1.46-1.099.177-.045.362-.069.552-.07 1.287.016 2.325 1.054 2.341 2.339-.002.19-.026.371-.071.545-.188.775-.761 1.399-1.505 1.657-.239.09-.497.14-.767.14s-.527-.049-.765-.14c-.912-.319-1.568-1.182-1.577-2.2zm2.34-4.316c1.405 0 2.34.623 2.34 1.036-.009.086-.042.163-.092.226-.619-.468-1.402-.748-2.251-.748s-1.632.281-2.261.754c-.04-.07-.073-.149-.081-.235.005-.405.94-1.028 2.345-1.028z" fill="#ff0084"/><path d="m45.6 20.141c1.247 0 1.247-1.918 0-1.918s-1.252 1.918 0 1.918z" fill="#ff0084"/><path d="m38.575 13.331h.163l.149-.067c1.333-.623 2.259-1.108 2.916-1.496.288.123.624.194.976.194s.688-.071.993-.201c.64.395 1.566.879 2.899 1.502l.149.067h.163c.927-.018 1.674-.765 1.693-1.691v-4.524c-.003-.934-.759-1.69-1.693-1.693h-.163l-.149.067c-.815.379-1.482.71-2.024 1.002-.345.182-.638.345-.892.48-.211-.085-.455-.145-.71-.167-.087-.017-.175-.027-.266-.027s-.179.009-.265.027c-.256.021-.5.081-.728.172-.237-.16-.529-.323-.875-.486-.547-.288-1.208-.619-2.024-1.002l-.149-.072h-.163c-.934.003-1.69.759-1.693 1.693v4.522c.018.928.765 1.677 1.691 1.698zm3.989-5.064c.032-.003.068-.005.105-.005s.074.002.11.005c.027-.004.064-.005.101-.005s.074.002.11.005c.126.026.241.07.346.132.141.08.262.19.357.32l.002.003c.12.176.191.393.191.627 0 .164-.035.319-.098.46-.083.191-.218.353-.387.47l-.09.055c-.159.096-.351.152-.556.152s-.397-.057-.561-.155l-.081-.05c-.118-.082-.217-.183-.295-.298-.121-.18-.192-.397-.192-.63s.071-.45.192-.63l.055-.068c.09-.114.198-.208.321-.28.111-.056.235-.093.365-.108zm4.518-1.366c.08.041.133.122.134.216v4.522c.001.008.001.017.001.026s-.001.018-.002.027c-.014.07-.059.128-.119.161-.73-.345-1.497-.738-2.135-1.088.038-.062.072-.129.105-.192.19-.345.303-.756.307-1.193-.004-.123-.016-.239-.036-.352-.04-.38-.175-.738-.382-1.043l.231-.112.48-.249c.436-.245.93-.494 1.41-.724zm-8.747 1.074v-.858c.001-.094.055-.175.133-.215.423.201.86.417 1.277.632l.858.456c-.071.104-.138.224-.195.349-.076.175-.133.362-.167.556-.032.159-.049.325-.05.494.009.428.122.826.314 1.175.027.049.06.116.099.179-.638.35-1.405.743-2.134 1.089-.061-.034-.105-.092-.12-.162-.001-.009-.002-.019-.002-.028s.001-.018.002-.027v-3.639z" fill="#ff0084"/><path d="m3.836 15.504c1.333 3.505 4.182 6.168 7.723 7.22.73 1.239 1.99 2.054 3.441 2.054s2.71-.815 3.347-2.012c3.635-1.094 6.484-3.756 7.79-7.18 2.172-.081 3.912-1.82 3.912-3.966s-1.739-3.884-3.884-3.884c-1.505-3.945-4.939-6.841-9.118-7.557-.138-.038-.216-.057-.298-.063h-.165c-.489-.071-1.054-.112-1.628-.112-5.068 0-9.393 3.179-11.091 7.651-2.172.082-3.911 1.821-3.911 3.966s1.739 3.884 3.884 3.884zm8.838 2.239c0-.412.935-1.036 2.34-1.036s2.34.623 2.34 1.036c-.009.086-.042.163-.092.226-.619-.468-1.402-.748-2.251-.748s-1.632.281-2.261.754c-.038-.07-.069-.147-.077-.231zm3.089 5.467c-.223.085-.481.135-.751.135s-.527-.049-.765-.14c-.912-.32-1.566-1.183-1.577-2.2.003-.43.122-.83.327-1.172.314-.541.838-.944 1.46-1.099.177-.045.362-.069.552-.07 1.287.016 2.325 1.054 2.341 2.339-.002.19-.026.371-.071.545-.187.774-.758 1.397-1.5 1.657zm-11.879-14.022c.128.001.252.011.374.031l.604.089.182-.599c.931-2.893 3.025-5.181 5.717-6.352-.543 1.322.282 2.986 1.663 3.633 1.717.81 4.498.916 5.668-.844.527-.791.058-1.793-.58-2.335-.546-.434-1.246-.696-2.007-.696-.451 0-.88.092-1.27.258-.837.332-.458 1.738.41 1.392.245-.115.531-.183.833-.183.358 0 .694.095.984.26.82.474.057.954-.528 1.141-.307.081-.659.128-1.022.128-.945 0-1.816-.317-2.513-.85-1.059-.952.317-2.04 1.17-2.342.724-.238 1.557-.375 2.422-.375.174 0 .346.006.517.016 3.997.566 7.243 3.364 8.453 7.08l.203.673.619-.091c.107-.017.232-.028.359-.029h.014c1.343 0 2.431 1.089 2.431 2.431s-1.089 2.431-2.431 2.431c-.132 0-.261-.01-.387-.031l-.605-.118-.182.599c-.97 3.039-3.226 5.42-6.111 6.541s-.07-.019-.07-.043c-.001-.728-.208-1.407-.566-1.982.342-.317.553-.772.57-1.276 0-1.399-1.664-2.492-3.793-2.492s-3.793 1.079-3.793 2.489c.012.512.222.972.556 1.309-.349.559-.556 1.238-.556 1.966s0 .043 0 .067c-2.952-1.145-5.206-3.524-6.156-6.487l-.202-.692-.619.091c-.107.017-.232.028-.359.029-1.344 0-2.432-1.089-2.432-2.431s1.089-2.431 2.431-2.431z" fill="#ff0084"/><path d="m11.945 13.053c1.247 0 1.247-1.918 0-1.918s-1.247 1.918 0 1.918z" fill="#ff0084"/><path d="m18.079 12.948c1.247 0 1.247-1.918 0-1.918s-1.247 1.918 0 1.918z" fill="#ff0084"/></symbol><symbol id="icon-cog-wheel" viewBox="0 0 32 32"><path d="m31.467 19.552h.533v-6.933h-4.533c-.266-.897-.594-1.673-.996-2.403l2.863-2.781.357-.357-.357-.357-4.528-4.544-.357.357-2.859 2.853c-.627-.346-1.359-.657-2.123-.894l-.085-4.492h-6.933v4.475c-.809.248-1.503.54-2.161.89l-2.73-2.832-.357-.357-.357.357-4.533 4.544 3.093 3.093c-.371.649-.702 1.403-.953 2.193l-4.45.085v6.933h4.363c.278.936.626 1.748 1.055 2.508l-2.751 2.676-.357.357 4.901 4.901.357-.357 2.784-2.8c.645.345 1.397.652 2.183.88l.084 4.453h6.933v-4.528c.789-.253 1.465-.546 2.105-.895l2.791 2.885.357.357.357-.357 4.528-4.539-3.2-3.2c.342-.617.651-1.335.889-2.086zm-8.368-3.552c0 3.968-3.216 7.184-7.184 7.184s-7.184-3.216-7.184-7.184 3.216-7.184 7.184-7.184c3.965.006 7.178 3.219 7.184 7.183z" fill="#ff0084"/></symbol><symbol id="icon-drink" viewBox="0 0 32 32"><path d="m20.588 7.705c-1.311-1.312-3.122-2.123-5.122-2.123s-3.812.811-5.122 2.123l-8.226 8.226c-1.309 1.312-2.119 3.123-2.119 5.122s.81 3.811 2.119 5.123l3.707 3.702c1.311 1.312 3.122 2.123 5.122 2.123s3.812-.811 5.122-2.123l8.222-8.217c1.312-1.311 2.123-3.122 2.123-5.122s-.811-3.812-2.123-5.122zm2.629 11.323-3.348-3.348c-.223-.223-.531-.361-.871-.361-.681 0-1.232.552-1.232 1.232 0 .34.138.648.361.871l3.446 3.446-1.969 1.969-3.446-3.446c-.223-.223-.531-.361-.871-.361-.681 0-1.232.552-1.232 1.232 0 .34.138.648.361.871l3.446 3.446-1.969 1.969-3.446-3.446c-.223-.223-.531-.361-.871-.361-.681 0-1.232.552-1.232 1.232 0 .34.138.648.361.871l3.446 3.446c-.855.752-1.983 1.21-3.218 1.21-1.307 0-2.494-.514-3.371-1.35l-3.7-3.725c-.862-.865-1.395-2.059-1.395-3.377s.533-2.512 1.395-3.377l8.226-8.226c.865-.865 2.06-1.4 3.38-1.4s2.515.535 3.38 1.4l3.702 3.702c.868.86 1.405 2.053 1.405 3.37 0 .941-.274 1.818-.747 2.556zm7.099-14.194c-.185.236-.297.538-.297.865 0 .222.052.433.143.62.946 1.523.764 2.946-.644 4.344l-1.423 1.428c-.63.635-2.082-.891-3.909-2.718l-1.541-1.551c-1.831-1.826-3.407-3.225-2.718-3.909l1.428-1.452c1.398-1.369 2.767-1.57 4.308-.645.189.094.411.149.646.149.323 0 .622-.104.865-.28l1.335-1.341c.586-.586 1.319-.369 1.91.222l1.019 1.019c.586.586.807 1.319.217 1.905z" fill="#ff0084"/></symbol><symbol id="icon-water-drop" viewBox="0 0 27 32"><path d="m27.333 6.313c-.016-.262-.205-.476-.453-.53-4.845-1.08-9.105-3.045-12.807-5.733.006.001-.111-.04-.237-.04s-.243.041-.338.109l-.14.095h-.027c-3.643 2.61-7.942 4.574-12.588 5.62-.485.098-.672.307-.692.564-.033.508-.052 1.099-.052 1.695 0 6.697 2.4 12.833 6.387 17.596 1.952 2.419 4.282 4.503 6.903 6.17.195.115.29.142.392.142h.003s.002 0 .003 0c .108 0 .209-.029.297-.079l.052-.035c1.138-.654 14.267-8.617 13.298-25.573zm-14.076 22.78v.082s-11.785-6.862-10.971-21.335c4.293-.965 8.076-2.674 11.393-5l .085-.014c3.051 2.319 6.69 4.04 10.647 4.912 1.011 14.489-11.154 21.355-11.154 21.355z" fill="#ff0084"/><path d="m18.688 17.829-5.029-9.696-5.01 9.696c-1.001 3.392 2.249 6.085 5.029 6.085s6.171-2.665 5.01-6.085zm-5.07 4.969c-.032.004-.068.007-.105.007s-.074-.002-.109-.007l-.256-.045-.137-.027-.21-.059c-.178-.04-.33-.089-.477-.149l-.222-.089-.251-.123c-.2-.104-.368-.206-.528-.317-.33-.242-.631-.526-.891-.845-.242-.313-.447-.661-.603-1.034-.066-.17-.121-.345-.165-.525l-.061-.269-.032-.233c-.018-.116-.027-.249-.027-.385 0-.006 0-.012 0-.018-.004-.045-.006-.098-.006-.152s.002-.107.007-.16v-.258l.046.261c.017.11.041.207.072.301.033.129.076.249.126.365l.076.185.11.206c.089.162.175.298.269.428.101.13.212.257.33.376.122.119.254.231.392.335.262.186.55.34.857.456.14.05.282.091.427.123l.221.046h.187c.045.005.098.007.151.007s.106-.003.157-.008l.108.001h.402c.019-.002.041-.003.064-.003.446 0 .807.361.807.807 0 .423-.326.77-.74.804z" fill="#ff0084"/></symbol><symbol id="icon-duck" viewBox="0 0 30 32"><path d="m4.896 4.501c-.715.587-2.277-.48-3.296-.987s-2.299.272-1.125 2.352 2.469 2.864 1.301 2.864-.709 2.213 2.213 1.824c.371-.057.798-.09 1.233-.09.146 0 .291.004.435.011-.03-.274-.055-.531-.094-.784-.293-.745-.465-1.649-.465-2.593 0-1.114.24-2.172.67-3.125-.345.182-.626.344-.883.535z" fill="#ff0084"/><path d="m15.045 32c7.648 0 12.955-3.701 13.867-8.064 1.819-8.848 0-12.096-1.691-11.963s-3.515 3.637-5.461 3.771-1.429-1.952-4.267-1.952c-.022.001-.049.001-.075.001-.602 0-1.145-.257-1.524-.667 2.362-1.131 3.966-3.502 3.966-6.248 0-3.812-3.09-6.901-6.901-6.901s-6.901 3.09-6.901 6.901c0 .874.163 1.711.459 2.481.039.343.07.793.07 1.251 0 2.913-1.265 5.531-3.277 7.334-2.361 2.211-2.089 5.992-2.089 5.992-.032 4.453 6.171 8.064 13.824 8.064zm-5.333-28.635c.61 0 1.104.494 1.104 1.104s-.494 1.104-1.104 1.104-1.104-.494-1.104-1.104v0c0-.61.494-1.104 1.104-1.104h.022z" fill="#ff0084"/></symbol><symbol id="icon-phone" viewBox="0 0 32 32"><path d="m16 0c-8.832 0-16 7.168-16 16s7.168 16 16 16 16-7.168 16-16-7.168-16-16-16zm9.856 22.208c-.704 2.496-2.688 4.096-5.568 3.84-.96-.064-5.248-.96-9.216-4.928-4.032-3.968-4.864-8.192-4.928-9.152-.32-2.88.96-5.12 3.328-5.952.704-.256 1.472.128 1.792.768l1.28 2.752c.256.576.128 1.216-.32 1.664l-1.984 1.984s.064 1.536 3.2 4.736c3.136 3.136 4.736 3.2 4.736 3.2l1.92-1.92c.448-.448 1.152-.576 1.664-.256l3.2 1.6c.768.256 1.088 1.024.896 1.664z"/></symbol><symbol id="icon-menu" viewBox="0 0 32 32"><path d="m0 0h32v6.4h-32z"/><path d="m0 12.8h32v6.4h-32z"/><path d="m0 25.6h32v6.4h-32z"/></symbol></defs></svg>