<svg style="position: absolute; width: 0; height: 0; overflow: hidden;" version="1.1" xmlns="http://www.w3.org/2000/svg">
<defs>
<symbol id="icon-babys" viewBox="0 0 58 32">
<title>babys</title>
<path fill="#ff0084" style="fill: var(--color1, #ff0084)" d="M31.357 22.706c1.333 3.505 4.182 6.168 7.723 7.22 0.73 1.239 1.99 2.054 3.441 2.054s2.71-0.815 3.347-2.012c3.645-1.087 6.503-3.751 7.814-7.18 2.173-0.081 3.912-1.82 3.912-3.966s-1.739-3.884-3.884-3.884c-0.852-2.273-2.319-4.151-4.198-5.486l-0.036 1.472c-0.002 0.11-0.017 0.215-0.045 0.316 1.415 1.21 2.48 2.795 3.052 4.6l0.202 0.671 0.619-0.091c0.107-0.017 0.232-0.028 0.359-0.029 0.005-0 0.009-0 0.014-0 1.343 0 2.431 1.089 2.431 2.431s-1.089 2.431-2.431 2.431c-0.132 0-0.261-0.010-0.387-0.031l-0.605-0.089-0.182 0.599c-0.971 3.036-3.224 5.415-6.106 6.536s-0.070-0.019-0.070-0.043c-0.001-0.728-0.208-1.407-0.566-1.982 0.347-0.324 0.558-0.791 0.566-1.306 0-1.397-1.664-2.49-3.793-2.49s-3.793 1.089-3.793 2.489c0.012 0.512 0.222 0.972 0.556 1.309-0.349 0.559-0.556 1.238-0.556 1.966s0 0.043 0 0.067c-2.95-1.143-5.203-3.519-6.156-6.478l-0.203-0.672-0.619 0.091c-0.108 0.017-0.232 0.028-0.359 0.029-1.344 0-2.432-1.089-2.432-2.431s1.089-2.431 2.431-2.431c0.128 0.001 0.252 0.011 0.374 0.031l0.604 0.089 0.182-0.599c0.651-2.055 1.876-3.774 3.487-5.018l0.023-1.777c-2.152 1.375-3.797 3.379-4.692 5.751-2.172 0.080-3.911 1.82-3.911 3.965s1.739 3.884 3.884 3.884zM40.191 28.207c0.003-0.428 0.122-0.829 0.327-1.171 0.314-0.541 0.838-0.944 1.46-1.099 0.177-0.045 0.362-0.069 0.552-0.070 1.287 0.016 2.325 1.054 2.341 2.339-0.002 0.19-0.026 0.371-0.071 0.545-0.188 0.775-0.761 1.399-1.505 1.657-0.239 0.090-0.497 0.14-0.767 0.14s-0.527-0.049-0.765-0.14c-0.912-0.319-1.568-1.182-1.577-2.2zM42.531 23.891c1.405 0 2.34 0.623 2.34 1.036-0.009 0.086-0.042 0.163-0.092 0.226-0.619-0.468-1.402-0.748-2.251-0.748s-1.632 0.281-2.261 0.754c-0.040-0.070-0.073-0.149-0.081-0.235 0.005-0.405 0.94-1.028 2.345-1.028z"></path>
<path fill="#ff0084" style="fill: var(--color1, #ff0084)" d="M39.462 20.256c1.247 0 1.247-1.918 0-1.918s-1.247 1.918 0 1.918z"></path>
<path fill="#ff0084" style="fill: var(--color1, #ff0084)" d="M45.6 20.141c1.247 0 1.247-1.918 0-1.918s-1.252 1.918 0 1.918z"></path>
<path fill="#ff0084" style="fill: var(--color1, #ff0084)" d="M38.575 13.331h0.163l0.149-0.067c1.333-0.623 2.259-1.108 2.916-1.496 0.288 0.123 0.624 0.194 0.976 0.194s0.688-0.071 0.993-0.201c0.64 0.395 1.566 0.879 2.899 1.502l0.149 0.067h0.163c0.927-0.018 1.674-0.765 1.693-1.691l0-4.524c-0.003-0.934-0.759-1.69-1.693-1.693h-0.163l-0.149 0.067c-0.815 0.379-1.482 0.71-2.024 1.002-0.345 0.182-0.638 0.345-0.892 0.48-0.211-0.085-0.455-0.145-0.71-0.167-0.087-0.017-0.175-0.027-0.266-0.027s-0.179 0.009-0.265 0.027c-0.256 0.021-0.5 0.081-0.728 0.172-0.237-0.16-0.529-0.323-0.875-0.486-0.547-0.288-1.208-0.619-2.024-1.002l-0.149-0.072h-0.163c-0.934 0.003-1.69 0.759-1.693 1.693v4.522c0.018 0.928 0.765 1.677 1.691 1.698zM42.564 8.267c0.032-0.003 0.068-0.005 0.105-0.005s0.074 0.002 0.11 0.005c0.027-0.004 0.064-0.005 0.101-0.005s0.074 0.002 0.11 0.005c0.126 0.026 0.241 0.070 0.346 0.132 0.141 0.080 0.262 0.19 0.357 0.32l0.002 0.003c0.12 0.176 0.191 0.393 0.191 0.627 0 0.164-0.035 0.319-0.098 0.46-0.083 0.191-0.218 0.353-0.387 0.47l-0.090 0.055c-0.159 0.096-0.351 0.152-0.556 0.152s-0.397-0.057-0.561-0.155l-0.081-0.050c-0.118-0.082-0.217-0.183-0.295-0.298-0.121-0.18-0.192-0.397-0.192-0.63s0.071-0.45 0.192-0.63l0.055-0.068c0.090-0.114 0.198-0.208 0.321-0.28 0.111-0.056 0.235-0.093 0.365-0.108zM47.082 6.901c0.080 0.041 0.133 0.122 0.134 0.216v4.522c0.001 0.008 0.001 0.017 0.001 0.026s-0.001 0.018-0.002 0.027c-0.014 0.070-0.059 0.128-0.119 0.161-0.73-0.345-1.497-0.738-2.135-1.088 0.038-0.062 0.072-0.129 0.105-0.192 0.19-0.345 0.303-0.756 0.307-1.193-0.004-0.123-0.016-0.239-0.036-0.352-0.040-0.38-0.175-0.738-0.382-1.043l0.231-0.112 0.48-0.249c0.436-0.245 0.93-0.494 1.41-0.724zM38.335 7.975v-0.858c0.001-0.094 0.055-0.175 0.133-0.215 0.423 0.201 0.86 0.417 1.277 0.632l0.858 0.456c-0.071 0.104-0.138 0.224-0.195 0.349-0.076 0.175-0.133 0.362-0.167 0.556-0.032 0.159-0.049 0.325-0.050 0.494 0.009 0.428 0.122 0.826 0.314 1.175 0.027 0.049 0.060 0.116 0.099 0.179-0.638 0.35-1.405 0.743-2.134 1.089-0.061-0.034-0.105-0.092-0.12-0.162-0.001-0.009-0.002-0.019-0.002-0.028s0.001-0.018 0.002-0.027l-0-3.639z"></path>
<path fill="#ff0084" style="fill: var(--color1, #ff0084)" d="M3.836 15.504c1.333 3.505 4.182 6.168 7.723 7.22 0.73 1.239 1.99 2.054 3.441 2.054s2.71-0.815 3.347-2.012c3.635-1.094 6.484-3.756 7.79-7.18 2.172-0.081 3.912-1.82 3.912-3.966s-1.739-3.884-3.884-3.884c-1.505-3.945-4.939-6.841-9.118-7.557-0.138-0.038-0.216-0.057-0.298-0.063l-0.165-0c-0.489-0.071-1.054-0.112-1.628-0.112-5.068 0-9.393 3.179-11.091 7.651-2.172 0.082-3.911 1.821-3.911 3.966s1.739 3.884 3.884 3.884zM12.674 17.743c0-0.412 0.935-1.036 2.34-1.036s2.34 0.623 2.34 1.036c-0.009 0.086-0.042 0.163-0.092 0.226-0.619-0.468-1.402-0.748-2.251-0.748s-1.632 0.281-2.261 0.754c-0.038-0.070-0.069-0.147-0.077-0.231zM15.763 23.21c-0.223 0.085-0.481 0.135-0.751 0.135s-0.527-0.049-0.765-0.14c-0.912-0.32-1.566-1.183-1.577-2.2 0.003-0.43 0.122-0.83 0.327-1.172 0.314-0.541 0.838-0.944 1.46-1.099 0.177-0.045 0.362-0.069 0.552-0.070 1.287 0.016 2.325 1.054 2.341 2.339-0.002 0.19-0.026 0.371-0.071 0.545-0.187 0.774-0.758 1.397-1.5 1.657zM3.884 9.188c0.128 0.001 0.252 0.011 0.374 0.031l0.604 0.089 0.182-0.599c0.931-2.893 3.025-5.181 5.717-6.352-0.543 1.322 0.282 2.986 1.663 3.633 1.717 0.81 4.498 0.916 5.668-0.844 0.527-0.791 0.058-1.793-0.58-2.335-0.546-0.434-1.246-0.696-2.007-0.696-0.451 0-0.88 0.092-1.27 0.258-0.837 0.332-0.458 1.738 0.41 1.392 0.245-0.115 0.531-0.183 0.833-0.183 0.358 0 0.694 0.095 0.984 0.26 0.82 0.474 0.057 0.954-0.528 1.141-0.307 0.081-0.659 0.128-1.022 0.128-0.945 0-1.816-0.317-2.513-0.85-1.059-0.952 0.317-2.040 1.17-2.342 0.724-0.238 1.557-0.375 2.422-0.375 0.174 0 0.346 0.006 0.517 0.016 3.997 0.566 7.243 3.364 8.453 7.080l0.203 0.673 0.619-0.091c0.107-0.017 0.232-0.028 0.359-0.029 0.005-0 0.009-0 0.014-0 1.343 0 2.431 1.089 2.431 2.431s-1.089 2.431-2.431 2.431c-0.132 0-0.261-0.010-0.387-0.031l-0.605-0.118-0.182 0.599c-0.97 3.039-3.226 5.42-6.111 6.541s-0.070-0.019-0.070-0.043c-0.001-0.728-0.208-1.407-0.566-1.982 0.342-0.317 0.553-0.772 0.57-1.276 0-1.399-1.664-2.492-3.793-2.492s-3.793 1.079-3.793 2.489c0.012 0.512 0.222 0.972 0.556 1.309-0.349 0.559-0.556 1.238-0.556 1.966s0 0.043 0 0.067c-2.952-1.145-5.206-3.524-6.156-6.487l-0.202-0.692-0.619 0.091c-0.107 0.017-0.232 0.028-0.359 0.029-1.344 0-2.432-1.089-2.432-2.431s1.089-2.431 2.431-2.431z"></path>
<path fill="#ff0084" style="fill: var(--color1, #ff0084)" d="M11.945 13.053c1.247 0 1.247-1.918 0-1.918s-1.247 1.918 0 1.918z"></path>
<path fill="#ff0084" style="fill: var(--color1, #ff0084)" d="M18.079 12.948c1.247 0 1.247-1.918 0-1.918s-1.247 1.918 0 1.918z"></path>
</symbol>
<symbol id="icon-cog-wheel" viewBox="0 0 32 32">
<title>cog-wheel</title>
<path fill="#ff0084" style="fill: var(--color1, #ff0084)" d="M31.467 19.552h0.533v-6.933h-4.533c-0.266-0.897-0.594-1.673-0.996-2.403l2.863-2.781 0.357-0.357-0.357-0.357-4.528-4.544-0.357 0.357-2.859 2.853c-0.627-0.346-1.359-0.657-2.123-0.894l-0.085-4.492h-6.933v4.475c-0.809 0.248-1.503 0.54-2.161 0.89l-2.73-2.832-0.357-0.357-0.357 0.357-4.533 4.544 3.093 3.093c-0.371 0.649-0.702 1.403-0.953 2.193l-4.45 0.085v6.933h4.363c0.278 0.936 0.626 1.748 1.055 2.508l-2.751 2.676-0.357 0.357 4.901 4.901 0.357-0.357 2.784-2.8c0.645 0.345 1.397 0.652 2.183 0.88l0.084 4.453h6.933v-4.528c0.789-0.253 1.465-0.546 2.105-0.895l2.791 2.885 0.357 0.357 0.357-0.357 4.528-4.539-3.2-3.2c0.342-0.617 0.651-1.335 0.889-2.086l4.087-0.085zM23.099 16c0 3.968-3.216 7.184-7.184 7.184s-7.184-3.216-7.184-7.184c0-3.968 3.216-7.184 7.184-7.184 3.965 0.006 7.178 3.219 7.184 7.183z"></path>
</symbol>
<symbol id="icon-drink" viewBox="0 0 32 32">
<title>drink</title>
<path fill="#ff0084" style="fill: var(--color1, #ff0084)" d="M20.588 7.705c-1.311-1.312-3.122-2.123-5.122-2.123s-3.812 0.811-5.122 2.123l-8.226 8.226c-1.309 1.312-2.119 3.123-2.119 5.122s0.81 3.811 2.119 5.123l3.707 3.702c1.311 1.312 3.122 2.123 5.122 2.123s3.812-0.811 5.122-2.123l8.222-8.217c1.312-1.311 2.123-3.122 2.123-5.122s-0.811-3.812-2.123-5.122zM23.217 19.028l-3.348-3.348c-0.223-0.223-0.531-0.361-0.871-0.361-0.681 0-1.232 0.552-1.232 1.232 0 0.34 0.138 0.648 0.361 0.871l3.446 3.446-1.969 1.969-3.446-3.446c-0.223-0.223-0.531-0.361-0.871-0.361-0.681 0-1.232 0.552-1.232 1.232 0 0.34 0.138 0.648 0.361 0.871l3.446 3.446-1.969 1.969-3.446-3.446c-0.223-0.223-0.531-0.361-0.871-0.361-0.681 0-1.232 0.552-1.232 1.232 0 0.34 0.138 0.648 0.361 0.871l3.446 3.446c-0.855 0.752-1.983 1.21-3.218 1.21-1.307 0-2.494-0.514-3.371-1.35l-3.7-3.725c-0.862-0.865-1.395-2.059-1.395-3.377s0.533-2.512 1.395-3.377l8.226-8.226c0.865-0.865 2.060-1.4 3.38-1.4s2.515 0.535 3.38 1.4l3.702 3.702c0.868 0.86 1.405 2.053 1.405 3.37 0 0.941-0.274 1.818-0.747 2.556zM30.316 4.834c-0.185 0.236-0.297 0.538-0.297 0.865 0 0.222 0.052 0.433 0.143 0.62 0.946 1.523 0.764 2.946-0.644 4.344l-1.423 1.428c-0.63 0.635-2.082-0.891-3.909-2.718l-1.541-1.551c-1.831-1.826-3.407-3.225-2.718-3.909l1.428-1.452c1.398-1.369 2.767-1.57 4.308-0.645 0.189 0.094 0.411 0.149 0.646 0.149 0.323 0 0.622-0.104 0.865-0.28l1.335-1.341c0.586-0.586 1.319-0.369 1.91 0.222l1.019 1.019c0.586 0.586 0.807 1.319 0.217 1.905z"></path>
</symbol>
<symbol id="icon-water-drop" viewBox="0 0 27 32">
<title>water-drop</title>
<path fill="#ff0084" style="fill: var(--color1, #ff0084)" d="M27.333 6.313c-0.016-0.262-0.205-0.476-0.453-0.53-4.845-1.080-9.105-3.045-12.807-5.733 0.006 0.001-0.111-0.040-0.237-0.040s-0.243 0.041-0.338 0.109l-0.14 0.095h-0.027c-3.643 2.61-7.942 4.574-12.588 5.62-0.485 0.098-0.672 0.307-0.692 0.564-0.033 0.508-0.052 1.099-0.052 1.695 0 6.697 2.4 12.833 6.387 17.596 1.952 2.419 4.282 4.503 6.903 6.17 0.195 0.115 0.29 0.142 0.392 0.142 0.001 0 0.002 0 0.003 0s0.002 0 0.003 0c0.108 0 0.209-0.029 0.297-0.079l0.052-0.035c1.138-0.654 14.267-8.617 13.298-25.573zM13.257 29.093v0.082s-11.785-6.862-10.971-21.335c4.293-0.965 8.076-2.674 11.393-5l0.085-0.014c3.051 2.319 6.69 4.040 10.647 4.912 1.011 14.489-11.154 21.355-11.154 21.355z"></path>
<path fill="#ff0084" style="fill: var(--color1, #ff0084)" d="M18.688 17.829l-5.029-9.696-5.010 9.696c-1.001 3.392 2.249 6.085 5.029 6.085s6.171-2.665 5.010-6.085zM13.618 22.798c-0.032 0.004-0.068 0.007-0.105 0.007s-0.074-0.002-0.109-0.007l-0.256-0.045-0.137-0.027-0.21-0.059c-0.178-0.040-0.33-0.089-0.477-0.149l-0.222-0.089-0.251-0.123c-0.2-0.104-0.368-0.206-0.528-0.317-0.33-0.242-0.631-0.526-0.891-0.845-0.242-0.313-0.447-0.661-0.603-1.034-0.066-0.17-0.121-0.345-0.165-0.525l-0.061-0.269-0.032-0.233c-0.018-0.116-0.027-0.249-0.027-0.385 0-0.006 0-0.012 0-0.018-0.004-0.045-0.006-0.098-0.006-0.152s0.002-0.107 0.007-0.16l-0-0.258 0.046 0.261c0.017 0.11 0.041 0.207 0.072 0.301 0.033 0.129 0.076 0.249 0.126 0.365l0.076 0.185 0.11 0.206c0.089 0.162 0.175 0.298 0.269 0.428 0.101 0.13 0.212 0.257 0.33 0.376 0.122 0.119 0.254 0.231 0.392 0.335 0.262 0.186 0.55 0.34 0.857 0.456 0.14 0.050 0.282 0.091 0.427 0.123l0.221 0.046h0.187c0.045 0.005 0.098 0.007 0.151 0.007s0.106-0.003 0.157-0.008l0.108 0.001h0.402c0.019-0.002 0.041-0.003 0.064-0.003 0.446 0 0.807 0.361 0.807 0.807 0 0.423-0.326 0.77-0.74 0.804z"></path>
</symbol>
<symbol id="icon-duck" viewBox="0 0 30 32">
<title>duck</title>
<path fill="#ff0084" style="fill: var(--color1, #ff0084)" d="M4.896 4.501c-0.715 0.587-2.277-0.48-3.296-0.987s-2.299 0.272-1.125 2.352 2.469 2.864 1.301 2.864-0.709 2.213 2.213 1.824c0.371-0.057 0.798-0.090 1.233-0.090 0.146 0 0.291 0.004 0.435 0.011-0.030-0.274-0.055-0.531-0.094-0.784-0.293-0.745-0.465-1.649-0.465-2.593 0-1.114 0.24-2.172 0.67-3.125-0.345 0.182-0.626 0.344-0.883 0.535z"></path>
<path fill="#ff0084" style="fill: var(--color1, #ff0084)" d="M15.045 32c7.648 0 12.955-3.701 13.867-8.064 1.819-8.848 0-12.096-1.691-11.963s-3.515 3.637-5.461 3.771-1.429-1.952-4.267-1.952c-0.022 0.001-0.049 0.001-0.075 0.001-0.602 0-1.145-0.257-1.524-0.667 2.362-1.131 3.966-3.502 3.966-6.248 0-3.812-3.090-6.901-6.901-6.901s-6.901 3.090-6.901 6.901c0 0.874 0.163 1.711 0.459 2.481 0.039 0.343 0.070 0.793 0.070 1.251 0 2.913-1.265 5.531-3.277 7.334-2.361 2.211-2.089 5.992-2.089 5.992-0.032 4.453 6.171 8.064 13.824 8.064zM9.712 3.365c0.61 0 1.104 0.494 1.104 1.104s-0.494 1.104-1.104 1.104c-0.61 0-1.104-0.494-1.104-1.104 0-0 0-0 0-0 0-0.61 0.494-1.104 1.104-1.104 0.008 0 0.015 0 0.022 0z"></path>
</symbol>
<symbol id="icon-phone" viewBox="0 0 32 32">
<title>phone</title>
<path d="M16 0c-8.832 0-16 7.168-16 16s7.168 16 16 16c8.832 0 16-7.168 16-16s-7.168-16-16-16zM25.856 22.208c-0.704 2.496-2.688 4.096-5.568 3.84-0.96-0.064-5.248-0.96-9.216-4.928-4.032-3.968-4.864-8.192-4.928-9.152-0.32-2.88 0.96-5.12 3.328-5.952 0.704-0.256 1.472 0.128 1.792 0.768l1.28 2.752c0.256 0.576 0.128 1.216-0.32 1.664l-1.984 1.984c0 0 0.064 1.536 3.2 4.736 3.136 3.136 4.736 3.2 4.736 3.2l1.92-1.92c0.448-0.448 1.152-0.576 1.664-0.256l3.2 1.6c0.768 0.256 1.088 1.024 0.896 1.664z"></path>
</symbol>
<symbol id="icon-menu" viewBox="0 0 32 32">
<title>menu</title>
<path fill="#313859" style="fill: var(--color1, #313859)" d="M0 0h32v6.4h-32v-6.4z"></path>
<path fill="#313859" style="fill: var(--color1, #313859)" d="M0 12.8h32v6.4h-32v-6.4z"></path>
<path fill="#313859" style="fill: var(--color1, #313859)" d="M0 25.6h32v6.4h-32v-6.4z"></path>
</symbol>
</defs>
</svg>
